<svg version="1.1" xmlns="http://www.w3.org/2000/svg" xmlns:xlink="http://www.w3.org/1999/xlink" width="49" height="79"><defs/><g><path fill="rgb(255,255,255)" stroke="none" paint-order="stroke fill markers" fill-rule="evenodd" d=" M 47.62621593475342 70.24996721744537 C 47.62621593475342 70.24996721744537 47.62621593475342 8.73435664176941 47.62621593475342 8.73435664176941 C 47.62204360961914 4.604424953460693 44.33325004577637 1.2571743726730347 40.27457904815674 1.252175211906433 C 40.27457904815674 1.252175211906433 8.495063304901123 1.252175211906433 8.495063304901123 1.252175211906433 C 4.4361419677734375 1.2571743726730347 1.1468477249145508 4.604112505912781 1.142007827758789 8.73435664176941 C 1.142007827758789 8.73435664176941 1.142007827758789 70.24996721744537 1.142007827758789 70.24996721744537 C 1.1460132598876953 74.38052380084991 4.435808181762695 77.72793060541153 8.495063304901123 77.73214864730835 C 8.495063304901123 77.73214864730835 40.3561897277832 77.73214864730835 40.3561897277832 77.73214864730835 C 42.3307843208313 77.72793060541153 44.22059726715088 76.914785861969 45.59913349151611 75.47612112760544 C 46.94253873825073 74.08526086807251 47.674030780792236 72.19948369264603 47.62621593475342 70.24996721744537 Z M 42.07910966873169 72.00311040878296 C 41.62841510772705 72.48006159067154 41.00498628616333 72.74814158678055 40.35468769073486 72.74454843997955 C 40.35468769073486 72.74454843997955 8.493644714355469 72.74454843997955 8.493644714355469 72.74454843997955 C 7.1403093338012695 72.74282997846603 6.043738842010498 71.62692356109619 6.042069911956787 70.24996721744537 C 6.042069911956787 70.24996721744537 6.042069911956787 8.73435664176941 6.042069911956787 8.73435664176941 C 6.041235446929932 7.3549007177352905 7.139474868774414 6.236182272434235 8.495063304901123 6.235244929790497 C 8.495063304901123 6.235244929790497 8.495063304901123 6.235244929790497 8.495063304901123 6.235244929790497 C 8.495063304901123 6.235244929790497 40.27457904815674 6.235244929790497 40.27457904815674 6.235244929790497 C 41.62783098220825 6.236963391304016 42.72448492050171 7.352869808673859 42.726070404052734 8.729826152324677 C 42.726070404052734 8.729826152324677 42.726070404052734 70.3238610625267 42.726070404052734 70.3238610625267 C 42.74434518814087 70.94953727722168 42.51061153411865 71.55552929639816 42.07910966873169 72.0015481710434 C 42.07910966873169 72.0015481710434 42.07910966873169 72.00311040878296 42.07910966873169 72.00311040878296 Z M 3.5919971466064453 10.978354930877686 C 3.5919971466064453 10.978354930877686 45.25633525848389 10.978354930877686 45.25633525848389 10.978354930877686 C 45.25633525848389 10.978354930877686 45.25633525848389 15.965955138206482 45.25633525848389 15.965955138206482 C 45.25633525848389 15.965955138206482 3.5919971466064453 15.965955138206482 3.5919971466064453 15.965955138206482 C 3.5919971466064453 15.965955138206482 3.5919971466064453 10.978354930877686 3.5919971466064453 10.978354930877686 Z M 3.5919971466064453 59.110431015491486 C 3.5919971466064453 59.110431015491486 45.25633525848389 59.110431015491486 45.25633525848389 59.110431015491486 C 45.25633525848389 59.110431015491486 45.25633525848389 64.09803122282028 45.25633525848389 64.09803122282028 C 45.25633525848389 64.09803122282028 3.5919971466064453 64.09803122282028 3.5919971466064453 64.09803122282028 C 3.5919971466064453 64.09803122282028 3.5919971466064453 59.110431015491486 3.5919971466064453 59.110431015491486 Z M 26.467604160308838 65.84367567300797 C 26.467604160308838 65.84367567300797 22.382230281829834 65.84367567300797 22.382230281829834 65.84367567300797 C 21.029812812805176 65.77587455511093 19.879586219787598 66.83632153272629 19.81282901763916 68.21234053373337 C 19.746238708496094 69.58835953474045 20.78840208053589 70.758944272995 22.14056921005249 70.82674539089203 C 22.22117853164673 70.83080720901489 22.301787853240967 70.83080720901489 22.382230281829834 70.82674539089203 C 22.382230281829834 70.82674539089203 26.467604160308838 70.82674539089203 26.467604160308838 70.82674539089203 C 27.81993818283081 70.89470273256302 28.97016477584839 69.8340995311737 29.03700542449951 68.45808053016663 C 29.103595733642578 67.08206152915955 28.061432361602783 65.911476790905 26.709181785583496 65.84367567300797 C 26.62873935699463 65.8396138548851 26.548046588897705 65.8396138548851 26.467604160308838 65.84367567300797 Z"/></g></svg>