<svg version="1.1" xmlns="http://www.w3.org/2000/svg" xmlns:xlink="http://www.w3.org/1999/xlink" width="60" height="79"><defs/><g><path fill="rgb(255,255,255)" stroke="none" paint-order="stroke fill markers" fill-rule="evenodd" d=" M 51.78349733352661 1.2493631839752197 C 51.78349733352661 1.2493631839752197 8.206064701080322 1.2493631839752197 8.206064701080322 1.2493631839752197 C 4.499621391296387 1.2535812258720398 1.495964527130127 4.261513769626617 1.4917922019958496 7.973390638828278 C 1.4917922019958496 7.973390638828278 1.4917922019958496 71.02686804533005 1.4917922019958496 71.02686804533005 C 1.495964527130127 74.73874491453171 4.499621391296387 77.74683368206024 8.206064701080322 77.7508955001831 C 8.206064701080322 77.7508955001831 51.78349733352661 77.7508955001831 51.78349733352661 77.7508955001831 C 55.49002408981323 77.74683368206024 58.49351406097412 74.73874491453171 58.497769832611084 71.02686804533005 C 58.497769832611084 71.02686804533005 58.497769832611084 7.973390638828278 58.497769832611084 7.973390638828278 C 58.49351406097412 4.261513769626617 55.49002408981323 1.2535812258720398 51.78349733352661 1.2493631839752197 Z M 54.02153253555298 71.02686804533005 C 54.01752710342407 72.26306676864624 53.01783800125122 73.2641487121582 51.78349733352661 73.26821053028107 C 51.78349733352661 73.26821053028107 8.206064701080322 73.26821053028107 8.206064701080322 73.26821053028107 C 6.971724033355713 73.2641487121582 5.972034931182861 72.26306676864624 5.9679460525512695 71.02686804533005 C 5.9679460525512695 71.02686804533005 5.9679460525512695 63.55015444755554 5.9679460525512695 63.55015444755554 C 5.9679460525512695 63.55015444755554 54.02303457260132 63.55015444755554 54.02303457260132 63.55015444755554 C 54.02303457260132 63.55015444755554 54.02303457260132 71.02686804533005 54.02303457260132 71.02686804533005 C 54.02303457260132 71.02686804533005 54.02153253555298 71.02686804533005 54.02153253555298 71.02686804533005 Z M 54.02153253555298 59.0674694776535 C 54.02153253555298 59.0674694776535 5.9679460525512695 59.0674694776535 5.9679460525512695 59.0674694776535 C 5.9679460525512695 59.0674694776535 5.9679460525512695 15.878938496112823 5.9679460525512695 15.878938496112823 C 5.9679460525512695 15.878938496112823 54.02303457260132 15.878938496112823 54.02303457260132 15.878938496112823 C 54.02303457260132 15.878938496112823 54.02303457260132 59.0674694776535 54.02303457260132 59.0674694776535 C 54.02303457260132 59.0674694776535 54.02153253555298 59.0674694776535 54.02153253555298 59.0674694776535 Z M 54.02153253555298 11.391723036766052 C 54.02153253555298 11.391723036766052 5.9679460525512695 11.391723036766052 5.9679460525512695 11.391723036766052 C 5.9679460525512695 11.391723036766052 5.9679460525512695 7.973390638828278 5.9679460525512695 7.973390638828278 C 5.972034931182861 6.737348139286041 6.971724033355713 5.736109972000122 8.206064701080322 5.732048153877258 C 8.206064701080322 5.732048153877258 51.78349733352661 5.732048153877258 51.78349733352661 5.732048153877258 C 53.01783800125122 5.736109972000122 54.01752710342407 6.737348139286041 54.02153253555298 7.973390638828278 C 54.02153253555298 7.973390638828278 54.02153253555298 11.396253526210785 54.02153253555298 11.396253526210785 C 54.02153253555298 11.396253526210785 54.02153253555298 11.391723036766052 54.02153253555298 11.391723036766052 Z M 31.64226531982422 65.83055287599564 C 31.64226531982422 65.83055287599564 28.348798751831055 65.83055287599564 28.348798751831055 65.83055287599564 C 27.112622261047363 65.82727217674255 26.108176708221436 66.82819789648056 26.105005741119385 68.06611508131027 C 26.101834774017334 69.30403226613998 27.10127353668213 70.30995714664459 28.337366580963135 70.31323784589767 C 28.341121673583984 70.31323784589767 28.345043659210205 70.31323784589767 28.348798751831055 70.31323784589767 C 28.348798751831055 70.31323784589767 31.64226531982422 70.31323784589767 31.64226531982422 70.31323784589767 C 32.878358364105225 70.3163623213768 33.88288736343384 69.3154366016388 33.88605833053589 68.07751941680908 C 33.889145851135254 66.83975845575333 32.889790534973145 65.83367735147476 31.653614044189453 65.83055287599564 C 31.64994239807129 65.83055287599564 31.64618730545044 65.83055287599564 31.64226531982422 65.83055287599564 Z"/></g></svg>