<svg version="1.1" xmlns="http://www.w3.org/2000/svg" xmlns:xlink="http://www.w3.org/1999/xlink" width="84" height="84"><defs/><g><path fill="rgb(255,255,255)" stroke="none" paint-order="stroke fill markers" fill-rule="evenodd" d=" M 73.79998302459717 10.991981267929077 C 73.79998302459717 10.991981267929077 61.77592611312866 10.991981267929077 61.77592611312866 10.991981267929077 C 61.77592611312866 10.991981267929077 61.77592611312866 8.618942141532898 61.77592611312866 8.618942141532898 C 61.771753787994385 4.688976883888245 58.5869345664978 1.5041990280151367 54.65693807601929 1.4999809861183167 C 54.65693807601929 1.4999809861183167 29.34444284439087 1.4999809861183167 29.34444284439087 1.4999809861183167 C 25.414446353912354 1.5041990280151367 22.22962713241577 4.688976883888245 22.225454807281494 8.618942141532898 C 22.225454807281494 8.618942141532898 22.225454807281494 10.991981267929077 22.225454807281494 10.991981267929077 C 22.225454807281494 10.991981267929077 10.199979305267334 10.991981267929077 10.199979305267334 10.991981267929077 C 5.39746618270874 10.99776154756546 1.5057716369628906 14.889295756816864 1.4999303817749023 19.691927015781403 C 1.4999303817749023 19.691927015781403 1.4999303817749023 54.49186623096466 1.4999303817749023 54.49186623096466 C 1.5057716369628906 59.2944974899292 5.39746618270874 63.1860316991806 10.199979305267334 63.19196820259094 C 10.199979305267334 63.19196820259094 22.223952770233154 63.19196820259094 22.223952770233154 63.19196820259094 C 22.223952770233154 63.19196820259094 22.223952770233154 65.56485110521317 22.223952770233154 65.56485110521317 C 22.22812509536743 69.49497258663177 25.412944316864014 72.67975044250488 29.34294080734253 72.6839684844017 C 29.34294080734253 72.6839684844017 33.29997396469116 72.6839684844017 33.29997396469116 72.6839684844017 C 33.29997396469116 72.6839684844017 33.29997396469116 80.11943900585175 33.29997396469116 80.11943900585175 C 33.2957181930542 81.43000024557114 34.354904651641846 82.495758831501 35.66543197631836 82.49997687339783 C 35.66743469238281 82.49997687339783 35.66952085494995 82.49997687339783 35.67144012451172 82.49997687339783 C 35.67144012451172 82.49997687339783 48.3284387588501 82.49997687339783 48.3284387588501 82.49997687339783 C 49.63838195800781 82.49903953075409 50.69998836517334 81.43687409162521 50.69998836517334 80.12693774700165 C 50.69998836517334 80.12693774700165 50.69998836517334 72.6914672255516 50.69998836517334 72.6914672255516 C 50.69998836517334 72.6914672255516 54.65543603897095 72.6914672255516 54.65543603897095 72.6914672255516 C 58.58543252944946 72.68724918365479 61.770251750946045 69.50247132778168 61.77442407608032 65.57234984636307 C 61.77442407608032 65.57234984636307 61.77442407608032 63.199466943740845 61.77442407608032 63.199466943740845 C 61.77442407608032 63.199466943740845 73.79998302459717 63.199466943740845 73.79998302459717 63.199466943740845 C 78.60249614715576 63.193530440330505 82.49410724639893 59.3019962310791 82.49994850158691 54.49936497211456 C 82.49994850158691 54.49936497211456 82.49994850158691 19.699425756931305 82.49994850158691 19.699425756931305 C 82.4982795715332 14.893982470035553 78.60533332824707 10.99776154756546 73.79998302459717 10.991981267929077 Z M 26.969972610473633 8.618942141532898 C 26.971641540527344 7.309005796909332 28.032997608184814 6.247621476650238 29.34294080734253 6.245903015136719 C 29.34294080734253 6.245903015136719 54.65693807601929 6.245903015136719 54.65693807601929 6.245903015136719 C 55.966881275177 6.247621476650238 57.02832078933716 7.309005796909332 57.02998971939087 8.618942141532898 C 57.02998971939087 8.618942141532898 57.02998971939087 10.991981267929077 57.02998971939087 10.991981267929077 C 57.02998971939087 10.991981267929077 26.969972610473633 10.991981267929077 26.969972610473633 10.991981267929077 C 26.969972610473633 10.991981267929077 26.969972610473633 8.618942141532898 26.969972610473633 8.618942141532898 Z M 6.245950222015381 54.497958958148956 C 6.245950222015381 54.497958958148956 6.245950222015381 19.697863519191742 6.245950222015381 19.697863519191742 C 6.245950222015381 17.51323026418686 8.015266418457031 15.741183996200562 10.199979305267334 15.73790329694748 C 10.199979305267334 15.73790329694748 68.26197242736816 15.73790329694748 68.26197242736816 15.73790329694748 C 68.26197242736816 15.73790329694748 68.26197242736816 58.453388690948486 68.26197242736816 58.453388690948486 C 68.26197242736816 58.453388690948486 10.199979305267334 58.453388690948486 10.199979305267334 58.453388690948486 C 8.017018795013428 58.450107991695404 6.248453617095947 56.68087375164032 6.245950222015381 54.497958958148956 Z M 45.9554705619812 77.74796211719513 C 45.9554705619812 77.74796211719513 38.0444917678833 77.74796211719513 38.0444917678833 77.74796211719513 C 38.0444917678833 77.74796211719513 38.0444917678833 72.6914672255516 38.0444917678833 72.6914672255516 C 38.0444917678833 72.6914672255516 45.95396852493286 72.6914672255516 45.95396852493286 72.6914672255516 C 45.95396852493286 72.6914672255516 45.9554705619812 77.74796211719513 45.9554705619812 77.74796211719513 Z M 57.02998971939087 65.56641334295273 C 57.03416204452515 66.87869304418564 55.97364044189453 67.94570142030716 54.66144418716431 67.94991946220398 C 54.65994215011597 67.94991946220398 54.65844011306763 67.94991946220398 54.65693807601929 67.94991946220398 C 54.65693807601929 67.94991946220398 29.34444284439087 67.94991946220398 29.34444284439087 67.94991946220398 C 28.034499645233154 67.94820100069046 26.973143577575684 66.88681668043137 26.971474647521973 65.5768803358078 C 26.971474647521973 65.5768803358078 26.971474647521973 63.199466943740845 26.971474647521973 63.199466943740845 C 26.971474647521973 63.199466943740845 57.02998971939087 63.199466943740845 57.02998971939087 63.199466943740845 C 57.02998971939087 63.199466943740845 57.02998971939087 65.56641334295273 57.02998971939087 65.56641334295273 Z M 77.75392866134644 54.49186623096466 C 77.75484657287598 56.677280604839325 75.98528003692627 58.450107991695404 73.79998302459717 58.453388690948486 C 73.79998302459717 58.453388690948486 73.00949430465698 58.453388690948486 73.00949430465698 58.453388690948486 C 73.00949430465698 58.453388690948486 73.00949430465698 15.73790329694748 73.00949430465698 15.73790329694748 C 73.00949430465698 15.73790329694748 73.79998302459717 15.73790329694748 73.79998302459717 15.73790329694748 C 75.98352766036987 15.74040287733078 77.75309419631958 17.509949564933777 77.75543069839478 19.693489253520966 C 77.75543069839478 19.693489253520966 77.75392866134644 54.49186623096466 77.75392866134644 54.49186623096466 Z M 13.364938259124756 31.55837243795395 C 12.054410934448242 31.55837243795395 10.99197006225586 32.62085032463074 10.99197006225586 33.93141156435013 C 10.99197006225586 33.93141156435013 10.99197006225586 33.93141156435013 10.99197006225586 33.93141156435013 C 10.99197006225586 33.93141156435013 10.99197006225586 40.25847440958023 10.99197006225586 40.25847440958023 C 10.99197006225586 41.56903564929962 12.054410934448242 42.631357312202454 13.364938259124756 42.631357312202454 C 14.675549030303955 42.631357312202454 15.737989902496338 41.56903564929962 15.737989902496338 40.25847440958023 C 15.737989902496338 40.25847440958023 15.737989902496338 33.929849326610565 15.737989902496338 33.929849326610565 C 15.737155437469482 32.619912981987 14.674964904785156 31.55837243795395 13.364938259124756 31.55837243795395 Z M 13.49995470046997 46.49992662668228 C 15.156785011291504 46.49992662668228 16.499939918518066 47.507257521152496 16.499939918518066 48.7498614192009 C 16.499939918518066 49.9924653172493 15.156785011291504 50.99995243549347 13.49995470046997 50.99995243549347 C 11.843124389648438 50.99995243549347 10.499969482421875 49.9924653172493 10.499969482421875 48.7498614192009 C 10.499969482421875 47.507257521152496 11.843124389648438 46.49992662668228 13.49995470046997 46.49992662668228 Z M 30.92542028427124 52.12491983175278 C 30.92542028427124 52.12491983175278 53.074458599090576 52.12491983175278 53.074458599090576 52.12491983175278 C 54.38498592376709 52.12491983175278 55.44742679595947 51.06244194507599 55.44742679595947 49.7518807053566 C 55.44742679595947 49.7518807053566 55.44742679595947 49.7518807053566 55.44742679595947 49.7518807053566 C 55.44742679595947 49.7518807053566 55.44742679595947 48.16636562347412 55.44742679595947 48.16636562347412 C 55.44367170333862 43.30655646324158 52.81919574737549 38.82668352127075 48.58194923400879 36.44692677259445 C 51.7244610786438 32.81206822395325 51.325586795806885 27.318146765232086 47.690824031829834 24.17554932832718 C 44.05614471435547 21.033108115196228 38.56211042404175 21.43194741010666 35.41943168640137 25.066649734973907 C 32.59451723098755 28.334226191043854 32.59451723098755 33.17950654029846 35.41943168640137 36.44692677259445 C 31.181684494018555 38.82621484994888 28.55662441253662 43.306244015693665 28.552452087402344 48.16636562347412 C 28.552452087402344 48.16636562347412 28.552452087402344 49.74891245365143 28.552452087402344 49.74891245365143 C 28.550783157348633 51.05947369337082 29.611888885498047 52.12320137023926 30.922499656677246 52.12491983175278 C 30.923501014709473 52.12491983175278 30.924418926239014 52.12491983175278 30.92542028427124 52.12491983175278 Z M 38.0444917678833 30.767880141735077 C 38.0444917678833 28.583246886730194 39.81539344787598 26.812450408935547 41.99993944168091 26.812450408935547 C 44.184568881988525 26.812450408935547 45.9554705619812 28.583246886730194 45.9554705619812 30.767880141735077 C 45.9554705619812 32.95251339673996 44.184568881988525 34.72346609830856 41.99993944168091 34.72346609830856 C 41.99993944168091 34.72346609830856 41.99993944168091 34.72346609830856 41.99993944168091 34.72346609830856 C 39.815810680389404 34.720810294151306 38.046077251434326 32.950638711452484 38.0444917678833 30.76647412776947 C 38.0444917678833 30.76647412776947 38.0444917678833 30.767880141735077 38.0444917678833 30.767880141735077 Z M 41.99993944168091 39.46798211336136 C 46.49662113189697 39.47344994544983 50.250545501708984 42.89990597963333 50.66544151306152 47.37743556499481 C 50.66544151306152 47.37743556499481 33.33443737030029 47.37743556499481 33.33443737030029 47.37743556499481 C 33.74858236312866 42.899281084537506 37.502840518951416 39.47204393148422 41.99993944168091 39.466419875621796 C 41.99993944168091 39.466419875621796 41.99993944168091 39.46798211336136 41.99993944168091 39.46798211336136 Z"/></g></svg>