<svg version="1.1" xmlns="http://www.w3.org/2000/svg" xmlns:xlink="http://www.w3.org/1999/xlink" width="79" height="79"><defs/><g><path fill="rgb(255,255,255)" stroke="none" paint-order="stroke fill markers" fill-rule="evenodd" d=" M 77.75147867202759 50.81244903802872 C 77.7468056678772 46.72360420227051 74.97554731369019 43.152797400951385 71.00733232498169 42.12234538793564 C 71.00733232498169 42.12234538793564 71.00733232498169 39.59386360645294 71.00733232498169 39.59386360645294 C 71.0044116973877 36.74356085062027 69.20438718795776 34.20304983854294 66.51123476028442 33.24852257966995 C 66.51123476028442 33.24852257966995 66.51123476028442 16.035787165164948 66.51123476028442 16.035787165164948 C 66.59284543991089 7.981514275074005 60.111305236816406 1.3863714337348938 52.0341010093689 1.3048226237297058 C 43.95698022842407 1.2232738137245178 37.34276008605957 7.686407566070557 37.26106595993042 15.740524232387543 C 37.26006460189819 15.838945209980011 37.26006460189819 15.93736618757248 37.26106595993042 16.035787165164948 C 37.26106595993042 16.035787165164948 37.26106595993042 63.151940047740936 37.26106595993042 63.151940047740936 C 37.26106595993042 68.72787898778915 32.727834701538086 73.24821388721466 27.135834217071533 73.24821388721466 C 21.543917179107666 73.24821388721466 17.010685920715332 68.72787898778915 17.010685920715332 63.151940047740936 C 17.010685920715332 63.151940047740936 17.010685920715332 45.939048409461975 17.010685920715332 45.939048409461975 C 19.703838348388672 44.98452115058899 21.50394630432129 42.44401013851166 21.506783485412598 39.59386360645294 C 21.506783485412598 39.59386360645294 21.506783485412598 37.06678783893585 21.506783485412598 37.06678783893585 C 25.474998474121094 36.036335825920105 28.246256828308105 32.46552902460098 28.250929832458496 28.376684188842773 C 28.250929832458496 28.376684188842773 28.250929832458496 10.4256352186203 28.250929832458496 10.4256352186203 C 28.250929832458496 10.4256352186203 23.75483226776123 10.4256352186203 23.75483226776123 10.4256352186203 C 23.75483226776123 10.4256352186203 23.75483226776123 1.4516729712486267 23.75483226776123 1.4516729712486267 C 23.75483226776123 1.4516729712486267 5.744907379150391 1.4516729712486267 5.744907379150391 1.4516729712486267 C 5.744907379150391 1.4516729712486267 5.744907379150391 10.4256352186203 5.744907379150391 10.4256352186203 C 5.744907379150391 10.4256352186203 1.248809814453125 10.4256352186203 1.248809814453125 10.4256352186203 C 1.248809814453125 10.4256352186203 1.248809814453125 28.37512195110321 1.248809814453125 28.37512195110321 C 1.2534828186035156 32.464123010635376 4.024741172790527 36.03477358818054 7.992956161499023 37.06522560119629 C 7.992956161499023 37.06522560119629 7.992956161499023 39.59230136871338 7.992956161499023 39.59230136871338 C 7.995793342590332 42.442447900772095 9.79590129852295 44.982958912849426 12.489053726196289 45.93764239549637 C 12.489053726196289 45.93764239549637 12.489053726196289 63.151940047740936 12.489053726196289 63.151940047740936 C 12.570831298828125 71.20605671405792 19.18496799468994 77.66919046640396 27.262088775634766 77.58764165639877 C 35.224053382873535 77.50734263658524 41.65852975845337 71.09091979265213 41.73922252655029 63.151940047740936 C 41.73922252655029 63.151940047740936 41.73922252655029 16.035787165164948 41.73922252655029 16.035787165164948 C 41.73721981048584 10.459692001342773 46.26886558532715 5.937794864177704 51.86094951629639 5.935920178890228 C 57.45295000076294 5.934045493602753 61.98768329620361 10.45266193151474 61.98960256576538 16.028757095336914 C 61.98960256576538 16.03110045194626 61.98960256576538 16.033287584781647 61.98960256576538 16.035787165164948 C 61.98960256576538 16.035787165164948 61.98960256576538 33.24852257966995 61.98960256576538 33.24852257966995 C 59.29645013809204 34.20304983854294 57.496342182159424 36.74356085062027 57.493505001068115 39.59386360645294 C 57.493505001068115 39.59386360645294 57.493505001068115 42.120783150196075 57.493505001068115 42.120783150196075 C 53.52529001235962 43.15123516321182 50.75403165817261 46.722041964530945 50.74935865402222 50.810886800289154 C 50.74935865402222 50.810886800289154 50.74935865402222 68.76037353277206 50.74935865402222 68.76037353277206 C 50.74935865402222 68.76037353277206 55.24545621871948 68.76037353277206 55.24545621871948 68.76037353277206 C 55.24545621871948 68.76037353277206 55.24545621871948 77.7344920039177 55.24545621871948 77.7344920039177 C 55.24545621871948 77.7344920039177 73.2508749961853 77.7344920039177 73.2508749961853 77.7344920039177 C 73.2508749961853 77.7344920039177 73.2508749961853 68.76037353277206 73.2508749961853 68.76037353277206 C 73.2508749961853 68.76037353277206 77.74697256088257 68.76037353277206 77.74697256088257 68.76037353277206 C 77.74697256088257 68.76037353277206 77.75147867202759 50.81244903802872 77.75147867202759 50.81244903802872 Z M 14.74911880493164 41.83692455291748 C 13.507518291473389 41.83692455291748 12.501070022583008 40.83318680524826 12.501070022583008 39.59526962041855 C 12.501070022583008 39.59526962041855 12.501070022583008 37.35361468791962 12.501070022583008 37.35361468791962 C 12.501070022583008 37.35361468791962 16.997167587280273 37.35361468791962 16.997167587280273 37.35361468791962 C 16.997167587280273 37.35361468791962 16.997167587280273 39.59526962041855 16.997167587280273 39.59526962041855 C 16.997167587280273 40.83318680524826 15.990719318389893 41.83692455291748 14.74911880493164 41.83692455291748 Z M 10.248515129089355 5.9349828362464905 C 10.248515129089355 5.9349828362464905 19.248220443725586 5.9349828362464905 19.248220443725586 5.9349828362464905 C 19.248220443725586 5.9349828362464905 19.248220443725586 10.418136477470398 19.248220443725586 10.418136477470398 C 19.248220443725586 10.418136477470398 10.248515129089355 10.418136477470398 10.248515129089355 10.418136477470398 C 10.248515129089355 10.418136477470398 10.248515129089355 5.9349828362464905 10.248515129089355 5.9349828362464905 Z M 23.74882411956787 14.908945083618164 C 23.74882411956787 14.908945083618164 23.74882411956787 19.392254948616028 23.74882411956787 19.392254948616028 C 23.74882411956787 19.392254948616028 5.744907379150391 19.392254948616028 5.744907379150391 19.392254948616028 C 5.744907379150391 19.392254948616028 5.744907379150391 14.908945083618164 5.744907379150391 14.908945083618164 C 5.744907379150391 14.908945083618164 23.74882411956787 14.908945083618164 23.74882411956787 14.908945083618164 Z M 5.744907379150391 28.37512195110321 C 5.744907379150391 28.37512195110321 5.744907379150391 23.891812086105347 5.744907379150391 23.891812086105347 C 5.744907379150391 23.891812086105347 23.74882411956787 23.891812086105347 23.74882411956787 23.891812086105347 C 23.74882411956787 23.891812086105347 23.74882411956787 28.37512195110321 23.74882411956787 28.37512195110321 C 23.743900775909424 30.849237859249115 21.73384141921997 32.85343265533447 19.252726554870605 32.858431816101074 C 19.252726554870605 32.858431816101074 10.248515129089355 32.858431816101074 10.248515129089355 32.858431816101074 C 7.764563083648682 32.85765069723129 5.749914169311523 30.85204988718033 5.744907379150391 28.37512195110321 Z M 64.24666357040405 37.34924042224884 C 65.48818063735962 37.34924042224884 66.49471235275269 38.352821946144104 66.49471235275269 39.590739130973816 C 66.49471235275269 39.590739130973816 66.49471235275269 41.83239406347275 66.49471235275269 41.83239406347275 C 66.49471235275269 41.83239406347275 61.99861478805542 41.83239406347275 61.99861478805542 41.83239406347275 C 61.99861478805542 41.83239406347275 61.99861478805542 39.590739130973816 61.99861478805542 39.590739130973816 C 61.99936580657959 38.352821946144104 63.006648540496826 37.34970909357071 64.24816560745239 37.35064643621445 C 64.2492504119873 37.35064643621445 64.25008487701416 37.35064643621445 64.25116968154907 37.35064643621445 C 64.25116968154907 37.35064643621445 64.24666357040405 37.34924042224884 64.24666357040405 37.34924042224884 Z M 59.75056600570679 46.323202669620514 C 59.75056600570679 46.323202669620514 68.75027132034302 46.323202669620514 68.75027132034302 46.323202669620514 C 71.23138618469238 46.32804560661316 73.24144554138184 48.33239662647247 73.24636888504028 50.80651253461838 C 73.24636888504028 50.80651253461838 73.24636888504028 55.289666175842285 73.24636888504028 55.289666175842285 C 73.24636888504028 55.289666175842285 55.2499623298645 55.289666175842285 55.2499623298645 55.289666175842285 C 55.2499623298645 55.289666175842285 55.2499623298645 50.80651253461838 55.2499623298645 50.80651253461838 C 55.25580358505249 48.33130306005478 57.268282890319824 46.32710826396942 59.75056600570679 46.32460868358612 C 59.75056600570679 46.32460868358612 59.75056600570679 46.323202669620514 59.75056600570679 46.323202669620514 Z M 68.75027132034302 73.24821388721466 C 68.75027132034302 73.24821388721466 59.75056600570679 73.24821388721466 59.75056600570679 73.24821388721466 C 59.75056600570679 73.24821388721466 59.75056600570679 68.7649040222168 59.75056600570679 68.7649040222168 C 59.75056600570679 68.7649040222168 68.75027132034302 68.7649040222168 68.75027132034302 68.7649040222168 C 68.75027132034302 68.7649040222168 68.75027132034302 73.24821388721466 68.75027132034302 73.24821388721466 Z M 55.2499623298645 64.27425163984299 C 55.2499623298645 64.27425163984299 55.2499623298645 59.79094177484512 55.2499623298645 59.79094177484512 C 55.2499623298645 59.79094177484512 73.2508749961853 59.79094177484512 73.2508749961853 59.79094177484512 C 73.2508749961853 59.79094177484512 73.2508749961853 64.27425163984299 73.2508749961853 64.27425163984299 C 73.2508749961853 64.27425163984299 55.2499623298645 64.27425163984299 55.2499623298645 64.27425163984299 Z"/></g></svg>