<svg version="1.1" xmlns="http://www.w3.org/2000/svg" xmlns:xlink="http://www.w3.org/1999/xlink" width="79" height="79"><defs/><g><path fill="rgb(255,255,255)" stroke="none" paint-order="stroke fill markers" fill-rule="evenodd" d=" M 69.48717212677002 10.23910403251648 C 69.48717212677002 10.23910403251648 53.502827644348145 10.23910403251648 53.502827644348145 10.23910403251648 C 52.431124210357666 5.006232500076294 47.829633712768555 1.246863603591919 42.4882230758667 1.240145981311798 C 42.4882230758667 1.240145981311798 18.485921382904053 1.240145981311798 18.485921382904053 1.240145981311798 C 12.28267526626587 1.2493631839752197 7.256608963012695 6.27648800611496 7.249098777770996 12.479665398597717 C 7.249098777770996 12.479665398597717 7.249098777770996 59.1468311548233 7.249098777770996 59.1468311548233 C 3.702956199645996 60.153068482875824 1.254218578338623 63.3890877366066 1.2497124671936035 67.07534390687943 C 1.2497124671936035 67.07534390687943 1.2497124671936035 75.47549623250961 1.2497124671936035 75.47549623250961 C 1.2497124671936035 76.71310096979141 2.252906322479248 77.71621382236481 3.490417957305908 77.71621382236481 C 3.490417957305908 77.71621382236481 15.489274024963379 77.71621382236481 15.489274024963379 77.71621382236481 C 16.72678565979004 77.71621382236481 17.729979515075684 76.71310096979141 17.729979515075684 75.47549623250961 C 17.729979515075684 75.47549623250961 17.729979515075684 67.07534390687943 17.729979515075684 67.07534390687943 C 17.72480583190918 63.38893151283264 15.275567531585693 60.15291225910187 11.729007720947266 59.1468311548233 C 11.729007720947266 59.1468311548233 11.729007720947266 12.479665398597717 11.729007720947266 12.479665398597717 C 11.734014511108398 8.749354124069214 14.75694751739502 5.7264240980148315 18.487506866455078 5.72142493724823 C 18.487506866455078 5.72142493724823 42.4882230758667 5.72142493724823 42.4882230758667 5.72142493724823 C 45.35577869415283 5.725174307823181 47.90990924835205 7.535026729106903 48.86412000656128 10.23910403251648 C 48.86412000656128 10.23910403251648 33.48910188674927 10.23910403251648 33.48910188674927 10.23910403251648 C 28.94018268585205 10.244103193283081 25.253933429718018 13.930203139781952 25.248926639556885 18.478970766067505 C 25.248926639556885 18.478970766067505 25.248926639556885 69.47619086503983 25.248926639556885 69.47619086503983 C 25.253933429718018 74.02495849132538 28.94018268585205 77.7112146615982 33.48910188674927 77.71621382236481 C 33.48910188674927 77.71621382236481 69.48717212677002 77.71621382236481 69.48717212677002 77.71621382236481 C 74.03542375564575 77.71043354272842 77.72083854675293 74.02433359622955 77.72576189041138 69.47619086503983 C 77.72576189041138 69.47619086503983 77.72576189041138 18.476002514362335 77.72576189041138 18.476002514362335 C 77.72083854675293 13.927859783172607 74.03542375564575 10.241916060447693 69.48717212677002 10.235979557037354 C 69.48717212677002 10.235979557037354 69.48717212677002 10.23910403251648 69.48717212677002 10.23910403251648 Z M 13.248568534851074 67.07534390687943 C 13.248568534851074 67.07534390687943 13.248568534851074 73.23493486642838 13.248568534851074 73.23493486642838 C 13.248568534851074 73.23493486642838 5.731123447418213 73.23493486642838 5.731123447418213 73.23493486642838 C 5.731123447418213 73.23493486642838 5.731123447418213 67.07534390687943 5.731123447418213 67.07534390687943 C 5.731123447418213 64.99897372722626 7.414322853088379 63.31597501039505 9.49055528640747 63.31597501039505 C 11.566871166229248 63.31597501039505 13.250070571899414 64.99897372722626 13.250070571899414 67.07534390687943 C 13.250070571899414 67.07534390687943 13.248568534851074 67.07534390687943 13.248568534851074 67.07534390687943 Z M 73.24435091018677 69.47619086503983 C 73.24176406860352 71.55099880695343 71.56048393249512 73.23243528604507 69.48567008972168 73.23493486642838 C 69.48567008972168 73.23493486642838 33.48910188674927 73.23493486642838 33.48910188674927 73.23493486642838 C 31.414204597473145 73.23243528604507 29.732924461364746 71.55099880695343 29.730337619781494 69.47619086503983 C 29.730337619781494 69.47619086503983 29.730337619781494 18.476002514362335 29.730337619781494 18.476002514362335 C 29.732924461364746 16.40119457244873 31.414204597473145 14.719914317131042 33.48910188674927 14.717414736747742 C 33.48910188674927 14.717414736747742 69.48717212677002 14.717414736747742 69.48717212677002 14.717414736747742 C 71.56140184402466 14.720695436000824 73.24176406860352 16.401819467544556 73.24435091018677 18.476002514362335 C 73.24435091018677 18.476002514362335 73.24435091018677 69.47619086503983 73.24435091018677 69.47619086503983 Z M 59.07129621505737 38.06302684545517 C 59.9463996887207 37.18801748752594 59.946566581726074 35.769193172454834 59.071463108062744 34.894183814525604 C 58.651309967041016 34.473785638809204 58.081120014190674 34.23788774013519 57.48681402206421 34.23788774013519 C 57.48681402206421 34.23788774013519 50.89620923995972 34.23788774013519 50.89620923995972 34.23788774013519 C 50.89620923995972 34.23788774013519 59.07129621505737 26.06285387277603 59.07129621505737 26.06285387277603 C 59.948068618774414 25.186126053333282 59.948068618774414 23.76464593410492 59.07129621505737 22.887761890888214 C 58.19452381134033 22.011034071445465 56.77301263809204 22.011034071445465 55.896240234375 22.887761890888214 C 55.896240234375 22.887761890888214 55.896240234375 22.887761890888214 55.896240234375 22.887761890888214 C 55.896240234375 22.887761890888214 43.89738416671753 34.88637262582779 43.89738416671753 34.88637262582779 C 43.022197246551514 35.76138198375702 43.02211380004883 37.180206298828125 43.89721727371216 38.055215656757355 C 44.31737041473389 38.475613832473755 44.88756036758423 38.71166795492172 45.48186635971069 38.71166795492172 C 45.48186635971069 38.71166795492172 52.072471141815186 38.71166795492172 52.072471141815186 38.71166795492172 C 52.072471141815186 38.71166795492172 43.89738416671753 46.88654559850693 43.89738416671753 46.88654559850693 C 43.02061176300049 47.76327341794968 43.02061176300049 49.184909760951996 43.89738416671753 50.061637580394745 C 44.77415657043457 50.938365399837494 46.19566774368286 50.938365399837494 47.0724401473999 50.061637580394745 C 47.0724401473999 50.061637580394745 59.07129621505737 38.06302684545517 59.07129621505737 38.06302684545517 Z M 51.491933822631836 57.63630348443985 C 48.26614236831665 57.63630348443985 45.65117931365967 60.25117701292038 45.65117931365967 63.47688549757004 C 45.65117931365967 66.7025939822197 48.26630926132202 69.31746751070023 51.491933822631836 69.31746751070023 C 54.717641830444336 69.31746751070023 57.33260488510132 66.7025939822197 57.33260488510132 63.47688549757004 C 57.3292670249939 60.252583026885986 54.71630668640137 57.63974040746689 51.491933822631836 57.63630348443985 Z M 51.491933822631836 64.8361885547638 C 50.740331172943115 64.8361885547638 50.13117170333862 64.22691583633423 50.13117170333862 63.475323259830475 C 50.13117170333862 62.72388690710068 50.740331172943115 62.11461418867111 51.491933822631836 62.11461418867111 C 52.24345302581787 62.11461418867111 52.85261249542236 62.72388690710068 52.85261249542236 63.475323259830475 C 52.85261249542236 63.475323259830475 52.85261249542236 63.475323259830475 52.85261249542236 63.475323259830475 C 52.85261249542236 64.22691583633423 52.24345302581787 64.8361885547638 51.491933822631836 64.8361885547638 Z M 39.48848819732666 57.63630348443985 C 36.26278018951416 57.63630348443985 33.64781713485718 60.25117701292038 33.64781713485718 63.47688549757004 C 33.64781713485718 66.7025939822197 36.26278018951416 69.31746751070023 39.48848819732666 69.31746751070023 C 42.714279651641846 69.31746751070023 45.32915925979614 66.7025939822197 45.32915925979614 63.47688549757004 C 45.32582139968872 60.252583026885986 42.71286106109619 57.63974040746689 39.48848819732666 57.63630348443985 Z M 39.48848819732666 64.8361885547638 C 38.73688554763794 64.8361885547638 38.12772607803345 64.22691583633423 38.12772607803345 63.475323259830475 C 38.12772607803345 62.72388690710068 38.73688554763794 62.11461418867111 39.48848819732666 62.11461418867111 C 40.23992395401001 62.11461418867111 40.84925031661987 62.72388690710068 40.84925031661987 63.475323259830475 C 40.84925031661987 63.475323259830475 40.84925031661987 63.475323259830475 40.84925031661987 63.475323259830475 C 40.84925031661987 64.22691583633423 40.24009084701538 64.8361885547638 39.48848819732666 64.8361885547638 Z M 63.4862003326416 57.63630348443985 C 60.2604923248291 57.63630348443985 57.64552927017212 60.25117701292038 57.64552927017212 63.47688549757004 C 57.64552927017212 66.7025939822197 60.2604923248291 69.31746751070023 63.4862003326416 69.31746751070023 C 66.71199178695679 69.31746751070023 69.32687139511108 66.7025939822197 69.32687139511108 63.47688549757004 C 69.32353353500366 60.252583026885986 66.71057319641113 57.63974040746689 63.4862003326416 57.63630348443985 Z M 63.4862003326416 64.8361885547638 C 62.73459768295288 64.8361885547638 62.12543821334839 64.22691583633423 62.12543821334839 63.475323259830475 C 62.12543821334839 62.72388690710068 62.73459768295288 62.11461418867111 63.4862003326416 62.11461418867111 C 64.23763608932495 62.11461418867111 64.84696245193481 62.72388690710068 64.84696245193481 63.475323259830475 C 64.84696245193481 63.475323259830475 64.84696245193481 63.475323259830475 64.84696245193481 63.475323259830475 C 64.84696245193481 64.22691583633423 64.23763608932495 64.8361885547638 63.4862003326416 64.8361885547638 Z"/></g></svg>