<svg version="1.1" xmlns="http://www.w3.org/2000/svg" xmlns:xlink="http://www.w3.org/1999/xlink" width="34" height="37"><defs/><g><path fill="rgb(204,204,204)" stroke="none" paint-order="stroke fill markers" fill-rule="evenodd" d=" M 5.533066272735596 23.694831013679504 C 5.533066272735596 23.694831013679504 5.533066272735596 20.325966358184814 5.533066272735596 20.325966358184814 C 5.533066272735596 20.325966358184814 20.178428173065186 5.731046080589294 20.178428173065186 5.731046080589294 C 20.178428173065186 5.731046080589294 23.606660842895508 9.147335767745972 23.606660842895508 9.147335767745972 C 23.606660842895508 9.147335767745972 9.00961446762085 23.694831013679504 9.00961446762085 23.694831013679504 C 9.00961446762085 23.694831013679504 5.533066272735596 23.694831013679504 5.533066272735596 23.694831013679504 C 5.533066272735596 23.694831013679504 5.533066272735596 23.694831013679504 5.533066272735596 23.694831013679504 M 18.940916538238525 4.49808406829834 C 18.940916538238525 4.49808406829834 20.178428173065186 3.196826457977295 20.178428173065186 3.196826457977295 C 20.178428173065186 3.196826457977295 18.940916538238525 4.49808406829834 18.940916538238525 4.49808406829834 C 18.940916538238525 4.49808406829834 18.940916538238525 4.49808406829834 18.940916538238525 4.49808406829834 M 20.178428173065186 1.3796662092208862 C 19.732239723205566 1.3796662092208862 19.286134719848633 1.551604151725769 18.940916538238525 1.8957464694976807 C 18.940916538238525 1.8957464694976807 18.940916538238525 1.8957464694976807 18.940916538238525 1.8957464694976807 C 18.940916538238525 1.8957464694976807 2.5217323303222656 18.258270502090454 2.5217323303222656 18.258270502090454 C 2.1773486137390137 18.601524710655212 1.9851713180541992 19.067426800727844 1.9851713180541992 19.559439301490784 C 1.9851713180541992 19.559439301490784 1.9851713180541992 25.510836720466614 1.9851713180541992 25.510836720466614 C 1.9851713180541992 25.98899471759796 2.1744279861450195 26.4566730260849 2.5047926902770996 26.79477620124817 C 2.835073947906494 27.132879376411438 3.292026996612549 27.326664805412292 3.7591605186462402 27.326664805412292 C 3.7591605186462402 27.326664805412292 9.730508804321289 27.326664805412292 9.730508804321289 27.326664805412292 C 10.190799713134766 27.326664805412292 10.638156414031982 27.140605926513672 10.96802043914795 26.811827898025513 C 10.96802043914795 26.811827898025513 27.387121200561523 10.448415756225586 27.387121200561523 10.448415756225586 C 27.73158836364746 10.105250358581543 27.92368221282959 9.639348268508911 27.92368221282959 9.147246956825256 C 27.92368221282959 8.655234456062317 27.73158836364746 8.18924355506897 27.387121200561523 7.846078157424927 C 27.387121200561523 7.846078157424927 21.41568946838379 1.89556884765625 21.41568946838379 1.89556884765625 C 21.07047128677368 1.551604151725769 20.624366283416748 1.3796662092208862 20.178428173065186 1.3796662092208862 C 19.732406616210938 1.3796662092208862 20.178428173065186 1.3796662092208862 20.178428173065186 1.3796662092208862 M 30.86341905593872 31.91605794429779 C 30.86341905593872 31.91605794429779 3.7591605186462402 31.91605794429779 3.7591605186462402 31.91605794429779 C 2.7794151306152344 31.91605794429779 1.9851713180541992 32.72903311252594 1.9851713180541992 33.731974840164185 C 1.9851713180541992 34.734827756881714 2.7794151306152344 35.54789173603058 3.7591605186462402 35.54789173603058 C 3.7591605186462402 35.54789173603058 30.86341905593872 35.54789173603058 30.86341905593872 35.54789173603058 C 31.843164443969727 35.54789173603058 32.637324810028076 34.734827756881714 32.637324810028076 33.731974840164185 C 32.637324810028076 32.72903311252594 31.843164443969727 31.91605794429779 30.86341905593872 31.91605794429779 C 29.883673667907715 31.91605794429779 30.86341905593872 31.91605794429779 30.86341905593872 31.91605794429779"/></g></svg>