<svg version="1.1" xmlns="http://www.w3.org/2000/svg" xmlns:xlink="http://www.w3.org/1999/xlink" width="54" height="54"><defs/><g><path fill="rgb(204,204,204)" stroke="none" paint-order="stroke fill markers" fill-rule="evenodd" d=" M 26.875865936279297 40.16294074058533 C 27.54101800918579 40.16294074058533 28.214097499847412 39.98558533191681 28.823256969451904 39.61302351951599 C 29.32927656173706 39.30405032634735 29.753685474395752 38.87784671783447 30.062604427337646 38.37357831001282 C 30.062604427337646 38.37357831001282 30.534995079040527 37.59923589229584 30.534995079040527 37.59923589229584 C 32.603633880615234 37.73067605495453 34.658170223236084 38.03964924812317 36.67357015609741 38.52624428272247 C 38.110018253326416 38.72518074512482 39.457679271698 39.334246039390564 40.55683660507202 40.282480239868164 C 39.457679271698 41.22902703285217 38.110018253326416 41.83995735645294 36.67357015609741 42.03880500793457 C 33.61901092529297 42.74254274368286 30.49519109725952 43.09831929206848 27.362943172454834 43.09831929206848 C 27.199304580688477 43.09831929206848 27.036250114440918 43.09734237194061 26.87261152267456 43.095388531684875 C 26.709306716918945 43.09734237194061 26.545668125152588 43.09831929206848 26.382363319396973 43.09831929206848 C 23.24911403656006 43.09831929206848 20.125627994537354 42.74263155460358 17.07181978225708 42.03880500793457 C 15.63528823852539 41.83995735645294 14.286709308624268 41.22902703285217 13.187551975250244 40.282480239868164 C 14.286709308624268 39.334246039390564 15.63528823852539 38.72518074512482 17.07181978225708 38.52624428272247 C 19.087219715118408 38.03964924812317 21.141672611236572 37.73067605495453 23.210394859313965 37.59923589229584 C 23.210394859313965 37.59923589229584 23.680949687957764 38.37357831001282 23.680949687957764 38.37357831001282 C 24.386239528656006 39.52634406089783 25.61615753173828 40.16294074058533 26.875865936279297 40.16294074058533 C 28.135574340820312 40.16294074058533 26.875865936279297 40.16294074058533 26.875865936279297 40.16294074058533 M 26.873112201690674 37.212641954422 C 26.732922077178955 37.212641954422 26.59097957611084 37.17525255680084 26.462555408477783 37.09674370288849 C 26.462555408477783 37.09674370288849 26.199615478515625 36.833863377571106 26.199615478515625 36.833863377571106 C 19.87929391860962 26.496893882751465 16.108513355255127 18.50488793849945 16.108513355255127 15.455032110214233 C 16.114771842956543 9.51224935054779 20.930386066436768 4.697276473045349 26.87261152267456 4.689993977546692 C 32.81492042541504 4.697276473045349 37.62886571884155 9.51224935054779 37.635958671569824 15.455032110214233 C 37.635958671569824 18.50488793849945 33.86442708969116 26.496893882751465 27.547359943389893 36.833863377571106 C 27.398658275604248 37.07809340953827 27.138972759246826 37.212641954422 26.873112201690674 37.212641954422 C 26.607335090637207 37.212641954422 26.873112201690674 37.212641954422 26.873112201690674 37.212641954422 M 26.870441913604736 1.744846224784851 C 26.868021965026855 1.744846224784851 26.866019248962402 1.744846224784851 26.863849639892578 1.744846224784851 C 19.29408359527588 1.7484874725341797 13.159180164337158 7.884789228439331 13.15559196472168 15.455032110214233 C 13.15559196472168 19.4754136800766 17.32307720184326 27.60409963130951 21.528780937194824 34.78286397457123 C 19.570208072662354 34.9675018787384 17.6311616897583 35.31741690635681 15.732086181640625 35.830655217170715 C 12.068033695220947 36.865835309028625 10.209763526916504 38.36283218860626 10.209763526916504 40.28425645828247 C 10.209763526916504 42.20390450954437 12.069786071777344 43.70276641845703 15.733838558197021 44.73803532123566 C 19.395304203033447 45.61264526844025 23.133790969848633 46.049861431121826 26.872194290161133 46.049861431121826 C 30.610597610473633 46.049861431121826 34.34925127029419 45.61264526844025 38.010550022125244 44.73803532123566 C 41.675687313079834 43.70276641845703 43.532872676849365 42.20390450954437 43.532872676849365 40.28425645828247 C 43.532872676849365 38.36283218860626 41.675687313079834 36.865835309028625 38.010550022125244 35.830655217170715 C 36.11239242553711 35.31741690635681 34.17159366607666 34.9675018787384 32.213104248046875 34.78286397457123 C 36.4178900718689 27.60409963130951 40.58537530899048 19.4754136800766 40.58537530899048 15.455032110214233 C 40.581787109375 7.881680846214294 34.443045139312744 1.744846224784851 26.870441913604736 1.744846224784851 C 19.297755241394043 1.744846224784851 26.870441913604736 1.744846224784851 26.870441913604736 1.744846224784851 M 47.048473834991455 36.86619055271149 C 46.52776765823364 36.86619055271149 46.0228328704834 37.1425701379776 45.75421857833862 37.63120782375336 C 45.36185312271118 38.345070004463196 45.62295722961426 39.24188268184662 46.33667516708374 39.63433814048767 C 48.09455919265747 40.60042333602905 49.103177070617676 41.67121660709381 49.103177070617676 42.57158172130585 C 49.103177070617676 43.67257070541382 47.54239368438721 45.380937576293945 43.16011714935303 46.87074077129364 C 38.17744302749634 48.38860821723938 32.99766826629639 49.158865332603455 27.792275428771973 49.158865332603455 C 27.4861102104187 49.158865332603455 27.180779457092285 49.156201004981995 26.874447345733643 49.150872349739075 C 26.568365573883057 49.156201004981995 26.262367248535156 49.158865332603455 25.956535816192627 49.158865332603455 C 20.74989128112793 49.158865332603455 15.570784091949463 48.388697028160095 10.587943077087402 46.87074077129364 C 6.205583095550537 45.380937576293945 4.645717620849609 43.67257070541382 4.645717620849609 42.57158172130585 C 4.645717620849609 41.66233551502228 5.653334140777588 40.60042333602905 7.411301612854004 39.63433814048767 C 8.125102996826172 39.24188268184662 8.386123657226562 38.345070004463196 7.9936747550964355 37.63120782375336 C 7.7257280349731445 37.142658948898315 7.221043586730957 36.86619055271149 6.700087070465088 36.86619055271149 C 6.459928035736084 36.86619055271149 6.216347694396973 36.92489457130432 5.9907917976379395 37.04878580570221 C 4.031301021575928 38.1249965429306 1.696300983428955 39.95760989189148 1.696300983428955 42.57158172130585 C 1.696300983428955 44.57107079029083 3.0742530822753906 47.43193697929382 9.640658378601074 49.66411066055298 C 14.930499076843262 51.28473234176636 20.431459426879883 52.1080983877182 25.961041927337646 52.1080983877182 C 26.26620578765869 52.1080983877182 26.57095241546631 52.105522871017456 26.87619972229004 52.1005494594574 C 27.181113243103027 52.105522871017456 27.486610889434814 52.1080983877182 27.79135751724243 52.1080983877182 C 33.32119035720825 52.1080983877182 38.82073211669922 51.28482115268707 44.11182451248169 49.66411066055298 C 50.67814636230469 47.43193697929382 52.05609846115112 44.57107079029083 52.05609846115112 42.57158172130585 C 52.0596866607666 39.95760989189148 49.715757846832275 38.1249965429306 47.75726842880249 37.04878580570221 C 47.531962871551514 36.92489457130432 47.28854942321777 36.86619055271149 47.048473834991455 36.86619055271149 C 46.80848169326782 36.86619055271149 47.048473834991455 36.86619055271149 47.048473834991455 36.86619055271149 M 26.87261152267456 17.07547616958618 C 25.458360195159912 17.07361114025116 24.312055587768555 15.927239775657654 24.31047010421753 14.512925863265991 C 24.31047010421753 13.098611950874329 25.45744228363037 11.95135247707367 26.87261152267456 11.95135247707367 C 28.28702974319458 11.95135247707367 29.434001922607422 13.09763503074646 29.434001922607422 14.512925863265991 C 29.434001922607422 15.928216695785522 28.28702974319458 17.07547616958618 26.87261152267456 17.07547616958618 C 25.458109855651855 17.07547616958618 26.87261152267456 17.07547616958618 26.87261152267456 17.07547616958618 M 26.87261152267456 9.00007677078247 C 23.827314853668213 9.00007677078247 21.359134197235107 11.468309879302979 21.359134197235107 14.512925863265991 C 21.359134197235107 17.558429956436157 23.827314853668213 20.02675187587738 26.87261152267456 20.02675187587738 C 29.915321350097656 20.023288249969482 32.38166618347168 17.556564927101135 32.38525438308716 14.512925863265991 C 32.38525438308716 11.468309879302979 29.91715717315674 9.00007677078247 26.87261152267456 9.00007677078247 C 23.828065872192383 9.00007677078247 26.87261152267456 9.00007677078247 26.87261152267456 9.00007677078247"/></g></svg>