<svg version="1.1" xmlns="http://www.w3.org/2000/svg" xmlns:xlink="http://www.w3.org/1999/xlink" width="48" height="46"><defs/><g><path fill="rgb(204,204,204)" stroke="none" paint-order="stroke fill markers" fill-rule="evenodd" d=" M 20.53605604171753 1.3668445348739624 C 15.868726253509521 1.3668445348739624 11.2014799118042 1.3738605976104736 6.534567356109619 1.3878039121627808 C 6.466892242431641 1.3846067190170288 6.399133682250977 1.3830081224441528 6.331291675567627 1.3830081224441528 C 6.233492374420166 1.3830081224441528 6.135776519775391 1.3863829374313354 6.0385613441467285 1.3931325674057007 C 3.729513168334961 1.5556565523147583 1.991072177886963 3.5468862056732178 2.1546273231506348 5.839273691177368 C 2.1546273231506348 10.871300458908081 2.1546273231506348 15.903504848480225 2.1546273231506348 20.936330914497375 C 2.1546273231506348 25.86977756023407 2.1546273231506348 30.804023504257202 2.1546273231506348 35.738269448280334 C 2.0992188453674316 36.13125777244568 2.098384380340576 36.52957475185394 2.1528749465942383 36.92247426509857 C 2.450194835662842 39.08129012584686 4.310718059539795 40.64622735977173 6.445029258728027 40.64622735977173 C 6.6402106285095215 40.64622735977173 6.8378119468688965 40.633172154426575 7.036664962768555 40.60626244544983 C 13.650885105133057 40.602710008621216 20.265021800994873 40.59747016429901 26.881161212921143 40.5904541015625 C 26.950672149658203 40.593384861946106 27.020349979400635 40.594717025756836 27.089860916137695 40.594717025756836 C 27.320924282073975 40.594717025756836 27.551820755004883 40.57899749279022 27.781548976898193 40.54684793949127 C 28.44987201690674 40.4717139005661 28.951051712036133 39.9005708694458 28.9316086769104 39.231558203697205 C 28.9316086769104 39.231558203697205 28.93703269958496 39.173919916152954 28.93703269958496 39.173919916152954 C 28.98276138305664 38.484036684036255 28.456881523132324 37.88838183879852 27.76210594177246 37.84122323989868 C 27.18532371520996 37.79468631744385 26.60670566558838 37.77088499069214 26.027586936950684 37.77088499069214 C 25.801530361175537 37.77088499069214 25.575390338897705 37.77452623844147 25.34933376312256 37.78189754486084 C 19.20466709136963 37.78189754486084 13.060834884643555 37.78189754486084 6.916168212890625 37.78189754486084 C 5.435410022735596 37.78012132644653 4.972866058349609 37.31901502609253 4.972866058349609 35.888537526130676 C 4.972866058349609 25.983277916908264 4.972866058349609 16.083258152008057 4.972866058349609 6.185902714729309 C 4.972866058349609 4.590414524078369 5.3870110511779785 4.172115087509155 6.993523120880127 4.172115087509155 C 15.987220287322998 4.172115087509155 24.986091136932373 4.172115087509155 33.98946809768677 4.172115087509155 C 35.577621936798096 4.173713684082031 36.00837278366089 4.610485792160034 36.00837278366089 6.199046730995178 C 36.00837278366089 11.466955304145813 36.00837278366089 16.73388695716858 36.00837278366089 22.000818610191345 C 36.017051219940186 23.120102643966675 36.53533744812012 23.759718894958496 37.403347969055176 23.759718894958496 C 37.4211220741272 23.759718894958496 37.43931341171265 23.759363651275635 37.457504749298096 23.758919596672058 C 38.32284498214722 23.73360848426819 38.82402467727661 23.11353063583374 38.82402467727661 22.016626954078674 C 38.83629131317139 16.582730770111084 38.83629131317139 11.149811506271362 38.82402467727661 5.716181755065918 C 38.82402467727661 5.716181755065918 38.82577705383301 5.375414252281189 38.82577705383301 5.375414252281189 C 38.75159311294556 3.1442174911499023 36.908843994140625 1.3857612609863281 34.67773485183716 1.3857612609863281 C 34.63142204284668 1.3857612609863281 34.58477544784546 1.3863829374313354 34.538212299346924 1.3878039121627808 C 29.870715618133545 1.3738605976104736 25.20330238342285 1.3668445348739624 20.53605604171753 1.3668445348739624 C 15.868809700012207 1.3668445348739624 20.53605604171753 1.3668445348739624 20.53605604171753 1.3668445348739624 M 10.670843601226807 20.92594003677368 C 10.670843601226807 20.92594003677368 10.670843601226807 9.867026567459106 10.670843601226807 9.867026567459106 C 10.670843601226807 9.867026567459106 30.299880981445312 9.867026567459106 30.299880981445312 9.867026567459106 C 30.299880981445312 9.867026567459106 30.299880981445312 20.92594003677368 30.299880981445312 20.92594003677368 C 30.299880981445312 20.92594003677368 10.670843601226807 20.92594003677368 10.670843601226807 20.92594003677368 C 10.670843601226807 20.92594003677368 10.670843601226807 20.92594003677368 10.670843601226807 20.92594003677368 M 30.36179828643799 6.954028367996216 C 30.228784561157227 6.954028367996216 30.09418535232544 6.963353514671326 29.958835124969482 6.982536673545837 C 28.905656814575195 6.97925066947937 27.85339641571045 6.978184938430786 26.801052570343018 6.978184938430786 C 24.696364879608154 6.978184938430786 22.591927528381348 6.982536673545837 20.487573623657227 6.982536673545837 C 20.487573623657227 6.982536673545837 20.477893829345703 6.987598896026611 20.477893829345703 6.987598896026611 C 18.35167694091797 6.987598896026611 16.22479248046875 6.980316400527954 14.097490787506104 6.980316400527954 C 13.033965110778809 6.980316400527954 11.970105648040771 6.982092618942261 10.906496524810791 6.987598896026611 C 10.79876708984375 6.974987745285034 10.69045352935791 6.968682169914246 10.5819730758667 6.968682169914246 C 10.473492622375488 6.968682169914246 10.364845275878906 6.974987745285034 10.256698608398438 6.987598896026611 C 8.714356899261475 7.165842413902283 7.609942436218262 8.551736831665039 7.7893524169921875 10.08345878124237 C 7.7893524169921875 13.61786699295044 7.7893524169921875 17.15227520465851 7.7893524169921875 20.68757152557373 C 7.76381778717041 20.90657925605774 7.764652252197266 21.127718448638916 7.791104793548584 21.345926880836487 C 7.963672161102295 22.763882040977478 9.17748498916626 23.804657220840454 10.580387592315674 23.804657220840454 C 10.692956924438477 23.804657220840454 10.806861400604248 23.79808521270752 10.921433448791504 23.784230709075928 C 14.111593246459961 23.79124677181244 17.302003383636475 23.794799208641052 20.492496967315674 23.794799208641052 C 23.68307399749756 23.794799208641052 26.873567581176758 23.79124677181244 30.064144611358643 23.784230709075928 C 30.173292636871338 23.796841859817505 30.282941341400146 23.80323624610901 30.393174171447754 23.80323624610901 C 30.504992485046387 23.80323624610901 30.617228031158447 23.79657542705536 30.72904634475708 23.78343141078949 C 32.26788330078125 23.600924968719482 33.36528825759888 22.214142441749573 33.180537700653076 20.685795307159424 C 33.180537700653076 17.183714270591736 33.180537700653076 13.682610154151917 33.180537700653076 10.18221652507782 C 33.21925687789917 9.919513821601868 33.21925687789917 9.65388035774231 33.180537700653076 9.390911221504211 C 32.979681968688965 7.976419687271118 31.76002788543701 6.954028367996216 30.36179828643799 6.954028367996216 C 28.96365213394165 6.954028367996216 30.36179828643799 6.954028367996216 30.36179828643799 6.954028367996216 M 34.5129280090332 35.32840704917908 C 36.13496112823486 35.32840704917908 37.133732318878174 34.63852381706238 37.253478050231934 32.69391989707947 C 37.761834144592285 33.59170949459076 37.990394115448 34.4561949968338 38.553157329559326 34.86330425739288 C 39.232078075408936 35.15842294692993 39.96540594100952 35.312065839767456 40.70574331283569 35.317394495010376 C 40.19571828842163 35.86926555633545 39.45721673965454 36.34262776374817 39.24609708786011 36.98890483379364 C 39.172497272491455 37.79077863693237 39.24718189239502 38.59949088096619 39.46489381790161 39.37383329868317 C 38.74875593185425 38.66334593296051 38.038626194000244 38.25730240345001 37.31973457336426 38.25730240345001 C 36.65558385848999 38.25739121437073 35.98392295837402 38.60384261608124 35.29273557662964 39.37658643722534 C 36.05410146713257 37.55303180217743 35.87477493286133 36.19591212272644 33.92621564865112 35.30167496204376 C 34.12990856170654 35.31917071342468 34.325507164001465 35.32840704917908 34.5129280090332 35.32840704917908 C 34.70043230056763 35.32840704917908 34.5129280090332 35.32840704917908 34.5129280090332 35.32840704917908 M 37.65043306350708 26.60717463493347 C 37.56573486328125 26.60717463493347 37.477365016937256 26.618187189102173 37.38549041748047 26.641899704933167 C 36.838582038879395 26.816413164138794 36.37595462799072 27.179738640785217 36.07880163192749 27.667044162750244 C 35.765793800354004 28.32904076576233 35.52830505371094 29.02247643470764 35.37175941467285 29.736782670021057 C 34.53996467590332 32.38299286365509 34.5418004989624 32.38299286365509 31.770124912261963 32.38299286365509 C 31.770124912261963 32.38299286365509 31.766703605651855 32.38299286365509 31.766703605651855 32.38299286365509 C 31.0614972114563 32.38299286365509 30.357876300811768 32.38299286365509 29.654422283172607 32.38299286365509 C 29.583826541900635 32.37286841869354 29.51348114013672 32.367895007133484 29.443970203399658 32.367895007133484 C 28.793087482452393 32.367895007133484 28.207877159118652 32.79889440536499 28.032973289489746 33.43797779083252 C 27.857234954833984 34.10867786407471 28.175416469573975 34.81081700325012 28.796175003051758 35.1252076625824 C 29.890158653259277 35.89546477794647 30.955937385559082 36.70586442947388 32.060184955596924 37.46049082279205 C 32.060184955596924 37.46049082279205 32.08146381378174 37.47097051143646 32.08146381378174 37.47097051143646 C 32.505205154418945 37.68580412864685 32.6757698059082 38.20108509063721 32.459476470947266 38.62373626232147 C 32.02688980102539 39.81149351596832 31.669822216033936 41.02536118030548 31.267109394073486 42.22359812259674 C 31.017354011535645 42.99039161205292 30.86264419555664 43.75540888309479 31.627681732177734 44.30559253692627 C 31.904807567596436 44.50550591945648 32.1705846786499 44.58774483203888 32.42851781845093 44.58774483203888 C 32.88196611404419 44.58774483203888 33.31038045883179 44.33321273326874 33.73103427886963 44.019177317619324 C 34.74924850463867 43.26108729839325 35.80434608459473 42.55202090740204 36.81388187408447 41.77821135520935 C 36.81388187408447 41.77821135520935 36.82614850997925 41.765955448150635 36.82614850997925 41.765955448150635 C 36.99454355239868 41.60218811035156 37.21350717544556 41.52048206329346 37.43213701248169 41.52048206329346 C 37.656691551208496 41.52057087421417 37.88091230392456 41.606539845466614 38.05014181137085 41.77821135520935 C 39.06134653091431 42.55024468898773 40.118446826934814 43.25762367248535 41.13666105270386 44.01740109920502 C 41.555729389190674 44.332324624061584 41.97888660430908 44.58978748321533 42.43108320236206 44.58978748321533 C 42.68859910964966 44.58978748321533 42.955711364746094 44.506216406822205 43.23642539978027 44.30212891101837 C 44.00847244262695 43.74146556854248 43.84675312042236 42.986839175224304 43.582895278930664 42.22191071510315 C 43.19428491592407 41.09525537490845 42.87226486206055 39.93902599811554 42.437925815582275 38.82462656497955 C 42.437925815582275 38.82462656497955 42.40805196762085 38.7617484331131 42.40805196762085 38.7617484331131 C 42.161884784698486 38.222044467926025 42.40463066101074 37.58624708652496 42.949703216552734 37.34352684020996 C 44.00847244262695 36.639522671699524 45.00916290283203 35.85532224178314 46.046653270721436 35.11996781826019 C 46.6692476272583 34.807353377342224 46.989431858062744 34.106990456581116 46.818867206573486 33.43451416492462 C 46.64454746246338 32.797295808792114 46.06217432022095 32.36700689792633 45.41487979888916 32.36700689792633 C 45.3436164855957 32.36700689792633 45.271602153778076 32.372246742248535 45.19900369644165 32.38299286365509 C 44.40934944152832 32.38299286365509 43.620362758636475 32.36904954910278 42.83196020126343 32.36904954910278 C 42.31242227554321 32.36904954910278 41.792884349823 32.37517750263214 41.2738471031189 32.395248770713806 C 41.2738471031189 32.395248770713806 41.21752071380615 32.405728459358215 41.21752071380615 32.405728459358215 C 41.16795349121094 32.41283333301544 41.11863660812378 32.41629695892334 41.069987297058105 32.41629695892334 C 40.56972551345825 32.41629695892334 40.132298946380615 32.05075120925903 40.05869913101196 31.544617772102356 C 39.68227195739746 30.23119306564331 39.24075651168823 28.94032633304596 38.797739028930664 27.649548411369324 C 38.60230731964111 27.085599064826965 38.20685434341431 26.60717463493347 37.65043306350708 26.60717463493347 C 37.09392833709717 26.60717463493347 37.65043306350708 26.60717463493347 37.65043306350708 26.60717463493347 M 13.226476192474365 26.562769174575806 C 12.007906913757324 26.562769174575806 10.789170742034912 26.563746094703674 9.570851802825928 26.566765666007996 C 8.448830127716064 26.570140480995178 7.830658435821533 27.031335592269897 7.802536964416504 27.91331684589386 C 7.773497581481934 28.795386910438538 8.418038368225098 29.34210693836212 9.57435655593872 29.366529941558838 C 9.88769817352295 29.37354600429535 10.200789451599121 29.375855088233948 10.513880729675293 29.375855088233948 C 11.139979839324951 29.375855088233948 11.765912055969238 29.366529941558838 12.392595291137695 29.366529941558838 C 12.392595291137695 29.366529941558838 30.711355686187744 29.366529941558838 30.711355686187744 29.366529941558838 C 30.909624576568604 29.366529941558838 31.110063076019287 29.37274670600891 31.310668468475342 29.37274670600891 C 31.411221504211426 29.37274670600891 31.511691093444824 29.371148109436035 31.61182689666748 29.366529941558838 C 32.5649528503418 29.31759512424469 33.150580406188965 28.809330224990845 33.178701877593994 28.01988995075226 C 33.178701877593994 28.01988995075226 33.17169237136841 27.82601571083069 33.17169237136841 27.82601571083069 C 33.08991479873657 27.10851228237152 32.476916790008545 26.578932762145996 31.7664532661438 26.578932762145996 C 31.714299201965332 26.578932762145996 31.66147756576538 26.581774711608887 31.608405590057373 26.5876362323761 C 30.379488945007324 26.584083795547485 29.150238513946533 26.5830180644989 27.920237064361572 26.5830180644989 C 25.460651397705078 26.5830180644989 22.99906301498413 26.5876362323761 20.539477348327637 26.5876362323761 C 20.539477348327637 26.5876362323761 20.539477348327637 26.566765666007996 20.539477348327637 26.566765666007996 C 18.101337432861328 26.566765666007996 15.663781642913818 26.562769174575806 13.226476192474365 26.562769174575806 C 10.789087295532227 26.562769174575806 13.226476192474365 26.562769174575806 13.226476192474365 26.562769174575806 M 24.51052951812744 32.18041515350342 C 24.51052951812744 32.18041515350342 24.108567714691162 32.18041515350342 24.108567714691162 32.18041515350342 C 19.280269622802734 32.18041515350342 14.451888084411621 32.187342405319214 9.624424457550049 32.19791090488434 C 8.432140827178955 32.19959831237793 7.8042893409729 32.70093595981598 7.802536964416504 33.588157057762146 C 7.799866676330566 34.47546696662903 8.440068244934082 34.990747928619385 9.61916732788086 34.990747928619385 C 12.033775329589844 34.990747928619385 14.447548866271973 34.990747928619385 16.862156867980957 34.990747928619385 C 16.862156867980957 34.990747928619385 16.86566162109375 34.97671580314636 16.86566162109375 34.97671580314636 C 18.5645489692688 34.97671580314636 20.263269424438477 34.98533046245575 21.962156772613525 34.98533046245575 C 22.811642169952393 34.98533046245575 23.661044120788574 34.983110189437866 24.51052951812744 34.97671580314636 C 25.520816326141357 34.96969974040985 26.131978511810303 34.409125208854675 26.131978511810303 33.58638083934784 C 26.131978511810303 32.763814091682434 25.527825832366943 32.23974084854126 24.51052951812744 32.18041515350342 C 23.49323320388794 32.12100064754486 24.51052951812744 32.18041515350342 24.51052951812744 32.18041515350342"/></g></svg>