<svg version="1.1" xmlns="http://www.w3.org/2000/svg" xmlns:xlink="http://www.w3.org/1999/xlink" width="35" height="35"><defs/><g><path fill="rgb(204,204,204)" stroke="none" paint-order="stroke fill markers" fill-rule="evenodd" d=" M 17.546070098876953 33.91548013687134 C 15.884066104888916 33.91548013687134 14.333045959472656 33.025683522224426 13.497329235076904 31.59263050556183 C 13.185739994049072 31.057544708251953 13.183987617492676 30.39776837825775 13.493907928466797 29.861083984375 C 13.802993774414062 29.325998187065125 14.376187801361084 28.995266318321228 14.99669599533081 28.995266318321228 C 14.99669599533081 28.995266318321228 20.09444284439087 28.995266318321228 20.09444284439087 28.995266318321228 C 20.71578550338745 28.995266318321228 21.28831195831299 29.325998187065125 21.59806537628174 29.862682580947876 C 21.90798568725586 30.399455785751343 21.904647827148438 31.05932092666626 21.59314203262329 31.59449553489685 C 20.758426666259766 33.02079892158508 19.20882511138916 33.910417914390564 17.55191135406494 33.91548013687134 C 17.549407958984375 33.91548013687134 17.54782247543335 33.91548013687134 17.546070098876953 33.91548013687134 Z M 32.15104389190674 26.57632327079773 C 32.15104389190674 26.57632327079773 2.815843105316162 26.57632327079773 2.815843105316162 26.57632327079773 C 1.8590455055236816 26.57632327079773 1.0835771560668945 25.80331301689148 1.081824779510498 24.84975016117096 C 1.080155849456787 23.896098494529724 1.8539552688598633 23.123088240623474 2.8107528686523438 23.119624614715576 C 4.289007663726807 23.116427421569824 5.493808269500732 21.914549231529236 5.496395111083984 20.440820813179016 C 5.496395111083984 20.440820813179016 5.496395111083984 13.09686815738678 5.496395111083984 13.09686815738678 C 5.496395111083984 6.47290563583374 10.902226448059082 1.0840365886688232 17.54782247543335 1.0840365886688232 C 24.19225025177002 1.0840365886688232 29.59916639328003 6.47290563583374 29.59916639328003 13.09686815738678 C 29.59916639328003 13.09686815738678 29.59916639328003 20.444284439086914 29.59916639328003 20.444284439086914 C 29.600918769836426 21.8992737531662 30.7453875541687 23.07557439804077 32.20686960220337 23.119624614715576 C 33.15348672866821 23.150086760520935 33.90024948120117 23.929757833480835 33.88648080825806 24.875150084495544 C 33.871543884277344 25.818588495254517 33.0975775718689 26.57632327079773 32.15104389190674 26.57632327079773 Z M 8.342004299163818 23.119624614715576 C 8.342004299163818 23.119624614715576 26.73920440673828 23.119624614715576 26.73920440673828 23.119624614715576 C 26.349759578704834 22.312955021858215 26.1311297416687 21.406373143196106 26.1311297416687 20.44588303565979 C 26.1311297416687 20.44588303565979 26.1311297416687 13.09686815738678 26.1311297416687 13.09686815738678 C 26.1311297416687 8.379143238067627 22.280574321746826 4.541001677513123 17.54782247543335 4.541001677513123 C 12.814820289611816 4.541001677513123 8.964264869689941 8.379143238067627 8.964264869689941 13.09686815738678 C 8.964264869689941 13.09686815738678 8.964264869689941 20.444284439086914 8.964264869689941 20.444284439086914 C 8.962512493133545 21.402998328208923 8.73904275894165 22.31135642528534 8.342004299163818 23.119624614715576 Z"/></g></svg>