<svg version="1.1" xmlns="http://www.w3.org/2000/svg" xmlns:xlink="http://www.w3.org/1999/xlink" width="32" height="34"><defs/><g><path fill="rgb(204,204,204)" stroke="none" paint-order="stroke fill markers" fill-rule="evenodd" d=" M 6.314914226531982 27.524046540260315 C 6.314914226531982 27.524046540260315 7.955389022827148 22.404096961021423 7.955389022827148 22.404096961021423 C 8.096747398376465 21.963950037956238 8.062450885772705 21.482861280441284 7.861428260803223 21.068114280700684 C 7.1392822265625 19.580797791481018 6.759350299835205 17.911507725715637 6.763439178466797 16.239819765090942 C 6.765108108520508 12.116950392723083 8.967595100402832 8.411314725875854 12.51807689666748 6.564314007759094 C 13.942008018493652 5.816614866256714 15.536754131317139 5.421317458152771 17.13550567626953 5.421317458152771 C 17.13550567626953 5.421317458152771 17.161624431610107 5.421317458152771 17.161624431610107 5.421317458152771 C 17.161624431610107 5.421317458152771 17.77846097946167 5.418653130531311 17.77846097946167 5.418653130531311 C 23.064212799072266 5.723008155822754 27.269916534423828 10.098366975784302 27.56072759628296 15.501268148422241 C 27.56072759628296 15.501268148422241 27.56072759628296 16.23893165588379 27.56072759628296 16.23893165588379 C 27.56072759628296 16.23893165588379 27.56072759628296 16.243194580078125 27.56072759628296 16.243194580078125 C 27.56556749343872 17.911507725715637 27.18496799468994 19.580797791481018 26.457815170288086 21.076640129089355 C 24.686579704284668 24.76353669166565 21.12299680709839 27.054858446121216 17.1576189994812 27.056545853614807 C 17.1576189994812 27.056545853614807 17.13141679763794 27.056545853614807 17.13141679763794 27.056545853614807 C 15.536754131317139 27.056545853614807 13.942008018493652 26.662136554718018 12.51807689666748 25.914348602294922 C 12.28158950805664 25.790279746055603 12.023489475250244 25.726691126823425 11.763970851898193 25.726691126823425 C 11.586062908172607 25.726691126823425 11.407403945922852 25.756531596183777 11.23466968536377 25.81736707687378 C 11.23466968536377 25.81736707687378 6.314914226531982 27.524046540260315 6.314914226531982 27.524046540260315 C 6.314914226531982 27.524046540260315 6.314914226531982 27.524046540260315 6.314914226531982 27.524046540260315 M 16.971616744995117 1.93850839138031 C 14.906232357025146 1.93850839138031 12.851028442382812 2.488692045211792 11.015706062316895 3.453800320625305 C 6.330435276031494 5.890416741371155 3.4188199043273926 10.789315938949585 3.417234420776367 16.234668731689453 C 3.41231107711792 18.19969916343689 3.8085150718688965 20.16544008255005 4.569129943847656 21.963950037956238 C 4.569129943847656 21.963950037956238 2.0822572708129883 29.725314021110535 2.0822572708129883 29.725314021110535 C 1.8821525573730469 30.350809335708618 2.0381975173950195 31.040959000587463 2.4866390228271484 31.506683468818665 C 2.805321216583252 31.838125824928284 3.2334017753601074 32.0166357755661 3.6696600914001465 32.0166357755661 C 3.846900463104248 32.0166357755661 4.0258097648620605 31.987683415412903 4.199044704437256 31.92649269104004 C 4.199044704437256 31.92649269104004 11.657826900482178 29.339430570602417 11.657826900482178 29.339430570602417 C 13.376741409301758 30.124696731567383 15.254037380218506 30.537756323814392 17.127327919006348 30.537756323814392 C 17.127327919006348 30.537756323814392 17.162458896636963 30.537756323814392 17.162458896636963 30.537756323814392 C 22.399144172668457 30.5360689163208 27.108113765716553 27.50699484348297 29.4478702545166 22.640422821044922 C 30.408005714416504 20.66482388973236 30.911355018615723 18.45156693458557 30.90693235397339 16.23893165588379 C 30.90693235397339 16.23893165588379 30.92337131500244 16.23893165588379 30.92337131500244 16.23893165588379 C 30.92337131500244 16.23893165588379 30.90693235397339 16.23893165588379 30.90693235397339 16.23893165588379 C 30.90693235397339 16.237510681152344 30.90693235397339 16.2360897064209 30.90693235397339 16.234668731689453 C 30.90693235397339 16.234668731689453 30.903594493865967 15.405174732208252 30.903594493865967 15.405174732208252 C 30.516486167907715 8.132448434829712 24.952940940856934 2.3446407318115234 17.870752811431885 1.940106987953186 C 17.870752811431885 1.940106987953186 17.165796756744385 1.940106987953186 17.165796756744385 1.940106987953186 C 17.100958824157715 1.939041256904602 17.0363712310791 1.93850839138031 16.971616744995117 1.93850839138031 C 16.906862258911133 1.93850839138031 16.971616744995117 1.93850839138031 16.971616744995117 1.93850839138031"/></g></svg>