<svg version="1.1" xmlns="http://www.w3.org/2000/svg" xmlns:xlink="http://www.w3.org/1999/xlink" width="30" height="30"><defs/><g><path fill="rgb(255,255,255)" stroke="none" paint-order="stroke fill markers" fill-rule="evenodd" d=" M 24.541505813598633 28.14290291070938 C 24.433025360107422 28.14290291070938 24.325546264648438 28.138292491436005 24.217065811157227 28.12907165288925 C 20.31969690322876 27.70113253593445 16.55183696746826 26.352769315242767 13.298508167266846 24.230501115322113 C 10.269900798797607 22.28923797607422 7.652517795562744 19.655950903892517 5.738839149475098 16.62128072977066 C 3.6197986602783203 13.33220762014389 2.2796478271484375 9.532392263412476 1.869424819946289 5.642397105693817 C 1.7778840065002441 4.629672408103943 2.1127548217773438 3.6318854689598083 2.7860846519470215 2.8868417143821716 C 3.46108341217041 2.140046000480652 4.429563522338867 1.7097094655036926 5.443605422973633 1.7050990462303162 C 5.443605422973633 1.7050990462303162 9.054001808166504 1.7050990462303162 9.054001808166504 1.7050990462303162 C 9.057506561279297 1.7050990462303162 9.06101131439209 1.7050990462303162 9.064516067504883 1.7050990462303162 C 10.868462562561035 1.7050990462303162 12.407049179077148 3.0378790497779846 12.64220142364502 4.810124218463898 C 12.781640529632568 5.885181784629822 13.041826725006104 6.941152215003967 13.415833950042725 7.952770411968231 C 13.900574684143066 9.247929394245148 13.585564136505127 10.731931149959564 12.611242771148682 11.72778171300888 C 12.611242771148682 11.72778171300888 11.721452713012695 12.62349396944046 11.721452713012695 12.62349396944046 C 13.129946231842041 14.85714989900589 15.019175052642822 16.759685516357422 17.250701427459717 18.192234992980957 C 17.250701427459717 18.192234992980957 18.11078453063965 17.327228128910065 18.11078453063965 17.327228128910065 C 19.104966163635254 16.330639898777008 20.60207986831665 16.00993913412094 21.923038005828857 16.50823324918747 C 22.92422914505005 16.884259045124054 23.970898628234863 17.147237360477448 25.031670570373535 17.286840856075287 C 26.86365509033203 17.557841300964355 28.188034534454346 19.120773434638977 28.141387939453125 20.92704349756241 C 28.141387939453125 20.92704349756241 28.141387939453125 24.536171913146973 28.141387939453125 24.536171913146973 C 28.14597749710083 25.53266793489456 27.724822998046875 26.50159364938736 26.98381805419922 27.18790066242218 C 26.319834232330322 27.80376046895981 25.444730758666992 28.14290291070938 24.541505813598633 28.14290291070938 Z M 9.06101131439209 4.067385673522949 C 9.059843063354492 4.067385673522949 9.058674812316895 4.067385673522949 9.057506561279297 4.067385673522949 C 9.057506561279297 4.067385673522949 5.448862552642822 4.067385673522949 5.448862552642822 4.067385673522949 C 5.115744113922119 4.06849217414856 4.793056488037109 4.21215283870697 4.567917823791504 4.461299896240234 C 4.333349704742432 4.720128834247589 4.216691493988037 5.068584322929382 4.248150825500488 5.415103435516357 C 4.618653297424316 8.92501562833786 5.833968162536621 12.370381951332092 7.760497570037842 15.36171418428421 C 9.496768951416016 18.113857865333557 11.861475944519043 20.49449396133423 14.606698989868164 22.253461122512817 C 17.554112911224365 24.177389085292816 20.957979202270508 25.3942631483078 24.457475185394287 25.778403282165527 C 24.777242183685303 25.817591845989227 25.10393524169922 25.693018317222595 25.34901762008667 25.464618146419525 C 25.60686731338501 25.225890636444092 25.75398349761963 24.890252113342285 25.751563549041748 24.54188883304596 C 25.751563549041748 24.54188883304596 25.751563549041748 20.91090703010559 25.751563549041748 20.91090703010559 C 25.751563549041748 20.898182272911072 25.751563549041748 20.88665622472763 25.752731800079346 20.87402367591858 C 25.771423816680908 20.254567742347717 25.317474842071533 19.718283772468567 24.69671630859375 19.62598317861557 C 23.472639560699463 19.464526295661926 22.24622631072998 19.15765678882599 21.07355260848999 18.715886414051056 C 20.632370948791504 18.548712611198425 20.139953136444092 18.657057464122772 19.813260078430176 18.985780358314514 C 19.813260078430176 18.985780358314514 18.288108348846436 20.51874476671219 18.288108348846436 20.51874476671219 C 17.907675743103027 20.90279269218445 17.311450481414795 20.983567237854004 16.836556434631348 20.712474584579468 C 13.63346242904663 18.87623679637909 10.986956596374512 16.21639370918274 9.182342529296875 13.017315983772278 C 8.924492835998535 12.559409141540527 9.002014636993408 11.988454818725586 9.373685359954834 11.614826440811157 C 9.373685359954834 11.614826440811157 10.900005340576172 10.079556822776794 10.900005340576172 10.079556822776794 C 11.233123779296875 9.739307880401611 11.34227180480957 9.221465587615967 11.172458171844482 8.768169164657593 C 10.736032962799072 7.587625205516815 10.433789730072021 6.359778344631195 10.272237300872803 5.114043056964874 C 10.192879676818848 4.5182846784591675 9.672423839569092 4.067385673522949 9.06101131439209 4.067385673522949 Z"/></g></svg>