<svg version="1.1" xmlns="http://www.w3.org/2000/svg" xmlns:xlink="http://www.w3.org/1999/xlink" width="24" height="19"><defs/><g><path fill="rgb(255,255,255)" stroke="none" paint-order="stroke fill markers" fill-rule="evenodd" d=" M 4.605350494384766 17.850285172462463 C 3.1873440742492676 17.850285172462463 2.0157551765441895 16.722041189670563 1.9986486434936523 15.32073450088501 C 1.9986486434936523 15.32073450088501 1.9986486434936523 6.692567706108093 1.9986486434936523 6.692567706108093 C 2.015254497528076 5.270231306552887 3.1815028190612793 4.104295611381531 4.644904136657715 4.151046276092529 C 4.644904136657715 4.151046276092529 7.379863262176514 4.151046276092529 7.379863262176514 4.151046276092529 C 7.379863262176514 4.151046276092529 8.719346523284912 2.231357216835022 8.719346523284912 2.231357216835022 C 8.905181884765625 1.9646843075752258 9.213933944702148 1.8051820397377014 9.544131755828857 1.8051820397377014 C 9.544131755828857 1.8051820397377014 14.453706741333008 1.8051820397377014 14.453706741333008 1.8051820397377014 C 14.783487319946289 1.8051820397377014 15.09265661239624 1.9646843075752258 15.278992652893066 2.231357216835022 C 15.278992652893066 2.231357216835022 16.618475914001465 4.151046276092529 16.618475914001465 4.151046276092529 C 16.618475914001465 4.151046276092529 19.363698959350586 4.151046276092529 19.363698959350586 4.151046276092529 C 19.373462200164795 4.151046276092529 19.384143352508545 4.151046276092529 19.39399003982544 4.151046276092529 C 20.810494422912598 4.151046276092529 21.982083320617676 5.27929025888443 22.000691890716553 6.6796263456344604 C 22.000691890716553 6.6796263456344604 22.000691890716553 15.30924904346466 22.000691890716553 15.30924904346466 C 22.000691890716553 15.31313145160675 22.000691890716553 15.317903578281403 22.000691890716553 15.321705102920532 C 21.982083320617676 16.731585443019867 20.810494422912598 17.834998190402985 19.353935718536377 17.850285172462463 C 19.353935718536377 17.850285172462463 4.634139537811279 17.850285172462463 4.634139537811279 17.850285172462463 C 4.62437629699707 17.850285172462463 4.615113735198975 17.850285172462463 4.605350494384766 17.850285172462463 Z M 4.626796245574951 6.105919659137726 C 4.278073310852051 6.105919659137726 4.000530242919922 6.372835218906403 3.996608257293701 6.704457581043243 C 3.996608257293701 6.704457581043243 3.996608257293701 15.30924904346466 3.996608257293701 15.30924904346466 C 4.000530242919922 15.629062414169312 4.278073310852051 15.895411789417267 4.6166157722473145 15.895411789417267 C 4.618535041809082 15.895411789417267 4.620954990386963 15.895411789417267 4.623374938964844 15.895411789417267 C 4.623374938964844 15.895411789417267 19.364700317382812 15.895411789417267 19.364700317382812 15.895411789417267 C 19.36661958694458 15.895411789417267 19.36962366104126 15.895411789417267 19.371459484100342 15.895411789417267 C 19.718847274780273 15.895411789417267 19.995806217193604 15.630922734737396 20.002732276916504 15.301645994186401 C 20.002732276916504 15.301645994186401 20.002732276916504 6.692567706108093 20.002732276916504 6.692567706108093 C 19.998810291290283 6.373158752918243 19.720683097839355 6.105919659137726 19.382307529449463 6.105919659137726 C 19.38030481338501 6.105919659137726 19.377384185791016 6.105919659137726 19.375381469726562 6.105919659137726 C 19.375381469726562 6.105919659137726 16.09067678451538 6.105919659137726 16.09067678451538 6.105919659137726 C 15.760979652404785 6.105919659137726 15.451726913452148 5.946498274803162 15.265390872955322 5.679744482040405 C 15.265390872955322 5.679744482040405 13.92599105834961 3.760136306285858 13.92599105834961 3.760136306285858 C 13.92599105834961 3.760136306285858 10.071930885314941 3.760136306285858 10.071930885314941 3.760136306285858 C 10.071930885314941 3.760136306285858 8.732447624206543 5.679744482040405 8.732447624206543 5.679744482040405 C 8.54661226272583 5.946498274803162 8.237860202789307 6.105919659137726 7.907662391662598 6.105919659137726 C 7.907662391662598 6.105919659137726 4.634139537811279 6.105919659137726 4.634139537811279 6.105919659137726 C 4.631719589233398 6.105919659137726 4.629299640655518 6.105919659137726 4.626796245574951 6.105919659137726 Z M 21.00175380706787 15.30924904346466 C 21.00175380706787 15.30924904346466 21.011433601379395 15.30924904346466 21.011433601379395 15.30924904346466 C 21.011433601379395 15.30924904346466 21.00175380706787 15.30924904346466 21.00175380706787 15.30924904346466 Z M 11.99962854385376 14.72130686044693 C 9.643683433532715 14.72130686044693 7.7266669273376465 12.878052711486816 7.7266669273376465 10.61193960905075 C 7.7266669273376465 8.346311807632446 9.643683433532715 6.503138542175293 11.99962854385376 6.503138542175293 C 14.355072975158691 6.503138542175293 16.272172927856445 8.346311807632446 16.272172927856445 10.61193960905075 C 16.272172927856445 12.878052711486816 14.355072975158691 14.72130686044693 11.99962854385376 14.72130686044693 Z M 11.99962854385376 8.45801192522049 C 10.745093822479248 8.45801192522049 9.724626541137695 9.42448890209198 9.724626541137695 10.61193960905075 C 9.724626541137695 11.800360918045044 10.745093822479248 12.766352593898773 11.99962854385376 12.766352593898773 C 13.253746032714844 12.766352593898773 14.274213314056396 11.800360918045044 14.274213314056396 10.61193960905075 C 14.274213314056396 9.42448890209198 13.253746032714844 8.45801192522049 11.99962854385376 8.45801192522049 Z"/></g></svg>