<svg version="1.1" xmlns="http://www.w3.org/2000/svg" xmlns:xlink="http://www.w3.org/1999/xlink" width="24" height="19"><defs/><g><path fill="rgb(128,128,128)" stroke="none" paint-order="stroke fill markers" fill-rule="evenodd" d=" M 4.605271339416504 17.850234985351562 C 3.187264919281006 17.850234985351562 2.0156760215759277 16.721933364868164 1.9985694885253906 15.320662498474121 C 1.9985694885253906 15.320662498474121 1.9985694885253906 6.692441940307617 1.9985694885253906 6.692441940307617 C 2.0151753425598145 5.2701568603515625 3.1814236640930176 4.104137420654297 4.644824981689453 4.150907516479492 C 4.644824981689453 4.150907516479492 7.379784107208252 4.150907516479492 7.379784107208252 4.150907516479492 C 7.379784107208252 4.150907516479492 8.71926736831665 2.23128604888916 8.71926736831665 2.23128604888916 C 8.905102729797363 1.9645671844482422 9.213854789733887 1.805074691772461 9.544052600860596 1.805074691772461 C 9.544052600860596 1.805074691772461 14.453627586364746 1.805074691772461 14.453627586364746 1.805074691772461 C 14.783408164978027 1.805074691772461 15.092577457427979 1.9645671844482422 15.278913497924805 2.23128604888916 C 15.278913497924805 2.23128604888916 16.618396759033203 4.150907516479492 16.618396759033203 4.150907516479492 C 16.618396759033203 4.150907516479492 19.363619804382324 4.150907516479492 19.363619804382324 4.150907516479492 C 19.373383045196533 4.150907516479492 19.384064197540283 4.150907516479492 19.393910884857178 4.150907516479492 C 20.810415267944336 4.150907516479492 21.982004165649414 5.279209136962891 22.00061273574829 6.679510116577148 C 22.00061273574829 6.679510116577148 22.00061273574829 15.309131622314453 22.00061273574829 15.309131622314453 C 22.00061273574829 15.313011169433594 22.00061273574829 15.317752838134766 22.00061273574829 15.321632385253906 C 21.982004165649414 16.73152446746826 20.810415267944336 17.834932327270508 19.353856563568115 17.850234985351562 C 19.353856563568115 17.850234985351562 4.634060382843018 17.850234985351562 4.634060382843018 17.850234985351562 C 4.624297142028809 17.850234985351562 4.615034580230713 17.850234985351562 4.605271339416504 17.850234985351562 Z M 4.6267170906066895 6.105768203735352 C 4.277994155883789 6.105768203735352 4.00045108795166 6.372810363769531 3.9965291023254395 6.704403877258301 C 3.9965291023254395 6.704403877258301 3.9965291023254395 15.309131622314453 3.9965291023254395 15.309131622314453 C 4.00045108795166 15.628978729248047 4.277994155883789 15.895374298095703 4.616536617279053 15.895374298095703 C 4.61845588684082 15.895374298095703 4.620875835418701 15.895374298095703 4.623295783996582 15.895374298095703 C 4.623295783996582 15.895374298095703 19.36462116241455 15.895374298095703 19.36462116241455 15.895374298095703 C 19.36654043197632 15.895374298095703 19.369544506072998 15.895374298095703 19.37138032913208 15.895374298095703 C 19.71876811981201 15.895374298095703 19.995727062225342 15.630810737609863 20.002653121948242 15.301480293273926 C 20.002653121948242 15.301480293273926 20.002653121948242 6.692441940307617 20.002653121948242 6.692441940307617 C 19.99873113632202 6.373133659362793 19.720603942871094 6.105768203735352 19.3822283744812 6.105768203735352 C 19.380225658416748 6.105768203735352 19.377305030822754 6.105768203735352 19.3753023147583 6.105768203735352 C 19.3753023147583 6.105768203735352 16.09059762954712 6.105768203735352 16.09059762954712 6.105768203735352 C 15.760900497436523 6.105768203735352 15.451647758483887 5.946491241455078 15.26531171798706 5.679664611816406 C 15.26531171798706 5.679664611816406 13.925911903381348 3.760043144226074 13.925911903381348 3.760043144226074 C 13.925911903381348 3.760043144226074 10.07185173034668 3.760043144226074 10.07185173034668 3.760043144226074 C 10.07185173034668 3.760043144226074 8.732368469238281 5.679664611816406 8.732368469238281 5.679664611816406 C 8.546533107757568 5.946491241455078 8.237781047821045 6.105768203735352 7.907583236694336 6.105768203735352 C 7.907583236694336 6.105768203735352 4.634060382843018 6.105768203735352 4.634060382843018 6.105768203735352 C 4.631640434265137 6.105768203735352 4.629220485687256 6.105768203735352 4.6267170906066895 6.105768203735352 Z M 21.00167465209961 15.309131622314453 C 21.00167465209961 15.309131622314453 21.011354446411133 15.309131622314453 21.011354446411133 15.309131622314453 C 21.011354446411133 15.309131622314453 21.00167465209961 15.309131622314453 21.00167465209961 15.309131622314453 Z M 11.999549388885498 14.72116470336914 C 9.643604278564453 14.72116470336914 7.726587772369385 12.877948760986328 7.726587772369385 10.611862182617188 C 7.726587772369385 8.346206665039062 9.643604278564453 6.503098487854004 11.999549388885498 6.503098487854004 C 14.35499382019043 6.503098487854004 16.272093772888184 8.346206665039062 16.272093772888184 10.611862182617188 C 16.272093772888184 12.877948760986328 14.35499382019043 14.72116470336914 11.999549388885498 14.72116470336914 Z M 11.999549388885498 8.457959175109863 C 10.745014667510986 8.457959175109863 9.724547386169434 9.424397468566895 9.724547386169434 10.611862182617188 C 9.724547386169434 11.800296783447266 10.745014667510986 12.766304016113281 11.999549388885498 12.766304016113281 C 13.253666877746582 12.766304016113281 14.274134159088135 11.800296783447266 14.274134159088135 10.611862182617188 C 14.274134159088135 9.424397468566895 13.253666877746582 8.457959175109863 11.999549388885498 8.457959175109863 Z"/></g></svg>