<svg version="1.1" xmlns="http://www.w3.org/2000/svg" xmlns:xlink="http://www.w3.org/1999/xlink" width="20" height="21"><defs/><g><path fill="rgb(255,255,255)" stroke="none" paint-order="stroke fill markers" fill-rule="evenodd" d=" M 17.755515575408936 6.181777834892273 C 17.755515575408936 6.181777834892273 2.6214075088500977 6.181777834892273 2.6214075088500977 6.181777834892273 C 2.170546054840088 6.181777834892273 1.804966926574707 5.816597938537598 1.804966926574707 5.366164207458496 C 1.804966926574707 4.915810227394104 2.170546054840088 4.550630331039429 2.6214075088500977 4.550630331039429 C 2.6214075088500977 4.550630331039429 17.755515575408936 4.550630331039429 17.755515575408936 4.550630331039429 C 18.20687770843506 4.550630331039429 18.57203960418701 4.915810227394104 18.57203960418701 5.366164207458496 C 18.57203960418701 5.816597938537598 18.20687770843506 6.181777834892273 17.755515575408936 6.181777834892273 Z M 5.983383655548096 19.57229220867157 C 4.610772132873535 19.57229220867157 3.490920066833496 18.457213521003723 3.48691463470459 17.084937810897827 C 3.48691463470459 17.084937810897827 3.48691463470459 5.362974166870117 3.48691463470459 5.362974166870117 C 3.48691463470459 4.912620186805725 3.8524937629699707 4.54744029045105 4.3033552169799805 4.54744029045105 C 4.3033552169799805 4.54744029045105 6.008918285369873 4.54744029045105 6.008918285369873 4.54744029045105 C 6.008918285369873 4.54744029045105 6.008918285369873 3.6924296617507935 6.008918285369873 3.6924296617507935 C 6.012840270996094 2.318558931350708 7.1331095695495605 1.2034802436828613 8.505721092224121 1.2034802436828613 C 8.506555557250977 1.2034802436828613 8.507306575775146 1.2034802436828613 8.508141040802002 1.2034802436828613 C 8.508141040802002 1.2034802436828613 11.870450973510742 1.2034802436828613 11.870450973510742 1.2034802436828613 C 11.870450973510742 1.2034802436828613 11.871285438537598 1.2034802436828613 11.871285438537598 1.2034802436828613 C 13.2442307472229 1.2034802436828613 14.364500045776367 2.3189576864242554 14.367671012878418 3.6904358863830566 C 14.367671012878418 3.6904358863830566 14.367671012878418 4.54744029045105 14.367671012878418 4.54744029045105 C 14.367671012878418 4.54744029045105 16.07398509979248 4.54744029045105 16.07398509979248 4.54744029045105 C 16.525263786315918 4.54744029045105 16.890509128570557 4.912620186805725 16.890509128570557 5.362974166870117 C 16.890509128570557 5.362974166870117 16.890509128570557 17.082545280456543 16.890509128570557 17.082545280456543 C 16.887338161468506 18.456495761871338 15.767068862915039 19.57229220867157 14.393205642700195 19.57229220867157 C 14.393205642700195 19.57229220867157 5.985386371612549 19.57229220867157 5.985386371612549 19.57229220867157 C 5.984551906585693 19.57229220867157 5.983717441558838 19.57229220867157 5.983383655548096 19.57229220867157 Z M 5.119879245758057 6.178587794303894 C 5.119879245758057 6.178587794303894 5.119879245758057 17.082545280456543 5.119879245758057 17.082545280456543 C 5.121464729309082 17.55483078956604 5.508906841278076 17.941144704818726 5.983717441558838 17.941144704818726 C 5.984134674072266 17.941144704818726 5.984551906585693 17.941144704818726 5.984551906585693 17.941144704818726 C 5.984551906585693 17.941144704818726 14.393205642700195 17.941144704818726 14.393205642700195 17.941144704818726 C 14.868433475494385 17.941144704818726 15.255959033966064 17.55483078956604 15.25754451751709 17.08015275001526 C 15.25754451751709 17.08015275001526 15.25754451751709 6.178587794303894 15.25754451751709 6.178587794303894 C 15.25754451751709 6.178587794303894 13.551230430603027 6.178587794303894 13.551230430603027 6.178587794303894 C 13.09995174407959 6.178587794303894 12.734789848327637 5.813328146934509 12.734789848327637 5.362974166870117 C 12.734789848327637 5.362974166870117 12.734789848327637 3.6924296617507935 12.734789848327637 3.6924296617507935 C 12.733204364776611 3.2201441526412964 12.346429824829102 2.8346277475357056 11.871285438537598 2.8346277475357056 C 11.871285438537598 2.8346277475357056 11.871285438537598 2.8346277475357056 11.870450973510742 2.8346277475357056 C 11.870450973510742 2.8346277475357056 8.507306575775146 2.8346277475357056 8.507306575775146 2.8346277475357056 C 8.506889343261719 2.8346277475357056 8.506889343261719 2.8346277475357056 8.506555557250977 2.8346277475357056 C 8.03091049194336 2.8346277475357056 7.64338493347168 3.2204631567001343 7.641799449920654 3.6948221921920776 C 7.641799449920654 3.6948221921920776 7.641799449920654 5.362974166870117 7.641799449920654 5.362974166870117 C 7.641799449920654 5.813328146934509 7.276220321655273 6.178587794303894 6.825358867645264 6.178587794303894 C 6.825358867645264 6.178587794303894 5.119879245758057 6.178587794303894 5.119879245758057 6.178587794303894 Z M 8.506555557250977 15.38767671585083 C 8.055610656738281 15.38767671585083 7.6900315284729 15.022895574569702 7.6900315284729 14.572142839431763 C 7.6900315284729 14.572142839431763 7.6900315284729 9.550859451293945 7.6900315284729 9.550859451293945 C 7.6900315284729 9.100425720214844 8.055610656738281 8.735245823860168 8.506555557250977 8.735245823860168 C 8.957417011260986 8.735245823860168 9.322996139526367 9.100425720214844 9.322996139526367 9.550859451293945 C 9.322996139526367 9.550859451293945 9.322996139526367 14.572142839431763 9.322996139526367 14.572142839431763 C 9.322996139526367 15.022895574569702 8.957417011260986 15.38767671585083 8.506555557250977 15.38767671585083 Z M 11.870450973510742 15.38767671585083 C 11.419172286987305 15.38767671585083 11.054010391235352 15.022895574569702 11.054010391235352 14.572142839431763 C 11.054010391235352 14.572142839431763 11.054010391235352 9.550859451293945 11.054010391235352 9.550859451293945 C 11.054010391235352 9.100425720214844 11.419172286987305 8.735245823860168 11.870450973510742 8.735245823860168 C 12.321813106536865 8.735245823860168 12.686891555786133 9.100425720214844 12.686891555786133 9.550859451293945 C 12.686891555786133 9.550859451293945 12.686891555786133 14.572142839431763 12.686891555786133 14.572142839431763 C 12.686891555786133 15.022895574569702 12.321813106536865 15.38767671585083 11.870450973510742 15.38767671585083 Z"/></g></svg>