<svg version="1.1" xmlns="http://www.w3.org/2000/svg" xmlns:xlink="http://www.w3.org/1999/xlink" width="21" height="17"><defs/><g><path fill="rgb(193,193,193)" stroke="none" paint-order="stroke fill markers" fill-rule="evenodd" d=" M 10.75102949142456 15.931224048137665 C 8.12630319595337 15.942278981208801 5.610808372497559 14.85054636001587 3.7864174842834473 12.908434271812439 C 2.895292282104492 11.965595364570618 2.197178840637207 10.84835135936737 1.7333831787109375 9.622722625732422 C 3.678020477294922 4.497021734714508 9.291800498962402 1.9642824530601501 14.272138118743896 3.965766489505768 C 16.791805267333984 4.978259205818176 18.78492498397827 7.029529094696045 19.768675804138184 9.622722625732422 C 19.3049635887146 10.84835135936737 18.606850147247314 11.965672671794891 17.715641498565674 12.908434271812439 C 15.891167163848877 14.85054636001587 13.375755786895752 15.942278981208801 10.75102949142456 15.931224048137665 Z M 10.75102949142456 5.396800518035889 C 10.026546955108643 5.391852855682373 9.314080715179443 5.587440133094788 8.688148498535156 5.962921321392059 C 8.068641662597656 6.3322179317474365 7.553860187530518 6.862004339694977 7.195040225982666 7.499634325504303 C 6.461879253387451 8.81447559595108 6.461879253387451 10.430969655513763 7.195040225982666 11.74581092596054 C 7.553860187530518 12.383363604545593 8.068641662597656 12.913227319717407 8.688148498535156 13.28244662284851 C 9.965631008148193 14.037274360656738 11.536427974700928 14.037274360656738 12.813910484313965 13.28244662284851 C 13.433417320251465 12.913227319717407 13.948198795318604 12.383363604545593 14.307018756866455 11.74581092596054 C 15.04017972946167 10.430969655513763 15.04017972946167 8.81447559595108 14.307018756866455 7.499634325504303 C 13.948198795318604 6.862004339694977 13.433417320251465 6.3322179317474365 12.813910484313965 5.962921321392059 C 12.187978267669678 5.587440133094788 11.475512027740479 5.391852855682373 10.75102949142456 5.396800518035889 Z M 10.75102949142456 12.15020501613617 C 10.322448253631592 12.149973094463348 9.901710987091064 12.031306505203247 9.532960891723633 11.806419789791107 C 9.15878677368164 11.581842303276062 8.847447872161865 11.261403858661652 8.62923526763916 10.876336574554443 C 8.183797836303711 10.103805482387543 8.183797836303711 9.142644762992859 8.62923526763916 8.370113670825958 C 8.847030639648438 7.984737157821655 9.158452987670898 7.664221405982971 9.532960891723633 7.439953148365021 C 10.283979415893555 6.981675922870636 11.218079566955566 6.981675922870636 11.969098091125488 7.439953148365021 C 12.343522548675537 7.664221405982971 12.654944896697998 7.984737157821655 12.872823715209961 8.370113670825958 C 13.318177700042725 9.142644762992859 13.318177700042725 10.103805482387543 12.872823715209961 10.876336574554443 C 12.654778003692627 11.26179039478302 12.343355655670166 11.582615375518799 11.969098091125488 11.807424783706665 C 11.600264549255371 12.031924962997437 11.179527282714844 12.150282323360443 10.75102949142456 12.15020501613617 Z"/></g></svg>