<svg version="1.1" xmlns="http://www.w3.org/2000/svg" xmlns:xlink="http://www.w3.org/1999/xlink" width="20" height="27"><defs/><g><path fill="rgb(128,128,128)" stroke="none" paint-order="stroke fill markers" fill-rule="evenodd" d=" M 15.095722675323486 10.961874127388 C 15.095722675323486 10.961874127388 18.694019317626953 5.531627118587494 18.694019317626953 5.531627118587494 C 18.997681140899658 5.073119342327118 18.87451410293579 4.453806698322296 18.41881275177002 4.148302614688873 C 18.255841732025146 4.039086163043976 18.064582347869873 3.9808290004730225 17.86881685256958 3.9808290004730225 C 17.86881685256958 3.9808290004730225 3.0009865760803223 3.9808290004730225 3.0009865760803223 3.9808290004730225 C 3.0009865760803223 3.9808290004730225 3.0009865760803223 2.9842917919158936 3.0009865760803223 2.9842917919158936 C 3.0009865760803223 2.433302342891693 2.557051181793213 1.986622154712677 2.0094752311706543 1.986622154712677 C 2.0094752311706543 1.986622154712677 2.0094752311706543 1.986622154712677 2.0094752311706543 1.986622154712677 C 1.4618992805480957 1.986622154712677 1.0180473327636719 2.433302342891693 1.0180473327636719 2.9842917919158936 C 1.0180473327636719 2.9842917919158936 1.0180473327636719 2.9842917919158936 1.0180473327636719 2.9842917919158936 C 1.0180473327636719 2.9842917919158936 1.0180473327636719 24.924970984458923 1.0180473327636719 24.924970984458923 C 1.0006070137023926 25.47558295726776 1.4301061630249023 25.93622976541519 1.9774317741394043 25.95384532213211 C 2.5246739387512207 25.97133505344391 2.9825448989868164 25.53912478685379 2.99990177154541 24.988512814044952 C 3.00065279006958 24.96737414598465 3.00065279006958 24.946109652519226 2.99990177154541 24.924970984458923 C 2.99990177154541 24.924970984458923 2.99990177154541 17.943925857543945 2.99990177154541 17.943925857543945 C 2.99990177154541 17.943925857543945 17.86881685256958 17.943925857543945 17.86881685256958 17.943925857543945 C 18.41639280319214 17.943422555923462 18.859827518463135 17.496490716934204 18.859493732452393 16.945501267910004 C 18.859243392944336 16.748836159706116 18.801331520080566 16.55670076608658 18.693017959594727 16.393127739429474 C 18.693017959594727 16.393127739429474 15.095722675323486 10.961874127388 15.095722675323486 10.961874127388 Z M 3.0009865760803223 15.948712408542633 C 3.0009865760803223 15.948712408542633 3.0009865760803223 5.9728968143463135 3.0009865760803223 5.9728968143463135 C 3.0009865760803223 5.9728968143463135 16.02005958557129 5.9728968143463135 16.02005958557129 5.9728968143463135 C 16.02005958557129 5.9728968143463135 13.082742691040039 10.406606614589691 13.082742691040039 10.406606614589691 C 12.860023975372314 10.742057144641876 12.860023975372314 11.17955207824707 13.082742691040039 11.515002608299255 C 13.082742691040039 11.515002608299255 16.02005958557129 15.948712408542633 16.02005958557129 15.948712408542633 C 16.02005958557129 15.948712408542633 3.0009865760803223 15.948712408542633 3.0009865760803223 15.948712408542633 Z"/></g></svg>