<svg version="1.1" xmlns="http://www.w3.org/2000/svg" xmlns:xlink="http://www.w3.org/1999/xlink" width="25" height="21"><defs/><g><path fill="rgb(255,255,255)" stroke="none" paint-order="stroke fill markers" fill-rule="evenodd" d=" M 22.871723175048828 6.71700519323349 C 22.46934413909912 3.923263370990753 20.08052110671997 1.8761144280433655 17.170073986053467 1.848783016204834 C 15.4805326461792 1.9239662289619446 13.87552261352539 2.472777485847473 12.511422634124756 3.4393314719200134 C 11.139979362487793 2.4504233598709106 9.519448280334473 1.8904350399971008 7.789602279663086 1.815775752067566 C 4.924716949462891 1.848783016204834 2.4844908714294434 3.9640421867370605 2.117910385131836 6.713425040245056 C 1.2430572509765625 11.010132551193237 3.9932870864868164 16.723532795906067 12.105956077575684 19.80281364917755 C 12.235965728759766 19.852935791015625 12.371065616607666 19.87869542837143 12.509169578552246 19.87869542837143 C 12.644352912902832 19.87869542837143 12.778034210205078 19.85433292388916 12.91029691696167 19.80412346124649 C 20.99125623703003 16.657692909240723 23.73422622680664 10.953461349010468 22.871723175048828 6.71700519323349 Z M 12.504830360412598 17.698731541633606 C 5.863490104675293 15.028461337089539 3.570880889892578 10.465861976146698 4.2569780349731445 7.077640116214752 C 4.460504055023193 5.319348394870758 5.975892543792725 3.9562706351280212 7.786598205566406 3.900297999382019 C 9.2704439163208 3.9992324709892273 10.69629430770874 4.5880366563797 11.821653842926025 5.573189973831177 C 12.221946716308594 5.879424035549164 12.780954837799072 5.878725469112396 13.193848133087158 5.561750948429108 C 14.309611320495605 4.615193426609039 15.736212730407715 4.042980194091797 17.177417278289795 3.9512933492660522 C 19.00214195251465 3.9986212253570557 20.49182891845703 5.315069675445557 20.723893642425537 7.108464360237122 C 21.66416883468628 11.712104499340057 17.294909954071045 15.72694045305252 12.504830360412598 17.698731541633606 Z"/></g></svg>