<svg version="1.1" xmlns="http://www.w3.org/2000/svg" xmlns:xlink="http://www.w3.org/1999/xlink" width="25" height="21"><defs/><g><path fill="rgb(204,204,204)" stroke="none" paint-order="stroke fill markers" fill-rule="evenodd" d=" M 22.87172269821167 6.717124700546265 C 22.469343662261963 3.9234085083007812 20.080437183380127 1.8760852813720703 17.17007350921631 1.8489893078804016 C 15.480532169342041 1.9241300821304321 13.875438690185547 2.472762882709503 12.511338710784912 3.4394825100898743 C 11.13989543914795 2.4504390358924866 9.519447803497314 1.8904825448989868 7.789518356323242 1.8158270716667175 C 4.924716472625732 1.8489893078804016 2.4844069480895996 3.964254677295685 2.1179099082946777 6.713484942913055 C 1.2430567741394043 11.01009750366211 3.993286609649658 16.723789036273956 12.10587215423584 19.802781343460083 C 12.235881805419922 19.85292911529541 12.371065139770508 19.878730952739716 12.509169101715088 19.878730952739716 C 12.644352436065674 19.878730952739716 12.77803373336792 19.854385018348694 12.910212993621826 19.804237246513367 C 20.99125576019287 16.65778809785843 23.734225749969482 10.953559935092926 22.87172269821167 6.717124700546265 Z M 12.504746437072754 17.69892054796219 C 5.863489627838135 15.028632581233978 3.57088041305542 10.46583241224289 4.256977558135986 7.077784240245819 C 4.46042013168335 5.319538652896881 5.975892066955566 3.9563280940055847 7.786597728729248 3.900437593460083 C 9.270443439483643 3.999439001083374 10.696210384368896 4.588109135627747 11.821653366088867 5.573351085186005 C 12.221946239471436 5.879495143890381 12.780954360961914 5.878848075866699 13.193764209747314 5.561784744262695 C 14.309610843658447 4.615205109119415 15.736128807067871 4.043196976184845 17.177416801452637 3.951394200325012 C 19.002058029174805 3.998630166053772 20.491744995117188 5.31517094373703 20.72389316558838 7.108600854873657 C 21.66416835784912 11.71208542585373 17.294909477233887 15.726899862289429 12.504746437072754 17.69892054796219 Z"/></g></svg>