<svg version="1.1" xmlns="http://www.w3.org/2000/svg" xmlns:xlink="http://www.w3.org/1999/xlink" width="25" height="25"><defs/><g><path fill="rgb(128,128,128)" stroke="none" paint-order="stroke fill markers" fill-rule="evenodd" d=" M 12.987483501434326 1.9945647716522217 C 6.91508150100708 1.9951847791671753 1.992906093597412 6.918221592903137 1.993490219116211 12.990663766860962 C 1.9939908981323242 19.06301736831665 6.917084217071533 23.985257029533386 12.989569664001465 23.984637022018433 C 19.061554431915283 23.984105587005615 23.98356294631958 19.06160020828247 23.98356294631958 12.989600896835327 C 23.976970672607422 6.919550180435181 19.05746555328369 2.0006762742996216 12.987483501434326 1.9945647716522217 Z M 12.987483501434326 22.231521487236023 C 7.882810592651367 22.231521487236023 3.744615077972412 18.0933256149292 3.744615077972412 12.988626599311829 C 3.744615077972412 7.883927583694458 7.882810592651367 3.7457317113876343 12.987483501434326 3.7457317113876343 C 18.09223985671997 3.7457317113876343 22.230435371398926 7.883927583694458 22.230435371398926 12.988626599311829 C 22.225428581237793 18.091288447380066 18.090237140655518 22.226561427116394 12.987483501434326 22.231521487236023 Z M 12.988484859466553 7.939196825027466 C 10.199202060699463 7.939196825027466 7.938052177429199 10.200364232063293 7.938052177429199 12.989600896835327 C 7.938052177429199 15.778926134109497 10.199202060699463 18.040093541145325 12.988484859466553 18.040093541145325 C 15.777767658233643 18.040093541145325 18.039000988006592 15.778926134109497 18.039000988006592 12.989600896835327 C 18.03566312789917 10.201692819595337 15.776432514190674 7.942474007606506 12.988484859466553 7.939196825027466 Z M 12.988484859466553 16.286978006362915 C 11.167431831359863 16.286978006362915 9.691179752349854 14.810651540756226 9.691179752349854 12.989600896835327 C 9.691179752349854 11.168550252914429 11.167431831359863 9.692312359809875 12.988484859466553 9.692312359809875 C 14.809621334075928 9.692312359809875 16.285873413085938 11.168550252914429 16.285873413085938 12.989600896835327 C 16.28412103652954 14.810031533241272 14.808870315551758 16.285295128822327 12.988484859466553 16.286978006362915 Z M 12.987483501434326 11.092820763587952 C 14.035070896148682 11.092820763587952 14.884305953979492 11.94205391407013 14.884305953979492 12.989600896835327 C 14.884305953979492 14.037236452102661 14.035070896148682 14.886469602584839 12.987483501434326 14.886469602584839 C 11.93989610671997 14.886469602584839 11.090744495391846 14.037236452102661 11.090744495391846 12.989600896835327 C 11.090744495391846 11.94205391407013 11.93989610671997 11.092820763587952 12.987483501434326 11.092820763587952 Z"/></g></svg>