<svg version="1.1" xmlns="http://www.w3.org/2000/svg" xmlns:xlink="http://www.w3.org/1999/xlink" width="59" height="58"><defs/><g><path fill="rgb(0,203,154)" stroke="none" paint-order="stroke fill markers" fill-rule="evenodd" d=" M 17.55061626434326 48.70366883277893 C 25.687150955200195 50.64438092708588 34.16731834411621 50.64438092708588 42.303853034973145 48.70366883277893 C 46.37479066848755 47.555946350097656 48.43959093093872 45.89397192001343 48.43959093093872 43.76398038864136 C 48.43959093093872 41.63398885726929 46.37479066848755 39.97192585468292 42.303853034973145 38.82420337200165 C 40.19299030303955 38.25547933578491 38.03765058517456 37.86682319641113 35.86094856262207 37.66239786148071 C 40.53403615951538 29.69910991191864 45.16464948654175 20.682960629463196 45.16464948654175 16.22333514690399 C 45.160560607910156 7.820550441741943 38.33446979522705 1.0120707750320435 29.917972087860107 1.0160565376281738 C 21.50714874267578 1.0198651552200317 14.689736366271973 7.826219081878662 14.685814380645752 16.22333514690399 C 14.685814380645752 20.682960629463196 19.31642770767212 29.69910991191864 23.989431858062744 37.66239786148071 C 21.81339740753174 37.86691176891327 19.658725261688232 38.25556790828705 17.54861354827881 38.82420337200165 C 13.477675914764404 39.97192585468292 11.412875652313232 41.63398885726929 11.412875652313232 43.76398038864136 C 11.412875652313232 45.89397192001343 13.479678630828857 47.555946350097656 17.55061626434326 48.70366883277893 Z M 29.927234649658203 4.282433271408081 C 36.52952194213867 4.290316224098206 41.879777908325195 9.631858110427856 41.88762187957764 16.22333514690399 C 41.88762187957764 19.605919003486633 37.69543647766113 28.470786452293396 30.676751136779785 39.9376482963562 C 30.424659252166748 40.350396156311035 29.885010719299316 40.480774879455566 29.471616744995117 40.2290518283844 C 29.352455139160156 40.15651094913483 29.252402782440186 40.05660116672516 29.179720878601074 39.9376482963562 C 22.15703010559082 28.470786452293396 17.96684741973877 19.605919003486633 17.96684741973877 16.22333514690399 C 17.974607944488525 9.631858110427856 23.324947357177734 4.290316224098206 29.927234649658203 4.282433271408081 Z M 19.037632942199707 41.81343674659729 C 21.277170181274414 41.27509307861328 23.559348583221436 40.93160891532898 25.858299732208252 40.78679287433624 C 25.858299732208252 40.78679287433624 26.38150930404663 41.64408612251282 26.38150930404663 41.64408612251282 C 27.578799724578857 43.599058389663696 30.13676881790161 44.21499156951904 32.095091342926025 43.01979422569275 C 32.657103538513184 42.67666435241699 33.12924385070801 42.20519292354584 33.472959995269775 41.64408612251282 C 33.472959995269775 41.64408612251282 33.996169567108154 40.78679287433624 33.996169567108154 40.78679287433624 C 36.29512071609497 40.93152034282684 38.57729911804199 41.27509307861328 40.8168363571167 41.81343674659729 C 42.41333484649658 42.03460228443146 43.91178369522095 42.71120762825012 45.132272243499756 43.761943221092224 C 43.91178369522095 44.81276738643646 42.41333484649658 45.48937273025513 40.8168363571167 45.71036112308502 C 37.24674463272095 46.53257966041565 33.59086990356445 46.926018714904785 29.927234649658203 46.88226389884949 C 26.263515949249268 46.926018714904785 22.60772466659546 46.53257966041565 19.037632942199707 45.71036112308502 C 17.44121789932251 45.48928415775299 15.942769050598145 44.812678813934326 14.72219705581665 43.761943221092224 C 15.94285249710083 42.71129620075226 17.441301345825195 42.03477942943573 19.037632942199707 41.81343674659729 Z M 53.132872581481934 40.17564260959625 C 52.339463233947754 39.740663051605225 51.34319543838501 40.03002941608429 50.907437801361084 40.8221333026886 C 50.47168016433716 41.61414861679077 50.76157331466675 42.60881781578064 51.55498266220093 43.043885946273804 C 53.50863218307495 44.1149046421051 54.62790012359619 45.30292761325836 54.62790012359619 46.30131685733795 C 54.62790012359619 47.52361738681793 52.894465923309326 49.41774034500122 48.02544593811035 51.06961750984192 C 42.163245677948 52.85329055786133 36.05671405792236 53.706775188446045 29.929237365722656 53.59898245334625 C 23.80176067352295 53.706775188446045 17.6953125 52.85329055786133 11.833112239837646 51.06961750984192 C 6.964092254638672 49.41774034500122 5.230574607849121 47.52370595932007 5.230574607849121 46.30131685733795 C 5.230574607849121 45.29283034801483 6.349842548370361 44.114816069602966 8.30357551574707 43.043885946273804 C 9.096901416778564 42.60881781578064 9.386794567108154 41.61414861679077 8.951036930084229 40.8221333026886 C 8.515362739562988 40.03002941608429 7.519011497497559 39.740663051605225 6.7256855964660645 40.17564260959625 C 4.547731876373291 41.36977708339691 1.9536304473876953 43.40295886993408 1.9536304473876953 46.30131685733795 C 1.9536304473876953 48.520058035850525 3.4850406646728516 51.69290220737457 10.780518054962158 54.167795062065125 C 16.982595920562744 56.06581521034241 23.445193767547607 56.97793483734131 29.93124008178711 56.8705849647522 C 36.4173698425293 56.97793483734131 42.880051136016846 56.06581521034241 49.082045555114746 54.167795062065125 C 56.37752294540405 51.69290220737457 57.90893316268921 48.520058035850525 57.90893316268921 46.30131685733795 C 57.912938594818115 43.40295886993408 55.30874013900757 41.36977708339691 53.132872581481934 40.17564260959625 Z M 36.05287551879883 15.178533911705017 C 36.05287551879883 11.80099868774414 33.310322761535645 9.062868356704712 29.927234649658203 9.062868356704712 C 26.54414653778076 9.062868356704712 23.801593780517578 11.80099868774414 23.801593780517578 15.178533911705017 C 23.801593780517578 18.556069135665894 26.54414653778076 21.294110894203186 29.927234649658203 21.294110894203186 C 29.927234649658203 21.294110894203186 29.927234649658203 21.294110894203186 29.927234649658203 21.294110894203186 C 33.30907106399536 21.29074513912201 36.04962110519409 18.554651975631714 36.05287551879883 15.178533911705017 Z M 27.080540657043457 15.178533911705017 C 27.080540657043457 13.60885202884674 28.355019092559814 12.33650803565979 29.927234649658203 12.33650803565979 C 31.499450206756592 12.33650803565979 32.773845195770264 13.60885202884674 32.773845195770264 15.178533911705017 C 32.773845195770264 16.748127222061157 31.499450206756592 18.020471215248108 29.927234649658203 18.020471215248108 C 29.927234649658203 18.020471215248108 29.927234649658203 18.020471215248108 29.927234649658203 18.020471215248108 C 28.35602045059204 18.018256902694702 27.082793712615967 16.74715292453766 27.080540657043457 15.178533911705017 Z"/></g></svg>