<svg version="1.1" xmlns="http://www.w3.org/2000/svg" xmlns:xlink="http://www.w3.org/1999/xlink" width="31" height="31"><defs/><g><path fill="rgb(128,128,128)" stroke="none" paint-order="stroke fill markers" fill-rule="evenodd" d=" M 9.714893341064453 25.821568608283997 C 13.78316068649292 26.791968941688538 18.023244380950928 26.791968941688538 22.091511726379395 25.821568608283997 C 24.12702226638794 25.24770736694336 25.159422397613525 24.416720151901245 25.159422397613525 23.35172438621521 C 25.159422397613525 22.286728620529175 24.12702226638794 21.45574140548706 22.091511726379395 20.881880164146423 C 21.036080360412598 20.597473859786987 19.958452224731445 20.403145790100098 18.870059490203857 20.300933122634888 C 21.206645011901855 16.31933343410492 23.52195167541504 11.811258792877197 23.52195167541504 9.581446051597595 C 23.5198655128479 5.380009412765503 20.106820106506348 1.975813865661621 15.898612976074219 1.9777624607086182 C 11.693159580230713 1.9797110557556152 8.284453392028809 5.382843732833862 8.282534122467041 9.581446051597595 C 8.282534122467041 11.811258792877197 10.597840785980225 16.31933343410492 12.934342861175537 20.300933122634888 C 11.846367359161377 20.403234362602234 10.768989562988281 20.597562432289124 9.713891983032227 20.881880164146423 C 7.678464889526367 21.45574140548706 6.646064758300781 22.286728620529175 6.646064758300781 23.35172438621521 C 6.646064758300781 24.416720151901245 7.679466247558594 25.24770736694336 9.714893341064453 25.821568608283997 Z M 15.903202533721924 3.6109508275985718 C 19.204346179962158 3.614936590194702 21.87947416305542 6.2856632471084595 21.88339614868164 9.581446051597595 C 21.88339614868164 11.272737979888916 19.78730344772339 15.705171704292297 16.277960777282715 21.438558340072632 C 16.15195655822754 21.64493227005005 15.88209056854248 21.71021020412445 15.675477027893066 21.58426010608673 C 15.6158127784729 21.548033952713013 15.565828323364258 21.49807906150818 15.52944564819336 21.438558340072632 C 12.018100261688232 15.705171704292297 9.923008918762207 11.272737979888916 9.923008918762207 9.581446051597595 C 9.926930904388428 6.2856632471084595 12.60205888748169 3.614936590194702 15.903202533721924 3.6109508275985718 Z M 10.458401679992676 22.376452565193176 C 11.57817029953003 22.107280731201172 12.719301223754883 21.93553864955902 13.868776798248291 21.86317491531372 C 13.868776798248291 21.86317491531372 14.13038158416748 22.29177725315094 14.13038158416748 22.29177725315094 C 14.729026794433594 23.26926338672638 16.00801134109497 23.577229976654053 16.987172603607178 22.979631304740906 C 17.268136978149414 22.808066368103027 17.504207134246826 22.572374939918518 17.676106929779053 22.29177725315094 C 17.676106929779053 22.29177725315094 17.937711715698242 21.86317491531372 17.937711715698242 21.86317491531372 C 19.08718729019165 21.93553864955902 20.22823476791382 22.107280731201172 21.348003387451172 22.376452565193176 C 22.146252632141113 22.487079620361328 22.89551877975464 22.825338006019592 23.505763053894043 23.35075008869171 C 22.89551877975464 23.87616217136383 22.146252632141113 24.214420557022095 21.348003387451172 24.32495903968811 C 19.56299924850464 24.736024022102356 17.735103607177734 24.932743549346924 15.903202533721924 24.910866141319275 C 14.071384906768799 24.932743549346924 12.243489265441895 24.736024022102356 10.458401679992676 24.32495903968811 C 9.66023588180542 24.214420557022095 8.910969734191895 23.876073598861694 8.30072546005249 23.35075008869171 C 8.91105318069458 22.82542657852173 9.66023588180542 22.487168192863464 10.458401679992676 22.376452565193176 Z M 27.50602149963379 21.557599782943726 C 27.1093168258667 21.340065717697144 26.61122465133667 21.484793186187744 26.393345832824707 21.88080084323883 C 26.175467014312744 22.276808500289917 26.32041358947754 22.77414309978485 26.71711826324463 22.991677165031433 C 27.69394302368164 23.527186512947083 28.253535270690918 24.12124228477478 28.253535270690918 24.620436906814575 C 28.253535270690918 25.231587171554565 27.386859893798828 26.17860436439514 24.952308177947998 27.00454294681549 C 22.021249771118164 27.896379470825195 18.967942237854004 28.323121786117554 15.90420389175415 28.269269704818726 C 12.840465545654297 28.323121786117554 9.787241458892822 27.896379470825195 6.856183052062988 27.00454294681549 C 4.421631336212158 26.17860436439514 3.5549559593200684 25.231587171554565 3.5549559593200684 24.620436906814575 C 3.5549559593200684 24.116193652153015 4.114548206329346 23.527186512947083 5.091372966766357 22.991677165031433 C 5.488077640533447 22.77414309978485 5.633024215698242 22.276808500289917 5.415145397186279 21.88080084323883 C 5.197266578674316 21.484793186187744 4.699090957641602 21.340065717697144 4.302469730377197 21.557599782943726 C 3.2134928703308105 22.154667019844055 1.91640043258667 23.171213626861572 1.91640043258667 24.620436906814575 C 1.91640043258667 25.729807496070862 2.682105541229248 27.316229581832886 6.329885959625244 28.55367600917816 C 9.430924892425537 29.502641797065735 12.662223815917969 29.958701610565186 15.905288696289062 29.90502667427063 C 19.14827013015747 29.958701610565186 22.379652500152588 29.502641797065735 25.480607986450195 28.55367600917816 C 29.12838840484619 27.316229581832886 29.89409351348877 25.729807496070862 29.89409351348877 24.620436906814575 C 29.896096229553223 23.171213626861572 28.59399700164795 22.154667019844055 27.50602149963379 21.557599782943726 Z M 18.966022968292236 9.059045433998108 C 18.966022968292236 7.370233535766602 17.594746589660645 6.001168370246887 15.903202533721924 6.001168370246887 C 14.211741924285889 6.001168370246887 12.840382099151611 7.370233535766602 12.840382099151611 9.059045433998108 C 12.840382099151611 10.747768759727478 14.211741924285889 12.116833925247192 15.903202533721924 12.116833925247192 C 15.903202533721924 12.116833925247192 15.903202533721924 12.116833925247192 15.903202533721924 12.116833925247192 C 17.594162464141846 12.115151047706604 18.96443748474121 10.747060179710388 18.966022968292236 9.059045433998108 Z M 14.479938983917236 9.059045433998108 C 14.479938983917236 8.27420449256897 15.117136478424072 7.637988209724426 15.903202533721924 7.637988209724426 C 16.68935203552246 7.637988209724426 17.326549530029297 8.27420449256897 17.326549530029297 9.059045433998108 C 17.326549530029297 9.84379780292511 16.68935203552246 10.480014085769653 15.903202533721924 10.480014085769653 C 15.903202533721924 10.480014085769653 15.903202533721924 10.480014085769653 15.903202533721924 10.480014085769653 C 15.117637157440186 10.478862643241882 14.481023788452148 9.843354940414429 14.479938983917236 9.059045433998108 Z"/></g></svg>