<svg version="1.1" xmlns="http://www.w3.org/2000/svg" xmlns:xlink="http://www.w3.org/1999/xlink" width="16" height="21"><defs/><g><path fill="rgb(193,193,193)" stroke="none" paint-order="stroke fill markers" fill-rule="evenodd" d=" M 12.897919178009033 19.89371418952942 C 12.897919178009033 19.89371418952942 3.139434814453125 19.89371418952942 3.139434814453125 19.89371418952942 C 2.7084336280822754 19.89796608686447 2.2937045097351074 19.722324073314667 1.9879565238952637 19.40613752603531 C 1.6722784042358398 19.103093206882477 1.4949545860290527 18.674888491630554 1.500044822692871 18.2279754281044 C 1.500044822692871 18.2279754281044 1.500044822692871 9.736704528331757 1.500044822692871 9.736704528331757 C 1.495288372039795 9.289791464805603 1.672612190246582 8.861741364002228 1.9879565238952637 8.558465123176575 C 2.2938714027404785 8.242587804794312 2.708517074584961 8.066945791244507 3.139434814453125 8.070965766906738 C 3.139434814453125 8.070965766906738 3.9396867752075195 8.070965766906738 3.9396867752075195 8.070965766906738 C 3.9396867752075195 8.070965766906738 3.9396867752075195 6.364563405513763 3.9396867752075195 6.364563405513763 C 3.934596538543701 5.615379095077515 4.123352527618408 4.878718554973602 4.4860944747924805 4.231579780578613 C 4.842744827270508 3.591089427471161 5.354104995727539 3.058829188346863 5.969439506530762 2.687754511833191 C 7.238577365875244 1.929602563381195 8.7988600730896 1.929602563381195 10.067997932434082 2.687754511833191 C 10.683582782745361 3.0585972666740417 11.195026397705078 3.59085750579834 11.551259517669678 4.231579780578613 C 11.914418697357178 4.878563940525055 12.103425025939941 5.615301787853241 12.09875202178955 6.364563405513763 C 12.09875202178955 6.364563405513763 12.09875202178955 8.070965766906738 12.09875202178955 8.070965766906738 C 12.09875202178955 8.070965766906738 12.89892053604126 8.070965766906738 12.89892053604126 8.070965766906738 C 13.329838275909424 8.066945791244507 13.744483947753906 8.242587804794312 14.050398826599121 8.558465123176575 C 14.365659713745117 8.861895978450775 14.542816638946533 9.289868772029877 14.5383939743042 9.736704528331757 C 14.5383939743042 9.736704528331757 14.5383939743042 18.2279754281044 14.5383939743042 18.2279754281044 C 14.543233871459961 18.67481118440628 14.365910053253174 19.10293859243393 14.050398826599121 19.40613752603531 C 13.74440050125122 19.72263330221176 13.329254150390625 19.898198008537292 12.897919178009033 19.89371418952942 Z M 8.018718719482422 12.275937616825104 C 7.119248867034912 12.269907653331757 6.385336875915527 13.023885011672974 6.379495620727539 13.960152804851532 C 6.3766584396362305 14.418971180915833 6.552563667297363 14.859390437602997 6.867156982421875 15.180833876132965 C 7.483325958251953 15.842738330364227 8.498369216918945 15.859436690807343 9.134315013885498 15.218173265457153 C 9.146498203277588 15.205881416797638 9.158431053161621 15.193512260913849 9.170197010040283 15.180833876132965 C 9.806226253509521 14.51003909111023 9.799383640289307 13.429670631885529 9.154926300048828 12.767688870429993 C 8.851848602294922 12.45644998550415 8.444379329681396 12.280112206935883 8.018718719482422 12.275937616825104 Z M 8.018718719482422 3.744080424308777 C 7.5792059898376465 3.7432300448417664 7.147620677947998 3.86614853143692 6.769608020782471 4.099539041519165 C 6.385253429412842 4.331847250461578 6.065736770629883 4.664345622062683 5.842517375946045 5.064487814903259 C 5.61904764175415 5.4582908153533936 5.501054286956787 5.907213866710663 5.500970840454102 6.364563405513763 C 5.500970840454102 6.364563405513763 5.500970840454102 8.070965766906738 5.500970840454102 8.070965766906738 C 5.500970840454102 8.070965766906738 10.53538179397583 8.070965766906738 10.53538179397583 8.070965766906738 C 10.53538179397583 8.070965766906738 10.53538179397583 6.364563405513763 10.53538179397583 6.364563405513763 C 10.535799026489258 5.9072911739349365 10.418139457702637 5.4582908153533936 10.194836616516113 5.064487814903259 C 9.972201347351074 4.663959085941315 9.652517795562744 4.331306099891663 9.267829418182373 4.099539041519165 C 8.889816761016846 3.86614853143692 8.458231449127197 3.7432300448417664 8.018718719482422 3.744080424308777 Z"/></g></svg>