<svg version="1.1" xmlns="http://www.w3.org/2000/svg" xmlns:xlink="http://www.w3.org/1999/xlink" width="21" height="21"><defs/><g><path fill="rgb(0,0,0)" stroke="none" paint-order="stroke fill markers" fill-rule="evenodd" d=" M 2.235706329345703 19.644395232200623 C 1.9593315124511719 19.644395232200623 1.6881303787231445 19.535362482070923 1.4862732887268066 19.3328857421875 C 1.202054500579834 19.048390865325928 1.1032538414001465 18.626874327659607 1.2300090789794922 18.24477255344391 C 1.2300090789794922 18.24477255344391 2.8056459426879883 13.503840804100037 2.8056459426879883 13.503840804100037 C 2.323742389678955 12.405364632606506 2.0726518630981445 11.204498648643494 2.0758228302001953 10.004252672195435 C 2.076824188232422 6.678089499473572 3.9215760231018066 3.6856675148010254 6.890018463134766 2.1972066164016724 C 8.089311599731445 1.5893335342407227 9.436638832092285 1.2508094310760498 10.786552906036377 1.2725982666015625 C 10.786552906036377 1.2725982666015625 11.23324203491211 1.2725982666015625 11.23324203491211 1.2725982666015625 C 15.720410823822021 1.5197155475616455 19.245274543762207 5.055175542831421 19.490607261657715 9.49752938747406 C 19.490607261657715 9.49752938747406 19.492693424224854 10.004252672195435 19.492693424224854 10.004252672195435 C 19.49578094482422 11.356666207313538 19.176931858062744 12.709522604942322 18.568273067474365 13.917120099067688 C 17.085845947265625 16.889790415763855 14.102299690246582 18.74006998538971 10.784466743469238 18.741044282913208 C 10.777290344238281 18.741044282913208 10.769529819488525 18.741044282913208 10.762269973754883 18.741044282913208 C 9.57541036605835 18.741044282913208 8.385963916778564 18.488789796829224 7.296903610229492 18.0090811252594 C 7.296903610229492 18.0090811252594 2.5711612701416016 19.589391708374023 2.5711612701416016 19.589391708374023 C 2.4614291191101074 19.626769304275513 2.348025321960449 19.644395232200623 2.235706329345703 19.644395232200623 Z M 10.767443656921387 3.3990468978881836 C 9.754486560821533 3.3990468978881836 8.744116306304932 3.640584111213684 7.841892719268799 4.097263932228088 C 5.592425346374512 5.225500464439392 4.196949481964111 7.488970756530762 4.195948123931885 10.007352709770203 C 4.193361282348633 11.028505086898804 4.43402099609375 12.048151731491089 4.8915581703186035 12.956639885902405 C 5.018897533416748 13.21004581451416 5.040677070617676 13.503840804100037 4.951055526733398 13.772746920585632 C 4.951055526733398 13.772746920585632 3.911729335784912 16.900153398513794 3.911729335784912 16.900153398513794 C 3.911729335784912 16.900153398513794 7.02878999710083 15.857655048370361 7.02878999710083 15.857655048370361 C 7.297904968261719 15.766336798667908 7.589300155639648 15.789188504219055 7.841892719268799 15.9169100522995 C 8.744116306304932 16.373767018318176 9.754486560821533 16.614595651626587 10.764856815338135 16.614595651626587 C 10.770030498504639 16.614595651626587 10.775704860687256 16.614595651626587 10.781379222869873 16.614595651626587 C 13.293786525726318 16.61362135410309 15.55159854888916 15.213998675346375 16.673787117004395 12.961865663528442 C 17.1344952583313 12.048151731491089 17.37565565109253 11.028505086898804 17.372568130493164 10.009478449821472 C 17.372568130493164 10.008947014808655 17.372568130493164 10.00788414478302 17.372568130493164 10.006821274757385 C 17.372568130493164 10.006821274757385 17.372568130493164 9.55625295639038 17.372568130493164 9.55625295639038 C 17.188401699066162 6.255952954292297 14.523704528808594 3.583366274833679 11.174829483032227 3.3974525928497314 C 11.174829483032227 3.3974525928497314 10.783966064453125 3.3990468978881836 10.783966064453125 3.3990468978881836 C 10.778291702270508 3.3990468978881836 10.77261734008789 3.3990468978881836 10.767443656921387 3.3990468978881836 Z M 19.492693424224854 10.006821274757385 C 19.492693424224854 10.006821274757385 19.503124237060547 10.006821274757385 19.503124237060547 10.006821274757385 C 19.503124237060547 10.006821274757385 19.492693424224854 10.006821274757385 19.492693424224854 10.006821274757385 Z"/></g></svg>