<svg version="1.1" xmlns="http://www.w3.org/2000/svg" xmlns:xlink="http://www.w3.org/1999/xlink" width="30" height="30"><defs/><g><path fill="rgb(255,255,255)" stroke="none" paint-order="stroke fill markers" fill-rule="evenodd" d=" M 2.9999661445617676 28.199931144714355 C 2.8452563285827637 28.199931144714355 2.689378261566162 28.170613825321198 2.540593147277832 28.10858190059662 C 2.092318534851074 27.923366904258728 1.799921989440918 27.48511701822281 1.799921989440918 26.999934256076813 C 1.799921989440918 26.999934256076813 1.799921989440918 5.666614294052124 1.799921989440918 5.666614294052124 C 1.799921989440918 3.5342511534690857 3.5343575477600098 1.7998737692832947 5.6665825843811035 1.7998737692832947 C 5.6665825843811035 1.7998737692832947 24.33389902114868 1.7998737692832947 24.33389902114868 1.7998737692832947 C 26.465623378753662 1.7998737692832947 28.19997549057007 3.5342511534690857 28.19997549057007 5.666614294052124 C 28.19997549057007 5.666614294052124 28.19997549057007 18.999577522277832 28.19997549057007 18.999577522277832 C 28.19997549057007 21.131185710430145 26.465623378753662 22.865563094615936 24.33389902114868 22.865563094615936 C 24.33389902114868 22.865563094615936 8.830039501190186 22.865563094615936 8.830039501190186 22.865563094615936 C 8.830039501190186 22.865563094615936 3.8483667373657227 27.8483749628067 3.8483667373657227 27.8483749628067 C 3.6193060874938965 28.078006327152252 3.312222957611084 28.199931144714355 2.9999661445617676 28.199931144714355 Z M 5.6665825843811035 4.199993371963501 C 4.857985973358154 4.199993371963501 4.199926853179932 4.857934415340424 4.199926853179932 5.666614294052124 C 4.199926853179932 5.666614294052124 4.199926853179932 24.101923525333405 4.199926853179932 24.101923525333405 C 4.199926853179932 24.101923525333405 7.484130859375 20.817125499248505 7.484130859375 20.817125499248505 C 7.709102630615234 20.592149674892426 8.01443338394165 20.46556931734085 8.33261489868164 20.46556931734085 C 8.33261489868164 20.46556931734085 24.33389902114868 20.46556931734085 24.33389902114868 20.46556931734085 C 25.14249563217163 20.46556931734085 25.799970626831055 19.80813157558441 25.799970626831055 18.999577522277832 C 25.799970626831055 18.999577522277832 25.799970626831055 5.666614294052124 25.799970626831055 5.666614294052124 C 25.799970626831055 4.857934415340424 25.14249563217163 4.199993371963501 24.33389902114868 4.199993371963501 C 24.33389902114868 4.199993371963501 5.6665825843811035 4.199993371963501 5.6665825843811035 4.199993371963501 Z"/></g></svg>