<svg version="1.1" xmlns="http://www.w3.org/2000/svg" xmlns:xlink="http://www.w3.org/1999/xlink" width="23" height="23"><defs/><g><path fill="rgb(0,0,0)" stroke="none" paint-order="stroke fill markers" fill-rule="evenodd" d=" M 11.528811931610107 21.75986087322235 C 10.49006986618042 21.75986087322235 9.520671844482422 21.203891277313232 8.998380184173584 20.30824613571167 C 8.803616046905518 19.973796367645264 8.802531242370605 19.56131422519684 8.99621057510376 19.225890159606934 C 9.1893892288208 18.891440391540527 9.547625064849854 18.684712171554565 9.935484409332275 18.684712171554565 C 9.935484409332275 18.684712171554565 13.12155532836914 18.684712171554565 13.12155532836914 18.684712171554565 C 13.509915351867676 18.684712171554565 13.8677339553833 18.891440391540527 14.06132984161377 19.22695302963257 C 14.255009174346924 19.562377095222473 14.252923011779785 19.9748592376709 14.058242321014404 20.309309005737305 C 13.536534786224365 21.200702667236328 12.568054676055908 21.756672263145447 11.532483577728271 21.75986087322235 C 11.530898094177246 21.75986087322235 11.52989673614502 21.75986087322235 11.528811931610107 21.75986087322235 Z M 20.656941413879395 17.172956705093384 C 20.656941413879395 17.172956705093384 2.3224096298217773 17.172956705093384 2.3224096298217773 17.172956705093384 C 1.7244319915771484 17.172956705093384 1.2397747039794922 16.689793705940247 1.23868989944458 16.09378933906555 C 1.237605094909668 15.497784972190857 1.7212610244750977 15.01462197303772 2.3192386627197266 15.01249623298645 C 3.2431583404541016 15.01037049293518 3.9961795806884766 14.259275674819946 3.997765064239502 13.338298797607422 C 3.997765064239502 13.338298797607422 3.997765064239502 8.748294591903687 3.997765064239502 8.748294591903687 C 3.997765064239502 4.608238697052002 7.376430511474609 1.2403578758239746 11.52989673614502 1.2403578758239746 C 15.682695388793945 1.2403578758239746 19.062028408050537 4.608238697052002 19.062028408050537 8.748294591903687 C 19.062028408050537 8.748294591903687 19.062028408050537 13.340424537658691 19.062028408050537 13.340424537658691 C 19.06311321258545 14.24979841709137 19.778416633605957 14.985038757324219 20.691822052001953 15.01249623298645 C 21.28345775604248 15.031450748443604 21.750174045562744 15.51886522769928 21.741579055786133 16.109643816947937 C 21.73223304748535 16.699270963668823 21.248493671417236 17.172956705093384 20.656941413879395 17.172956705093384 Z M 5.7762603759765625 15.01249623298645 C 5.7762603759765625 15.01249623298645 17.274520874023438 15.01249623298645 17.274520874023438 15.01249623298645 C 17.031107425689697 14.50825297832489 16.894505500793457 13.94174325466156 16.894505500793457 13.341487407684326 C 16.894505500793457 13.341487407684326 16.894505500793457 8.748294591903687 16.894505500793457 8.748294591903687 C 16.894505500793457 5.799715995788574 14.487908363342285 3.400818347930908 11.52989673614502 3.400818347930908 C 8.571801662445068 3.400818347930908 6.1652045249938965 5.799715995788574 6.1652045249938965 8.748294591903687 C 6.1652045249938965 8.748294591903687 6.1652045249938965 13.340424537658691 6.1652045249938965 13.340424537658691 C 6.164119720458984 13.93961751461029 6.024430274963379 14.507190108299255 5.7762603759765625 15.01249623298645 Z"/></g></svg>