<svg version="1.1" xmlns="http://www.w3.org/2000/svg" xmlns:xlink="http://www.w3.org/1999/xlink" width="22" height="22"><defs/><g><path fill="rgb(204,204,204)" stroke="none" paint-order="stroke fill markers" fill-rule="evenodd" d=" M 10.96933889389038 18.650022387504578 C 10.96933889389038 18.650022387504578 4.080329418182373 18.650022387504578 4.080329418182373 18.650022387504578 C 3.6577563285827637 18.650022387504578 3.3148746490478516 18.30723810195923 3.3148746490478516 17.885026216506958 C 3.3148746490478516 17.885026216506958 3.3148746490478516 4.114933371543884 3.3148746490478516 4.114933371543884 C 3.3148746490478516 3.6926406025886536 3.6577563285827637 3.3499372005462646 4.080329418182373 3.3499372005462646 C 4.080329418182373 3.3499372005462646 10.96933889389038 3.3499372005462646 10.96933889389038 3.3499372005462646 C 11.39266300201416 3.3499372005462646 11.734793663024902 3.008042633533478 11.734793663024902 2.584941029548645 C 11.734793663024902 2.1619203090667725 11.39266300201416 1.8199448585510254 10.96933889389038 1.8199448585510254 C 10.96933889389038 1.8199448585510254 4.080329418182373 1.8199448585510254 4.080329418182373 1.8199448585510254 C 2.814279079437256 1.8199448585510254 1.7839651107788086 2.8496727347373962 1.7839651107788086 4.114933371543884 C 1.7839651107788086 4.114933371543884 1.7839651107788086 17.884945333003998 1.7839651107788086 17.884945333003998 C 1.7839651107788086 19.150286853313446 2.814279079437256 20.179933845996857 4.080329418182373 20.179933845996857 C 4.080329418182373 20.179933845996857 10.96933889389038 20.179933845996857 10.96933889389038 20.179933845996857 C 11.39266300201416 20.179933845996857 11.734793663024902 19.83803927898407 11.734793663024902 19.414937674999237 C 11.734793663024902 18.991916954517365 11.39266300201416 18.650022387504578 10.96933889389038 18.650022387504578 Z M 19.987903118133545 10.4553102850914 C 19.987903118133545 10.4553102850914 15.333924770355225 5.865252375602722 15.333924770355225 5.865252375602722 C 15.033851146697998 5.5684099197387695 14.548609733581543 5.572292327880859 14.251623630523682 5.872936308383942 C 13.954554080963135 6.173580288887024 13.9576416015625 6.657829821109772 14.259217262268066 6.954591393470764 C 14.259217262268066 6.954591393470764 17.585144519805908 10.234902739524841 17.585144519805908 10.234902739524841 C 17.585144519805908 10.234902739524841 8.672974586486816 10.234902739524841 8.672974586486816 10.234902739524841 C 8.249733924865723 10.234902739524841 7.907519817352295 10.576878190040588 7.907519817352295 10.999898910522461 C 7.907519817352295 11.423000514507294 8.249733924865723 11.76497596502304 8.672974586486816 11.76497596502304 C 8.672974586486816 11.76497596502304 17.585144519805908 11.76497596502304 17.585144519805908 11.76497596502304 C 17.585144519805908 11.76497596502304 14.259217262268066 15.045287311077118 14.259217262268066 15.045287311077118 C 13.9576416015625 15.34204888343811 13.95538854598999 15.826298415660858 14.251623630523682 16.12694239616394 C 14.40157699584961 16.278437197208405 14.599094867706299 16.35495299100876 14.796612739562988 16.35495299100876 C 14.991043090820312 16.35495299100876 15.185389995574951 16.281510770320892 15.333924770355225 16.13462632894516 C 15.333924770355225 16.13462632894516 19.987903118133545 11.544568419456482 19.987903118133545 11.544568419456482 C 20.133266925811768 11.400757551193237 20.215962409973145 11.20485770702362 20.215962409973145 10.999898910522461 C 20.215962409973145 10.794940114021301 20.134017944335938 10.599849104881287 19.987903118133545 10.4553102850914 Z"/></g></svg>