<svg version="1.1" xmlns="http://www.w3.org/2000/svg" xmlns:xlink="http://www.w3.org/1999/xlink" width="21" height="20"><defs/><g><path fill="rgb(193,193,193)" stroke="none" paint-order="stroke fill markers" fill-rule="evenodd" d=" M 3.3547415733337402 12.168612003326416 C 4.3859734535217285 12.170235455036163 5.410863399505615 12.007117211818695 6.39044189453125 11.685441851615906 C 6.85891056060791 11.534383535385132 7.372440338134766 11.642459034919739 7.739938735961914 11.969391286373138 C 7.739938735961914 11.969391286373138 9.650112628936768 13.412639856338501 9.650112628936768 13.412639856338501 C 11.709989547729492 12.38855105638504 13.379169940948486 10.721807301044464 14.404560565948486 8.665203213691711 C 14.404560565948486 8.665203213691711 13.002909660339355 6.804186403751373 13.002909660339355 6.804186403751373 C 12.637747764587402 6.440069377422333 12.507404327392578 5.902552247047424 12.665285110473633 5.411960601806641 C 12.988139629364014 4.432478070259094 13.151861667633057 3.4076161980628967 13.150192737579346 2.3764151334762573 C 13.151360988616943 1.6238293051719666 13.762189388275146 1.013952612876892 14.516128540039062 1.0127930045127869 C 14.516128540039062 1.0127930045127869 17.64278554916382 1.0127930045127869 17.64278554916382 1.0127930045127869 C 18.39664125442505 1.013952612876892 19.007553100585938 1.6238293051719666 19.00863790512085 2.3764151334762573 C 18.996788501739502 11.002277910709381 11.995293140411377 17.992010593414307 3.3547415733337402 18.00383859872818 C 2.5993003845214844 18.004998207092285 1.9859685897827148 17.39450305700302 1.9848003387451172 16.640293776988983 C 1.9848003387451172 16.640293776988983 1.9848003387451172 16.640293776988983 1.9848003387451172 16.640293776988983 C 1.9848003387451172 16.640293776988983 1.9848003387451172 13.532156825065613 1.9848003387451172 13.532156825065613 C 1.9859685897827148 12.777947545051575 2.5993003845214844 12.16745239496231 3.3547415733337402 12.168612003326416 C 3.3547415733337402 12.168612003326416 3.3547415733337402 12.168612003326416 3.3547415733337402 12.168612003326416 Z"/></g></svg>