<svg version="1.1" xmlns="http://www.w3.org/2000/svg" xmlns:xlink="http://www.w3.org/1999/xlink" width="20" height="20"><defs/><g><path fill="rgb(0,0,0)" stroke="none" paint-order="stroke fill markers" fill-rule="evenodd" d=" M 18.604904174804688 17.288776636123657 C 18.604904174804688 17.288776636123657 14.733654022216797 13.397698044776917 14.733654022216797 13.397698044776917 C 15.94563102722168 12.079473495483398 16.693061351776123 10.323789358139038 16.693061351776123 8.391845941543579 C 16.693061351776123 4.316447973251343 13.394003868103027 1.0009135007858276 9.339838981628418 1.0009135007858276 C 5.285256862640381 1.0009135007858276 1.986616611480713 4.316447973251343 1.986616611480713 8.391845941543579 C 1.986616611480713 12.466712474822998 5.285256862640381 15.78277838230133 9.339838981628418 15.78277838230133 C 10.751837253570557 15.78277838230133 12.06762170791626 15.373573422431946 13.188975811004639 14.677127838134766 C 13.188975811004639 14.677127838134766 17.1960768699646 18.704785227775574 17.1960768699646 18.704785227775574 C 17.390674114227295 18.90035331249237 17.64560317993164 18.99813735485077 17.9004487991333 18.99813735485077 C 18.155377864837646 18.99813735485077 18.410390377044678 18.90035331249237 18.604904174804688 18.704785227775574 C 18.994098663330078 18.31364905834198 18.994098663330078 17.67991280555725 18.604904174804688 17.288776636123657 Z M 3.9790687561035156 8.391845941543579 C 3.9790687561035156 5.421035647392273 6.384163856506348 3.0036263465881348 9.339838981628418 3.0036263465881348 C 12.295597553253174 3.0036263465881348 14.70060920715332 5.421035647392273 14.70060920715332 8.391845941543579 C 14.70060920715332 11.362744808197021 12.295597553253174 13.780065536499023 9.339838981628418 13.780065536499023 C 6.384163856506348 13.780065536499023 3.9790687561035156 11.362744808197021 3.9790687561035156 8.391845941543579 Z"/></g></svg>