<svg version="1.1" xmlns="http://www.w3.org/2000/svg" xmlns:xlink="http://www.w3.org/1999/xlink" width="26" height="29"><defs/><g><path fill="rgb(128,128,128)" stroke="none" paint-order="stroke fill markers" fill-rule="evenodd" d=" M 20.175817489624023 18.055095195770264 C 18.807878971099854 18.055221021175385 17.521467685699463 18.697685539722443 16.709700107574463 19.78607529401779 C 16.709700107574463 19.78607529401779 9.945860385894775 16.36928641796112 9.945860385894775 16.36928641796112 C 10.219648361206055 15.447363674640656 10.17008113861084 14.461018323898315 9.805253028869629 13.570300281047821 C 9.805253028869629 13.570300281047821 16.89603614807129 9.360056400299072 16.89603614807129 9.360056400299072 C 18.43503999710083 11.141995787620544 21.14396381378174 11.35313081741333 22.946575164794922 9.831775844097137 C 24.74926996231079 8.310420870780945 24.96289300918579 5.632604598999023 23.42388916015625 3.8506652116775513 C 21.884801864624023 2.0688516497612 19.175878047943115 1.8575907945632935 17.37326669692993 3.378945767879486 C 15.985718250274658 4.5498769879341125 15.498891353607178 6.4600324630737305 16.159286975860596 8.141185700893402 C 16.159286975860596 8.141185700893402 9.050479412078857 12.362124741077423 9.050479412078857 12.362124741077423 C 7.482436180114746 10.592893719673157 4.760411262512207 10.415102422237396 2.970567226409912 11.965145587921143 C 1.1806397438049316 13.515062928199768 1.0008125305175781 16.205839216709137 2.5688557624816895 17.975196063518524 C 4.136815547943115 19.74442708492279 6.85892391204834 19.92221838235855 8.648767948150635 18.372301042079926 C 8.898439884185791 18.156132996082306 9.121909618377686 17.91215753555298 9.314921379089355 17.645281851291656 C 9.314921379089355 17.645281851291656 16.059568405151367 21.052507996559143 16.059568405151367 21.052507996559143 C 15.353944778442383 23.299623906612396 16.624751567840576 25.686657667160034 18.898001194000244 26.384107887744904 C 21.171250820159912 27.081558108329773 23.586109161376953 25.82531726360321 24.291732788085938 23.578201353549957 C 24.99718952178955 21.331085443496704 23.726382732391357 18.944051682949066 21.45313310623169 18.246601462364197 C 21.03957223892212 18.11964362859726 20.60890483856201 18.055095195770264 20.175817489624023 18.055095195770264 C 19.74264669418335 18.055095195770264 20.175817489624023 18.055095195770264 20.175817489624023 18.055095195770264 M 20.175817489624023 3.7609516978263855 C 21.762218952178955 3.7609516978263855 23.048129558563232 5.032039940357208 23.048129558563232 6.600327789783478 C 23.048129558563232 8.168489813804626 21.762218952178955 9.43957805633545 20.175817489624023 9.43957805633545 C 18.589416027069092 9.43957805633545 17.30342197418213 8.168489813804626 17.30342197418213 6.600327789783478 C 17.305508136749268 5.032920718193054 18.590250492095947 3.762964904308319 20.175817489624023 3.7609516978263855 C 21.7613844871521 3.758938491344452 20.175817489624023 3.7609516978263855 20.175817489624023 3.7609516978263855 M 5.811586856842041 18.007659018039703 C 4.225185394287109 18.007659018039703 2.9391913414001465 16.73631912469864 2.9391913414001465 15.168282926082611 C 2.9391913414001465 13.600120902061462 4.225185394287109 12.328906834125519 5.811586856842041 12.328906834125519 C 7.397904872894287 12.328906834125519 8.68389892578125 13.600120902061462 8.68389892578125 15.168282926082611 C 8.68389892578125 15.168282926082611 8.68389892578125 15.168282926082611 8.68389892578125 15.168282926082611 C 8.681979656219482 16.735564172267914 7.397070407867432 18.00564581155777 5.811586856842041 18.007659018039703 C 4.226019859313965 18.009546399116516 5.811586856842041 18.007659018039703 5.811586856842041 18.007659018039703 M 20.175817489624023 25.1511447429657 C 18.589416027069092 25.1511447429657 17.30342197418213 23.879930675029755 17.30342197418213 22.311768651008606 C 17.30342197418213 20.743606626987457 18.589416027069092 19.472392559051514 20.175817489624023 19.472392559051514 C 21.762218952178955 19.472392559051514 23.048129558563232 20.743606626987457 23.048129558563232 22.311768651008606 C 23.048129558563232 22.311768651008606 23.048129558563232 22.311768651008606 23.048129558563232 22.311768651008606 C 23.04612684249878 23.87904989719391 21.7613844871521 25.149131536483765 20.175817489624023 25.1511447429657 C 18.590250492095947 25.153157949447632 20.175817489624023 25.1511447429657 20.175817489624023 25.1511447429657"/></g></svg>