<svg version="1.1" xmlns="http://www.w3.org/2000/svg" xmlns:xlink="http://www.w3.org/1999/xlink" width="48" height="35"><defs/><g><path fill="rgb(0,203,154)" stroke="none" paint-order="stroke fill markers" fill-rule="evenodd" d=" M 44.69648504257202 9.002818942070007 C 44.69648504257202 9.002818942070007 21.49501943588257 32.16704332828522 21.49501943588257 32.16704332828522 C 19.77585458755493 33.88271975517273 16.98940896987915 33.88271975517273 15.270244121551514 32.16704332828522 C 15.270244121551514 32.16704332828522 3.294586181640625 20.20416760444641 3.294586181640625 20.20416760444641 C 1.575671672821045 18.488107085227966 1.5755047798156738 15.70561420917511 3.294252395629883 13.98929762840271 C 5.012916564941406 12.27298104763031 7.79969596862793 12.272789001464844 9.51861047744751 13.988849520683289 C 9.51861047744751 13.988849520683289 9.51861047744751 13.988849520683289 9.51861047744751 13.988849520683289 C 9.51861047744751 13.988849520683289 18.387054443359375 22.843714118003845 18.387054443359375 22.843714118003845 C 18.387054443359375 22.843714118003845 38.470791816711426 2.7875008583068848 38.470791816711426 2.7875008583068848 C 40.21131896972656 1.0926934480667114 42.99826526641846 1.1275818347930908 44.695650577545166 2.8653435707092285 C 46.363078594207764 4.572505950927734 46.363078594207764 7.2956565618515015 44.695650577545166 9.002818942070007 C 44.695650577545166 9.002818942070007 44.69648504257202 9.002818942070007 44.69648504257202 9.002818942070007 Z"/></g></svg>