<svg version="1.1" xmlns="http://www.w3.org/2000/svg" xmlns:xlink="http://www.w3.org/1999/xlink" width="21" height="24"><defs/><g><path fill="rgb(0,0,0)" stroke="none" paint-order="stroke fill markers" fill-rule="evenodd" d=" M 19.00525665283203 22.99413514137268 C 18.456345558166504 22.99413514137268 18.01082468032837 22.53524100780487 18.01082468032837 21.969528436660767 C 18.01082468032837 21.969528436660767 18.01082468032837 19.794187784194946 18.01082468032837 19.794187784194946 C 18.006986141204834 17.96109127998352 16.555601119995117 16.47094750404358 14.775269985198975 16.47094750404358 C 14.772766590118408 16.47094750404358 14.77143144607544 16.47094750404358 14.768761157989502 16.47094750404358 C 14.768761157989502 16.47094750404358 6.2907633781433105 16.47094750404358 6.2907633781433105 16.47094750404358 C 6.286924839019775 16.47094750404358 6.282919406890869 16.47094750404358 6.280416011810303 16.47094750404358 C 4.497581481933594 16.47094750404358 3.0486998558044434 17.959142684936523 3.0421910285949707 19.793479204177856 C 3.0421910285949707 19.793479204177856 3.0421910285949707 21.969528436660767 3.0421910285949707 21.969528436660767 C 3.0421910285949707 22.53524100780487 2.596837043762207 22.99413514137268 2.047842502593994 22.99413514137268 C 1.4988479614257812 22.99413514137268 1.0534939765930176 22.53524100780487 1.0534939765930176 21.969528436660767 C 1.0534939765930176 21.969528436660767 1.0534939765930176 19.794187784194946 1.0534939765930176 19.794187784194946 C 1.0625061988830566 16.824440360069275 3.4046826362609863 14.421734094619751 6.276577472686768 14.421734094619751 C 6.282919406890869 14.421734094619751 6.288093090057373 14.421734094619751 6.294601917266846 14.421734094619751 C 6.294601917266846 14.421734094619751 14.764922618865967 14.421734094619751 14.764922618865967 14.421734094619751 C 14.768761157989502 14.421734094619751 14.772766590118408 14.421734094619751 14.776605129241943 14.421734094619751 C 17.65100336074829 14.421734094619751 19.993263244628906 16.828426122665405 19.999605178833008 19.79223918914795 C 19.999605178833008 19.79223918914795 19.999605178833008 21.969528436660767 19.999605178833008 21.969528436660767 C 19.999605178833008 22.53524100780487 19.554251194000244 22.99413514137268 19.00525665283203 22.99413514137268 Z M 10.524672031402588 12.120974779129028 C 7.639926433563232 12.120974779129028 5.292576313018799 9.710916996002197 5.292576313018799 6.747812509536743 C 5.292576313018799 3.7847965955734253 7.639926433563232 1.374650239944458 10.524672031402588 1.374650239944458 C 13.410585880279541 1.374650239944458 15.75801944732666 3.7847965955734253 15.75801944732666 6.747812509536743 C 15.75801944732666 9.710916996002197 13.410585880279541 12.120974779129028 10.524672031402588 12.120974779129028 Z M 10.524672031402588 3.423863649368286 C 8.736496925354004 3.423863649368286 7.281273365020752 4.914716005325317 7.281273365020752 6.747812509536743 C 7.281273365020752 8.580909013748169 8.736496925354004 10.0717613697052 10.524672031402588 10.0717613697052 C 12.31401538848877 10.0717613697052 13.769238948822021 8.580909013748169 13.769238948822021 6.747812509536743 C 13.769238948822021 4.914716005325317 12.31401538848877 3.423863649368286 10.524672031402588 3.423863649368286 Z"/></g></svg>