<svg version="1.1" xmlns="http://www.w3.org/2000/svg" xmlns:xlink="http://www.w3.org/1999/xlink" width="186" height="76"><defs/><g><path fill="rgb(0,0,0)" stroke="none" paint-order="stroke fill markers" fill-rule="evenodd" d=" M 72.41691875457764 35.85467457771301 C 72.41691875457764 35.85467457771301 67.66756105422974 35.85467457771301 67.66756105422974 35.85467457771301 C 67.66756105422974 35.85467457771301 67.66756105422974 28.808997750282288 67.66756105422974 28.808997750282288 C 67.66756105422974 23.81678581237793 63.62658071517944 19.769819617271423 58.62521457672119 19.769819617271423 C 58.62521457672119 19.769819617271423 56.17455768585205 19.769819617271423 56.17455768585205 19.769819617271423 C 56.17455768585205 19.769819617271423 56.17455768585205 8.129001379013062 56.17455768585205 8.129001379013062 C 56.17455768585205 4.411967754364014 53.14920473098755 1.3878368139266968 49.43099546432495 1.3878368139266968 C 49.43099546432495 1.3878368139266968 17.25093650817871 1.3878368139266968 17.25093650817871 1.3878368139266968 C 13.55659294128418 1.3878368139266968 10.507374286651611 4.372464418411255 10.507374286651611 8.129001379013062 C 10.507374286651611 8.129001379013062 10.507374286651611 24.365758180618286 10.507374286651611 24.365758180618286 C 10.507374286651611 24.365758180618286 8.056800842285156 24.365758180618286 8.056800842285156 24.365758180618286 C 4.35711669921875 24.365758180618286 1.3132386207580566 27.354991555213928 1.3132386207580566 31.107011318206787 C 1.3132386207580566 33.54257798194885 2.6126675605773926 35.68045246601105 4.554551124572754 36.864755392074585 C 3.956907272338867 37.8710275888443 3.612022876739502 39.04487895965576 3.612022876739502 40.297914147377014 C 3.612022876739502 42.7320636510849 4.909282207489014 44.86905241012573 6.849496841430664 46.053443908691406 C 6.23699951171875 47.08301067352295 5.910807132720947 48.26067066192627 5.910807132720947 49.48890554904938 C 5.910807132720947 52.07212257385254 7.3263936042785645 54.136924743652344 9.15053415298462 55.25054681301117 C 8.552890300750732 56.25602185726166 8.208590030670166 57.42854464054108 8.208590030670166 58.67989695072174 C 8.208590030670166 60.69624996185303 9.099798679351807 62.507203340530396 10.507374286651611 63.74287831783295 C 10.507374286651611 63.74287831783295 10.507374286651611 67.8708883523941 10.507374286651611 67.8708883523941 C 10.507374286651611 71.58792197704315 13.532727241516113 74.61205291748047 17.25093650817871 74.61205291748047 C 17.25093650817871 74.61205291748047 49.43099546432495 74.61205291748047 49.43099546432495 74.61205291748047 C 51.233439922332764 74.61205291748047 52.92640256881714 73.91029298305511 54.19762659072876 72.6380375623703 C 55.47260570526123 71.36595928668976 56.17380666732788 69.67280733585358 56.17380666732788 67.8708883523941 C 56.17380666732788 67.8708883523941 56.17380666732788 65.4210615158081 56.17380666732788 65.4210615158081 C 56.17380666732788 65.4210615158081 58.62521457672119 65.4210615158081 58.62521457672119 65.4210615158081 C 62.87180709838867 65.4210615158081 66.44406843185425 62.47956871986389 67.40962791442871 58.52710938453674 C 67.40962791442871 58.52710938453674 72.41691875457764 58.52710938453674 72.41691875457764 58.52710938453674 C 73.6024432182312 58.52710938453674 74.56291246414185 57.566983461380005 74.56291246414185 56.38188338279724 C 74.56291246414185 56.38188338279724 74.56291246414185 37.99998915195465 74.56291246414185 37.99998915195465 C 74.56291246414185 36.81480050086975 73.6024432182312 35.85467457771301 72.41691875457764 35.85467457771301 C 72.41691875457764 35.85467457771301 72.41691875457764 35.85467457771301 72.41691875457764 35.85467457771301 Z M 23.99358081817627 5.678288817405701 C 23.99358081817627 5.678288817405701 42.68743324279785 5.678288817405701 42.68743324279785 5.678288817405701 C 42.68743324279785 5.678288817405701 42.68743324279785 8.129001379013062 42.68743324279785 8.129001379013062 C 42.68743324279785 9.463877558708191 41.607802391052246 10.57882821559906 40.2368597984314 10.57882821559906 C 40.2368597984314 10.57882821559906 26.445072174072266 10.57882821559906 26.445072174072266 10.57882821559906 C 25.106757164001465 10.57882821559906 23.99358081817627 9.496472239494324 23.99358081817627 8.129001379013062 C 23.99358081817627 8.129001379013062 23.99358081817627 5.678288817405701 23.99358081817627 5.678288817405701 Z M 5.605226039886475 31.107011318206787 C 5.605226039886475 29.77133798599243 6.68560791015625 28.65621018409729 8.056800842285156 28.65621018409729 C 8.056800842285156 28.65621018409729 10.507374286651611 28.65621018409729 10.507374286651611 28.65621018409729 C 10.507374286651611 28.65621018409729 10.507374286651611 33.55674958229065 10.507374286651611 33.55674958229065 C 10.507374286651611 33.55674958229065 8.056800842285156 33.55674958229065 8.056800842285156 33.55674958229065 C 6.705050945281982 33.55674958229065 5.605226039886475 32.45738768577576 5.605226039886475 31.107011318206787 C 5.605226039886475 31.107011318206787 5.605226039886475 31.107011318206787 5.605226039886475 31.107011318206787 Z M 7.903926849365234 40.297914147377014 C 7.903926849365234 38.94674062728882 9.003668308258057 37.84720158576965 10.354583740234375 37.84720158576965 C 10.354583740234375 37.84720158576965 17.25093650817871 37.84720158576965 17.25093650817871 37.84720158576965 C 18.6026029586792 37.84720158576965 19.70159339904785 38.94674062728882 19.70159339904785 40.297914147377014 C 19.70159339904785 41.649176239967346 18.6026029586792 42.74765241146088 17.25093650817871 42.74765241146088 C 17.25093650817871 42.74765241146088 10.354583740234375 42.74765241146088 10.354583740234375 42.74765241146088 C 9.003668308258057 42.74765241146088 7.903926849365234 41.649176239967346 7.903926849365234 40.297914147377014 C 7.903926849365234 40.297914147377014 7.903926849365234 40.297914147377014 7.903926849365234 40.297914147377014 Z M 10.202794551849365 49.48890554904938 C 10.202794551849365 48.15332078933716 11.28317642211914 47.03819298744202 12.65336799621582 47.03819298744202 C 12.65336799621582 47.03819298744202 17.25093650817871 47.03819298744202 17.25093650817871 47.03819298744202 C 18.58983564376831 47.03819298744202 19.70159339904785 48.12054896354675 19.70159339904785 49.48890554904938 C 19.70159339904785 50.82750177383423 18.619792938232422 51.93882095813751 17.25093650817871 51.93882095813751 C 17.25093650817871 51.93882095813751 12.65336799621582 51.93882095813751 12.65336799621582 51.93882095813751 C 11.31521987915039 51.93961811065674 10.202794551849365 50.857262134552 10.202794551849365 49.48890554904938 C 10.202794551849365 49.48890554904938 10.202794551849365 49.48890554904938 10.202794551849365 49.48890554904938 Z M 12.500577449798584 58.67989695072174 C 12.500577449798584 57.32863485813141 13.600485801696777 56.23007011413574 14.952152252197266 56.23007011413574 C 16.303818702697754 56.23007011413574 17.403727054595947 57.32863485813141 17.403727054595947 58.67989695072174 C 17.403727054595947 60.03107047080994 16.303818702697754 61.1306095123291 14.952152252197266 61.1306095123291 C 13.600485801696777 61.1306095123291 12.500577449798584 60.03107047080994 12.500577449798584 58.67989695072174 C 12.500577449798584 58.67989695072174 12.500577449798584 58.67989695072174 12.500577449798584 58.67989695072174 Z M 51.88257026672363 67.8708883523941 C 51.88257026672363 69.20638453960419 50.80218839645386 70.32160091400146 49.43099546432495 70.32160091400146 C 49.43099546432495 70.32160091400146 17.25093650817871 70.32160091400146 17.25093650817871 70.32160091400146 C 15.899270057678223 70.32160091400146 14.79936170578003 69.2220618724823 14.79936170578003 67.8708883523941 C 14.79936170578003 67.8708883523941 14.79936170578003 65.41725289821625 14.79936170578003 65.41725289821625 C 14.850097179412842 65.41805005073547 14.900665760040283 65.4210615158081 14.952152252197266 65.4210615158081 C 18.670361518859863 65.4210615158081 21.694963455200195 62.396753430366516 21.694963455200195 58.67989695072174 C 21.694963455200195 57.42854464054108 21.3514142036438 56.25602185726166 20.753770351409912 55.25054681301117 C 22.065966606140137 54.449851393699646 23.99358081817627 52.56299138069153 23.99358081817627 49.48890554904938 C 23.99358081817627 47.76528465747833 23.34970760345459 46.14139640331268 22.17928695678711 44.89163839817047 C 23.303561687469482 43.68705236911774 23.99358081817627 42.07148993015289 23.99358081817627 40.297914147377014 C 23.99358081817627 36.58105766773224 20.96914577484131 33.55674958229065 17.25093650817871 33.55674958229065 C 17.25093650817871 33.55674958229065 14.79936170578003 33.55674958229065 14.79936170578003 33.55674958229065 C 14.79936170578003 33.55674958229065 14.79936170578003 8.129001379013062 14.79936170578003 8.129001379013062 C 14.79936170578003 6.7935051918029785 15.87907600402832 5.678288817405701 17.25093650817871 5.678288817405701 C 17.25093650817871 5.678288817405701 19.70159339904785 5.678288817405701 19.70159339904785 5.678288817405701 C 19.70159339904785 5.678288817405701 19.70159339904785 8.129001379013062 19.70159339904785 8.129001379013062 C 19.70159339904785 11.834697723388672 22.699993133544922 14.869280219078064 26.445072174072266 14.869280219078064 C 26.445072174072266 14.869280219078064 40.2368597984314 14.869280219078064 40.2368597984314 14.869280219078064 C 43.944554805755615 14.869280219078064 46.97942066192627 11.872606754302979 46.97942066192627 8.129001379013062 C 46.97942066192627 8.129001379013062 46.97942066192627 5.678288817405701 46.97942066192627 5.678288817405701 C 46.97942066192627 5.678288817405701 49.43099546432495 5.678288817405701 49.43099546432495 5.678288817405701 C 50.782745361328125 5.678288817405701 51.88257026672363 6.777827858924866 51.88257026672363 8.129001379013062 C 51.88257026672363 8.129001379013062 51.88257026672363 19.769819617271423 51.88257026672363 19.769819617271423 C 51.88257026672363 19.769819617271423 40.2368597984314 19.769819617271423 40.2368597984314 19.769819617271423 C 39.05133533477783 19.769819617271423 38.09086608886719 20.730831265449524 38.09086608886719 21.915045619010925 C 38.09086608886719 29.433079600334167 44.2090802192688 35.54927659034729 51.7297797203064 35.54927659034729 C 51.7297797203064 35.54927659034729 51.88257026672363 35.54927659034729 51.88257026672363 35.54927659034729 C 51.88257026672363 35.54927659034729 51.88257026672363 67.8708883523941 51.88257026672363 67.8708883523941 Z M 70.27092504501343 54.23665738105774 C 70.27092504501343 54.23665738105774 65.52156734466553 54.23665738105774 65.52156734466553 54.23665738105774 C 64.33604288101196 54.23665738105774 63.37557363510132 55.197757601737976 63.37557363510132 56.38188338279724 C 63.37557363510132 59.00017511844635 61.24443340301514 61.1306095123291 58.62521457672119 61.1306095123291 C 58.62521457672119 61.1306095123291 56.17455768585205 61.1306095123291 56.17455768585205 61.1306095123291 C 56.17455768585205 61.1306095123291 56.17455768585205 33.40396201610565 56.17455768585205 33.40396201610565 C 56.17455768585205 32.21983623504639 55.213170528411865 31.25873601436615 54.02856397628784 31.25873601436615 C 54.02856397628784 31.25873601436615 51.7297797203064 31.25873601436615 51.7297797203064 31.25873601436615 C 47.31404113769531 31.25873601436615 43.60325860977173 28.18252444267273 42.63102340698242 24.061068773269653 C 42.63102340698242 24.061068773269653 58.62521457672119 24.061068773269653 58.62521457672119 24.061068773269653 C 61.25110912322998 24.061068773269653 63.37557363510132 26.1831773519516 63.37557363510132 28.808997750282288 C 63.37557363510132 28.808997750282288 63.37557363510132 37.99998915195465 63.37557363510132 37.99998915195465 C 63.37557363510132 39.185089230537415 64.33604288101196 40.14521515369415 65.52156734466553 40.14521515369415 C 65.52156734466553 40.14521515369415 70.27092504501343 40.14521515369415 70.27092504501343 40.14521515369415 C 70.27092504501343 40.14521515369415 70.27092504501343 54.23665738105774 70.27092504501343 54.23665738105774 Z M 70.27092504501343 54.23665738105774 C 70.27092504501343 54.23665738105774 70.27092504501343 54.23665738105774 70.27092504501343 54.23665738105774 M 37.93807554244995 61.1306095123291 C 37.93807554244995 61.1306095123291 28.743939876556396 61.1306095123291 28.743939876556396 61.1306095123291 C 27.558331966400146 61.1306095123291 26.597946166992188 62.09073543548584 26.597946166992188 63.2758355140686 C 26.597946166992188 64.46022701263428 27.558331966400146 65.4210615158081 28.743939876556396 65.4210615158081 C 28.743939876556396 65.4210615158081 37.93807554244995 65.4210615158081 37.93807554244995 65.4210615158081 C 39.123600006103516 65.4210615158081 40.08406925201416 64.46022701263428 40.08406925201416 63.2758355140686 C 40.08406925201416 62.09073543548584 39.123600006103516 61.1306095123291 37.93807554244995 61.1306095123291 C 37.93807554244995 61.1306095123291 37.93807554244995 61.1306095123291 37.93807554244995 61.1306095123291 Z M 37.93807554244995 61.1306095123291 C 37.93807554244995 61.1306095123291 37.93807554244995 61.1306095123291 37.93807554244995 61.1306095123291 M 104.25718355178833 23.44318699836731 C 104.25718355178833 23.44318699836731 100.12549686431885 23.44318699836731 100.12549686431885 23.44318699836731 C 99.9334864616394 23.18003809452057 99.83810710906982 22.832656741142273 99.83810710906982 22.401485800743103 C 99.83810710906982 21.970580577850342 99.9514274597168 21.635599374771118 100.17931985855103 21.396010756492615 C 100.40662813186646 21.157042145729065 100.70035982131958 21.0368492603302 101.05959701538086 21.0368492603302 C 101.34698677062988 21.0368492603302 101.68219137191772 21.108681559562683 102.06554460525513 21.25234615802765 C 102.06554460525513 21.25234615802765 102.96384620666504 18.5227187871933 102.96384620666504 18.5227187871933 C 102.17335748672485 18.28375017642975 101.43076705932617 18.16364586353302 100.73632526397705 18.16364586353302 C 99.49046897888184 18.16364586353302 98.50246238708496 18.511027216911316 97.77222204208374 19.205169916152954 C 97.04123067855835 19.89984405040741 96.67631912231445 20.833486795425415 96.67631912231445 22.006452441215515 C 96.67631912231445 22.485629677772522 96.79598140716553 22.96454119682312 97.0357232093811 23.44318699836731 C 97.0357232093811 23.44318699836731 95.27516889572144 23.44318699836731 95.27516889572144 23.44318699836731 C 95.27516889572144 23.44318699836731 94.62845849990845 26.4961040019989 94.62845849990845 26.4961040019989 C 94.62845849990845 26.4961040019989 104.25718355178833 26.4961040019989 104.25718355178833 26.4961040019989 C 104.25718355178833 26.4961040019989 104.25718355178833 23.44318699836731 104.25718355178833 23.44318699836731 Z M 121.6462664604187 34.6129766702652 C 121.6462664604187 34.6129766702652 118.05372762680054 34.6129766702652 118.05372762680054 34.6129766702652 C 118.05372762680054 34.6129766702652 118.0533938407898 34.6129766702652 118.0533938407898 34.6129766702652 C 118.0533938407898 34.6129766702652 117.33525323867798 34.6129766702652 117.33525323867798 34.6129766702652 C 116.42443466186523 34.6129766702652 115.73625135421753 34.35593926906586 115.26920127868652 33.84080159664154 C 114.8022346496582 33.32628393173218 114.56858444213867 32.44631612300873 114.56858444213867 31.20089817047119 C 114.56858444213867 31.20089817047119 114.56858444213867 13.925451636314392 114.56858444213867 13.925451636314392 C 114.56858444213867 12.53707766532898 113.44264078140259 11.411498308181763 112.05367374420166 11.411498308181763 C 112.05367374420166 11.411498308181763 112.05367374420166 11.411498308181763 112.05367374420166 11.411498308181763 C 110.66479015350342 11.411498308181763 109.53884649276733 12.53707766532898 109.53884649276733 13.925451636314392 C 109.53884649276733 13.925451636314392 109.53884649276733 31.991230607032776 109.53884649276733 31.991230607032776 C 109.53884649276733 32.30265152454376 109.56237840652466 32.74533689022064 109.61069393157959 33.31990671157837 C 108.07744789123535 34.18207144737244 106.05361986160278 34.6129766702652 103.53870916366577 34.6129766702652 C 103.53870916366577 34.6129766702652 95.09559202194214 34.6129766702652 95.09559202194214 34.6129766702652 C 91.57456684112549 34.6129766702652 89.81401252746582 32.996705651283264 89.81401252746582 29.764252185821533 C 89.81401252746582 29.764252185821533 89.81401252746582 29.36930739879608 89.81401252746582 29.36930739879608 C 89.81401252746582 27.980844855308533 88.68806886672974 26.855265498161316 87.29910182952881 26.855265498161316 C 87.29910182952881 26.855265498161316 87.29910182952881 26.855265498161316 87.29910182952881 26.855265498161316 C 85.91013479232788 26.855265498161316 84.7841911315918 27.980844855308533 84.7841911315918 29.36930739879608 C 84.7841911315918 29.36930739879608 84.7841911315918 30.55449604988098 84.7841911315918 30.55449604988098 C 84.7841911315918 32.94905364513397 85.49039888381958 34.942466378211975 86.90389919281006 36.534645676612854 C 88.31689882278442 38.127002120018005 90.54441976547241 38.9227374792099 93.58654546737671 38.9227374792099 C 93.58654546737671 38.9227374792099 104.29306554794312 38.9227374792099 104.29306554794312 38.9227374792099 C 106.71209621429443 38.9227374792099 108.91575145721436 38.192811489105225 110.90386438369751 36.731985211372375 C 112.02955770492554 38.192811489105225 113.67053318023682 38.9227374792099 115.82620668411255 38.9227374792099 C 115.82620668411255 38.9227374792099 118.0533938407898 38.9227374792099 118.0533938407898 38.9227374792099 C 118.0533938407898 38.9227374792099 118.05372762680054 38.9227374792099 118.05372762680054 38.9227374792099 C 118.05372762680054 38.9227374792099 124.31688833236694 38.9227374792099 124.31688833236694 38.9227374792099 C 125.60012865066528 38.9227374792099 126.64037275314331 37.882896304130554 126.64037275314331 36.60010075569153 C 126.64037275314331 36.60010075569153 126.64037275314331 13.907737135887146 126.64037275314331 13.907737135887146 C 126.64037275314331 12.529106140136719 125.52235651016235 11.411498308181763 124.143319606781 11.411498308181763 C 124.143319606781 11.411498308181763 124.143319606781 11.411498308181763 124.143319606781 11.411498308181763 C 122.76419925689697 11.411498308181763 121.6462664604187 12.529106140136719 121.6462664604187 13.907737135887146 C 121.6462664604187 13.907737135887146 121.6462664604187 34.6129766702652 121.6462664604187 34.6129766702652 Z M 134.28624200820923 38.9227374792099 C 134.28624200820923 38.9227374792099 134.28624200820923 38.9227374792099 134.28624200820923 38.9227374792099 C 135.67520904541016 38.9227374792099 136.80123615264893 37.79715812206268 136.80123615264893 36.408607006073 C 136.80123615264893 36.408607006073 136.80123615264893 13.925628781318665 136.80123615264893 13.925628781318665 C 136.80123615264893 12.537166237831116 135.67520904541016 11.411498308181763 134.28624200820923 11.411498308181763 C 134.28624200820923 11.411498308181763 134.28624200820923 11.411498308181763 134.28624200820923 11.411498308181763 C 132.89719152450562 11.411498308181763 131.77116441726685 12.537166237831116 131.77116441726685 13.925628781318665 C 131.77116441726685 13.925628781318665 131.77116441726685 36.408607006073 131.77116441726685 36.408607006073 C 131.77116441726685 37.79715812206268 132.89719152450562 38.9227374792099 134.28624200820923 38.9227374792099 Z M 182.39390182495117 33.98960340023041 C 181.52146863937378 33.532214999198914 180.9105567932129 32.842058062553406 180.5611662864685 31.919398307800293 C 180.5611662864685 31.919398307800293 178.62103509902954 26.962969660758972 178.62103509902954 26.962969660758972 C 177.87811088562012 25.047677874565125 176.6627960205078 23.53273379802704 174.9741725921631 22.419554591178894 C 173.28546571731567 21.306021094322205 171.30336093902588 20.74925434589386 169.02819204330444 20.74925434589386 C 167.46891069412231 20.74925434589386 165.9758858680725 20.982908606529236 164.54886722564697 21.449508547782898 C 163.30960321426392 21.854727745056152 162.67941522598267 23.228132963180542 163.21180391311646 24.417927384376526 C 163.2485203742981 24.49985694885254 163.28523683547974 24.581963658332825 163.321786403656 24.66362750530243 C 163.75979709625244 25.64226508140564 164.8385100364685 26.129768133163452 165.88042306900024 25.8753879070282 C 166.63744974136353 25.690537095069885 167.43519830703735 25.59806740283966 168.27350187301636 25.59806740283966 C 169.63893699645996 25.59806740283966 170.81227827072144 25.91577696800232 171.794527053833 26.549778938293457 C 172.77652549743652 27.184755206108093 173.50676584243774 28.08854901790619 173.98608255386353 29.261426091194153 C 173.98608255386353 29.261426091194153 175.63882398605347 33.248074412345886 175.63882398605347 33.248074412345886 C 174.2016248703003 33.799083948135376 172.75841760635376 34.16391408443451 171.30945253372192 34.34345054626465 C 169.86015367507935 34.52298700809479 168.22518634796143 34.6129766702652 166.40521812438965 34.6129766702652 C 166.40521812438965 34.6129766702652 160.40591526031494 34.6129766702652 160.40591526031494 34.6129766702652 C 160.40591526031494 34.6129766702652 160.40533113479614 34.6129766702652 160.40533113479614 34.6129766702652 C 160.40533113479614 34.6129766702652 158.21435976028442 34.6129766702652 158.21435976028442 34.6129766702652 C 158.21435976028442 34.6129766702652 158.21435976028442 23.75708794593811 158.21435976028442 23.75708794593811 C 158.21435976028442 22.43230903148651 157.22927379608154 21.310538291931152 155.91499137878418 21.14047908782959 C 153.9005093574524 20.879810214042664 152.2838168144226 20.74925434589386 151.06457996368408 20.74925434589386 C 149.12444877624512 20.74925434589386 147.41771745681763 21.144641995429993 145.94488668441772 21.934620141983032 C 144.47172212600708 22.724952578544617 143.32758712768555 23.82032871246338 142.51348304748535 25.220837116241455 C 141.6990451812744 26.62161123752594 141.2921600341797 28.184207320213318 141.2921600341797 29.908182501792908 C 141.2921600341797 31.703635692596436 141.669171333313 33.28394627571106 142.42386150360107 34.64893710613251 C 143.17821788787842 36.01375079154968 144.22029781341553 37.06749784946442 145.54976749420166 37.809558272361755 C 145.54976749420166 37.809558272361755 148.1094889640808 38.132847905159 148.1094889640808 38.132847905159 C 149.66801929473877 38.3296560049057 151.1724762916565 37.48618006706238 151.81710052490234 36.054139852523804 C 151.81710052490234 36.054139852523804 151.81710052490234 36.054139852523804 151.81710052490234 36.054139852523804 C 152.1193437576294 35.382583141326904 151.63326787948608 34.61173665523529 150.89668560028076 34.6129766702652 C 149.4772605895996 34.61527955532074 148.38995265960693 34.202088832855225 147.63351011276245 33.37393593788147 C 146.87881994247437 32.54773163795471 146.50180864334106 31.41639506816864 146.50180864334106 29.98001480102539 C 146.50180864334106 26.69982075691223 147.9622893333435 25.059369444847107 150.8849196434021 25.059369444847107 C 151.57927799224854 25.059369444847107 152.34573411941528 25.143601894378662 153.18428802490234 25.31073820590973 C 153.18428802490234 25.31073820590973 153.18428802490234 37.7018541097641 153.18428802490234 37.7018541097641 C 153.18428802490234 38.874465465545654 152.95639562606812 39.80270528793335 152.50177907943726 40.48533356189728 C 152.04624462127686 41.16760754585266 151.38184356689453 41.682125210762024 150.50765800476074 42.029417991638184 C 150.28185176849365 42.11905336380005 150.0356845855713 42.20346295833588 149.76923990249634 42.28264677524567 C 148.53089380264282 42.65084266662598 147.7359824180603 43.92283236980438 148.05566596984863 45.174184679985046 C 148.39212226867676 46.490992069244385 149.71766996383667 47.239341139793396 150.98088312149048 46.90985143184662 C 152.83940362930298 46.42509412765503 154.34636402130127 45.726168513298035 155.50176429748535 44.81289744377136 C 157.04677629470825 43.59201407432556 157.9269700050354 41.62836170196533 158.14251232147217 38.9227374792099 C 158.14251232147217 38.9227374792099 160.40533113479614 38.9227374792099 160.40533113479614 38.9227374792099 C 160.40533113479614 38.9227374792099 160.40591526031494 38.9227374792099 160.40591526031494 38.9227374792099 C 160.40591526031494 38.9227374792099 166.40521812438965 38.9227374792099 166.40521812438965 38.9227374792099 C 168.22518634796143 38.9227374792099 170.11166143417358 38.701306223869324 172.06414270401 38.2582665681839 C 174.01603984832764 37.81558120250702 175.77016878128052 37.17529058456421 177.32753086090088 36.33695185184479 C 178.04600524902344 37.103458285331726 178.92019081115723 37.72603440284729 179.95017099380493 38.20459163188934 C 180.10922002792358 38.27846109867096 180.26576566696167 38.34675049781799 180.4197244644165 38.40928268432617 C 181.88955116271973 39.006261348724365 183.61439037322998 38.01274359226227 183.73655605316162 36.256173729896545 C 183.80289602279663 35.302425026893616 183.24096727371216 34.43370592594147 182.39390182495117 33.98960340023041 Z M 171.05919647216797 44.858423709869385 C 171.05919647216797 44.858423709869385 171.70607376098633 44.858423709869385 171.70607376098633 44.858423709869385 C 172.9561858177185 44.858423709869385 173.9695601463318 43.84542000293732 173.9695601463318 42.59583914279938 C 173.9695601463318 42.59583914279938 173.9695601463318 42.59583914279938 173.9695601463318 42.59583914279938 C 173.9695601463318 41.3461697101593 172.9561858177185 40.333166003227234 171.70607376098633 40.333166003227234 C 171.70607376098633 40.333166003227234 171.05919647216797 40.333166003227234 171.05919647216797 40.333166003227234 C 169.8090844154358 40.333166003227234 168.7957935333252 41.3461697101593 168.7957935333252 42.59583914279938 C 168.7957935333252 42.59583914279938 168.7957935333252 42.59583914279938 168.7957935333252 42.59583914279938 C 168.7957935333252 43.84542000293732 169.8090844154358 44.858423709869385 171.05919647216797 44.858423709869385 Z M 85.23713874816895 61.22458493709564 C 85.23713874816895 61.22458493709564 85.23713874816895 61.22458493709564 85.23713874816895 61.22458493709564 C 85.86156892776489 60.484827399253845 86.94328594207764 60.3326598405838 87.74704265594482 60.87242066860199 C 88.24838924407959 61.20917332172394 88.77610492706299 61.381269693374634 89.34512662887573 61.381269693374634 C 90.66892194747925 61.381269693374634 91.38873147964478 60.568705558776855 91.38873147964478 59.01337242126465 C 91.38873147964478 59.01337242126465 91.38873147964478 52.02588772773743 91.38873147964478 52.02588772773743 C 91.38873147964478 52.02588772773743 87.54535245895386 52.02588772773743 87.54535245895386 52.02588772773743 C 86.56435537338257 52.02588772773743 85.76902675628662 51.23086094856262 85.76902675628662 50.25009763240814 C 85.76902675628662 50.25009763240814 85.76902675628662 50.25009763240814 85.76902675628662 50.25009763240814 C 85.76902675628662 49.2694228887558 86.56435537338257 48.474396109580994 87.54535245895386 48.474396109580994 C 87.54535245895386 48.474396109580994 94.23651027679443 48.474396109580994 94.23651027679443 48.474396109580994 C 95.17745304107666 48.474396109580994 95.94023752212524 49.2369167804718 95.94023752212524 50.17755675315857 C 95.94023752212524 50.17755675315857 95.94023752212524 58.73472332954407 95.94023752212524 58.73472332954407 C 95.94023752212524 62.95963168144226 93.75744390487671 65.04887986183167 89.67031764984131 65.04887986183167 C 88.17495632171631 65.04887986183167 86.81836652755737 64.7157586812973 85.70585775375366 64.07883381843567 C 84.69131517410278 63.49797534942627 84.48319959640503 62.117838621139526 85.23713874816895 61.22458493709564 Z M 110.63908863067627 57.736422657966614 C 110.63908863067627 57.736422657966614 110.63908863067627 63.099133372306824 110.63908863067627 63.099133372306824 C 110.63908863067627 63.99654996395111 109.91135168075562 64.72399592399597 109.0136342048645 64.72399592399597 C 109.0136342048645 64.72399592399597 108.153968334198 64.72399592399597 108.153968334198 64.72399592399597 C 107.25625085830688 64.72399592399597 106.52851390838623 63.99654996395111 106.52851390838623 63.099133372306824 C 106.52851390838623 63.099133372306824 106.52851390838623 63.099133372306824 106.52851390838623 63.099133372306824 C 105.90149688720703 64.30619943141937 104.64754629135132 64.93311560153961 102.81297492980957 64.93311560153961 C 99.79421424865723 64.93311560153961 98.12211322784424 63.23836934566498 98.12211322784424 61.05612003803253 C 98.12211322784424 58.73472332954407 99.81732892990112 57.29550874233246 103.7187032699585 57.29550874233246 C 103.7187032699585 57.29550874233246 106.22668790817261 57.29550874233246 106.22668790817261 57.29550874233246 C 106.15701007843018 56.01891326904297 105.29784488677979 55.29899597167969 103.55606603622437 55.29899597167969 C 102.85177755355835 55.29899597167969 102.09992456436157 55.44115483760834 101.42517614364624 55.693320751190186 C 100.65179395675659 55.982332825660706 99.78503513336182 55.67011475563049 99.41812086105347 54.93080008029938 C 99.41812086105347 54.93080008029938 99.35595321655273 54.80555856227875 99.35595321655273 54.80555856227875 C 98.93822002410889 53.96367692947388 99.34243488311768 52.94447314739227 100.22454786300659 52.61950063705444 C 101.44695568084717 52.16919803619385 102.8642110824585 51.93315231800079 104.20636463165283 51.93315231800079 C 108.29349088668823 51.93315231800079 110.63908863067627 53.74375140666962 110.63908863067627 57.736422657966614 Z M 106.22668790817261 60.684824109077454 C 106.22668790817261 60.684824109077454 106.22668790817261 59.59378802776337 106.22668790817261 59.59378802776337 C 106.22668790817261 59.59378802776337 104.32243871688843 59.59378802776337 104.32243871688843 59.59378802776337 C 102.90585088729858 59.59378802776337 102.39499139785767 60.1043199300766 102.39499139785767 60.87047207355499 C 102.39499139785767 61.613418221473694 102.99889373779297 62.14733326435089 104.04389429092407 62.14733326435089 C 105.01905012130737 62.14733326435089 105.87829875946045 61.68303620815277 106.22668790817261 60.684824109077454 Z M 133.17949104309082 54.57385289669037 C 133.17949104309082 54.57385289669037 130.27713823318481 62.72181451320648 130.27713823318481 62.72181451320648 C 129.84955835342407 63.92232620716095 128.71268320083618 64.72399592399597 127.43795442581177 64.72399592399597 C 127.43795442581177 64.72399592399597 127.43795442581177 64.72399592399597 127.43795442581177 64.72399592399597 C 126.15304517745972 64.72399592399597 125.0094108581543 63.90966033935547 124.58950805664062 62.69577419757843 C 124.58950805664062 62.69577419757843 122.92241382598877 57.87592434883118 122.92241382598877 57.87592434883118 C 122.92241382598877 57.87592434883118 121.18230390548706 62.7172087430954 121.18230390548706 62.7172087430954 C 120.74955034255981 63.92108619213104 119.6075849533081 64.72399592399597 118.32776594161987 64.72399592399597 C 118.32776594161987 64.72399592399597 118.32776594161987 64.72399592399597 118.32776594161987 64.72399592399597 C 117.04485940933228 64.72399592399597 115.90072441101074 63.91718900203705 115.47030735015869 62.70897150039673 C 115.47030735015869 62.70897150039673 112.63738203048706 54.75569224357605 112.63738203048706 54.75569224357605 C 112.18351650238037 53.4813996553421 113.12871503829956 52.142006278038025 114.4818000793457 52.142006278038025 C 114.4818000793457 52.142006278038025 114.4818000793457 52.142006278038025 114.4818000793457 52.142006278038025 C 115.3212718963623 52.142006278038025 116.06736707687378 52.67689561843872 116.33639860153198 53.47183382511139 C 116.33639860153198 53.47183382511139 118.46378374099731 59.75614142417908 118.46378374099731 59.75614142417908 C 118.46378374099731 59.75614142417908 120.51556634902954 53.90610480308533 120.51556634902954 53.90610480308533 C 120.88623571395874 52.84934628009796 121.8841724395752 52.142006278038025 123.00435829162598 52.142006278038025 C 123.00435829162598 52.142006278038025 123.00435829162598 52.142006278038025 123.00435829162598 52.142006278038025 C 124.13522529602051 52.142006278038025 125.14017152786255 52.86254358291626 125.50257968902588 53.933385133743286 C 125.50257968902588 53.933385133743286 127.49711799621582 59.82602512836456 127.49711799621582 59.82602512836456 C 127.49711799621582 59.82602512836456 129.74249649047852 53.36536967754364 129.74249649047852 53.36536967754364 C 129.99709177017212 52.63296365737915 130.6876950263977 52.142006278038025 131.46333026885986 52.142006278038025 C 131.46333026885986 52.142006278038025 131.46333026885986 52.142006278038025 131.46333026885986 52.142006278038025 C 132.7223711013794 52.142006278038025 133.60181379318237 53.38822138309479 133.17949104309082 54.57385289669037 Z M 146.74672412872314 57.736422657966614 C 146.74672412872314 57.736422657966614 146.74672412872314 63.099133372306824 146.74672412872314 63.099133372306824 C 146.74672412872314 63.99654996395111 146.0189871788025 64.72399592399597 145.12126970291138 64.72399592399597 C 145.12126970291138 64.72399592399597 144.26185417175293 64.72399592399597 144.26185417175293 64.72399592399597 C 143.36413669586182 64.72399592399597 142.63648319244385 63.99654996395111 142.63648319244385 63.099133372306824 C 142.63648319244385 63.099133372306824 142.63648319244385 63.099133372306824 142.63648319244385 63.099133372306824 C 142.00963306427002 64.30619943141937 140.75534868240356 64.93311560153961 138.92111110687256 64.93311560153961 C 135.90218353271484 64.93311560153961 134.23016595840454 63.23836934566498 134.23016595840454 61.05612003803253 C 134.23016595840454 58.73472332954407 135.92521476745605 57.29550874233246 139.8266725540161 57.29550874233246 C 139.8266725540161 57.29550874233246 142.33457374572754 57.29550874233246 142.33457374572754 57.29550874233246 C 142.2649793624878 56.01891326904297 141.40556383132935 55.29899597167969 139.66403532028198 55.29899597167969 C 138.95966339111328 55.29899597167969 138.2078938484192 55.44115483760834 137.53314542770386 55.693320751190186 C 136.7598466873169 55.982332825660706 135.8931713104248 55.67011475563049 135.52625703811646 54.930888652801514 C 135.52625703811646 54.930888652801514 135.46400594711304 54.805381417274475 135.46400594711304 54.805381417274475 C 135.0461893081665 53.96358835697174 135.45048761367798 52.94447314739227 136.3325171470642 52.61950063705444 C 137.5548415184021 52.16919803619385 138.9721803665161 51.93315231800079 140.31425046920776 51.93315231800079 C 144.40146017074585 51.93315231800079 146.74672412872314 53.74375140666962 146.74672412872314 57.736422657966614 Z M 142.33457374572754 60.684824109077454 C 142.33457374572754 60.684824109077454 142.33457374572754 59.59378802776337 142.33457374572754 59.59378802776337 C 142.33457374572754 59.59378802776337 140.43040800094604 59.59378802776337 140.43040800094604 59.59378802776337 C 139.0138201713562 59.59378802776337 138.50312757492065 60.1043199300766 138.50312757492065 60.87047207355499 C 138.50312757492065 61.613418221473694 139.1068630218506 62.14733326435089 140.15161323547363 62.14733326435089 C 141.12710285186768 62.14733326435089 141.98618459701538 61.68303620815277 142.33457374572754 60.684824109077454 Z M 161.32908391952515 57.736422657966614 C 161.32908391952515 57.736422657966614 161.32908391952515 63.099133372306824 161.32908391952515 63.099133372306824 C 161.32908391952515 63.99654996395111 160.6013469696045 64.72399592399597 159.70362949371338 64.72399592399597 C 159.70362949371338 64.72399592399597 158.84429740905762 64.72399592399597 158.84429740905762 64.72399592399597 C 157.9465799331665 64.72399592399597 157.21884298324585 63.99654996395111 157.21884298324585 63.099133372306824 C 157.21884298324585 63.099133372306824 157.21884298324585 63.099133372306824 157.21884298324585 63.099133372306824 C 156.59199285507202 64.30619943141937 155.33770847320557 64.93311560153961 153.50347089767456 64.93311560153961 C 150.48454332351685 64.93311560153961 148.81260919570923 63.23836934566498 148.81260919570923 61.05612003803253 C 148.81260919570923 58.73472332954407 150.50765800476074 57.29550874233246 154.40903234481812 57.29550874233246 C 154.40903234481812 57.29550874233246 156.91701698303223 57.29550874233246 156.91701698303223 57.29550874233246 C 156.84742259979248 56.01891326904297 155.98800706863403 55.29899597167969 154.24647855758667 55.29899597167969 C 153.54210662841797 55.29899597167969 152.7902536392212 55.44115483760834 152.11550521850586 55.693320751190186 C 151.3422064781189 55.982332825660706 150.4755311012268 55.67011475563049 150.10870027542114 54.930888652801514 C 150.10870027542114 54.930888652801514 150.04636573791504 54.805381417274475 150.04636573791504 54.805381417274475 C 149.6286325454712 53.96358835697174 150.03284740447998 52.94447314739227 150.9148769378662 52.61950063705444 C 152.1372013092041 52.16919803619385 153.55454015731812 51.93315231800079 154.89669370651245 51.93315231800079 C 158.98381996154785 51.93315231800079 161.32908391952515 53.74375140666962 161.32908391952515 57.736422657966614 Z M 156.91701698303223 60.684824109077454 C 156.91701698303223 60.684824109077454 156.91701698303223 59.59378802776337 156.91701698303223 59.59378802776337 C 156.91701698303223 59.59378802776337 155.01276779174805 59.59378802776337 155.01276779174805 59.59378802776337 C 153.5961799621582 59.59378802776337 153.08548736572266 60.1043199300766 153.08548736572266 60.87047207355499 C 153.08548736572266 61.613418221473694 153.6892228126526 62.14733326435089 154.73405647277832 62.14733326435089 C 155.70954608917236 62.14733326435089 156.56862783432007 61.68303620815277 156.91701698303223 60.684824109077454 Z M 166.32093715667725 47.499212861061096 C 166.32093715667725 47.499212861061096 166.32093715667725 47.499212861061096 166.32093715667725 47.499212861061096 C 167.53925609588623 47.499212861061096 168.52701234817505 48.48653054237366 168.52701234817505 49.70449101924896 C 168.52701234817505 49.70449101924896 168.52701234817505 62.518717765808105 168.52701234817505 62.518717765808105 C 168.52701234817505 63.73667824268341 167.53925609588623 64.72399592399597 166.32093715667725 64.72399592399597 C 166.32093715667725 64.72399592399597 166.32093715667725 64.72399592399597 166.32093715667725 64.72399592399597 C 165.10253477096558 64.72399592399597 164.11486196517944 63.73667824268341 164.11486196517944 62.518717765808105 C 164.11486196517944 62.518717765808105 164.11486196517944 49.70449101924896 164.11486196517944 49.70449101924896 C 164.11486196517944 48.48653054237366 165.10253477096558 47.499212861061096 166.32093715667725 47.499212861061096 Z M 177.09521579742432 60.31343960762024 C 177.09521579742432 60.31343960762024 175.79478549957275 61.63653564453125 175.79478549957275 61.63653564453125 C 175.79478549957275 61.63653564453125 175.79478549957275 62.518717765808105 175.79478549957275 62.518717765808105 C 175.79478549957275 63.73667824268341 174.80702924728394 64.72399592399597 173.58871030807495 64.72399592399597 C 173.58871030807495 64.72399592399597 173.58871030807495 64.72399592399597 173.58871030807495 64.72399592399597 C 172.37030792236328 64.72399592399597 171.38263511657715 63.73667824268341 171.38263511657715 62.518717765808105 C 171.38263511657715 62.518717765808105 171.38263511657715 49.70449101924896 171.38263511657715 49.70449101924896 C 171.38263511657715 48.48653054237366 172.37030792236328 47.499212861061096 173.58871030807495 47.499212861061096 C 173.58871030807495 47.499212861061096 173.58871030807495 47.499212861061096 173.58871030807495 47.499212861061096 C 174.80702924728394 47.499212861061096 175.79478549957275 48.48653054237366 175.79478549957275 49.70449101924896 C 175.79478549957275 49.70449101924896 175.79478549957275 56.5294451713562 175.79478549957275 56.5294451713562 C 175.79478549957275 56.5294451713562 179.75048351287842 52.67707276344299 179.75048351287842 52.67707276344299 C 180.1027946472168 52.333942890167236 180.575101852417 52.142006278038025 181.0670189857483 52.142006278038025 C 181.0670189857483 52.142006278038025 181.0670189857483 52.142006278038025 181.0670189857483 52.142006278038025 C 182.73394632339478 52.142006278038025 183.58184623718262 54.14480769634247 182.42135572433472 55.34097933769226 C 182.42135572433472 55.34097933769226 180.29989528656006 57.527745842933655 180.29989528656006 57.527745842933655 C 180.29989528656006 57.527745842933655 183.28761386871338 61.322280406951904 183.28761386871338 61.322280406951904 C 184.37316942214966 62.701088547706604 183.39067029953003 64.72399592399597 181.63545656204224 64.72399592399597 C 181.63545656204224 64.72399592399597 181.63537311553955 64.72399592399597 181.63537311553955 64.72399592399597 C 180.99667358398438 64.72399592399597 180.3926043510437 64.43374383449554 179.99356317520142 63.9351692199707 C 179.99356317520142 63.9351692199707 177.09521579742432 60.31343960762024 177.09521579742432 60.31343960762024 Z"/></g></svg>