<svg version="1.1" xmlns="http://www.w3.org/2000/svg" xmlns:xlink="http://www.w3.org/1999/xlink" width="140" height="58"><defs/><g><path fill="rgb(255,255,255)" stroke="none" paint-order="stroke fill markers" fill-rule="evenodd" d=" M 54.445427894592285 27.3907470703125 C 54.445427894592285 27.3907470703125 50.883347034454346 27.3907470703125 50.883347034454346 27.3907470703125 C 50.883347034454346 27.3907470703125 50.883347034454346 22.106497287750244 50.883347034454346 22.106497287750244 C 50.883347034454346 18.362406492233276 47.85257005691528 15.327115654945374 44.101566314697266 15.327115654945374 C 44.101566314697266 15.327115654945374 42.26357364654541 15.327115654945374 42.26357364654541 15.327115654945374 C 42.26357364654541 15.327115654945374 42.26357364654541 6.5966469049453735 42.26357364654541 6.5966469049453735 C 42.26357364654541 3.808872103691101 39.99466323852539 1.5407299995422363 37.2059645652771 1.5407299995422363 C 37.2059645652771 1.5407299995422363 13.070899486541748 1.5407299995422363 13.070899486541748 1.5407299995422363 C 10.30014181137085 1.5407299995422363 8.013290405273438 3.77920925617218 8.013290405273438 6.5966469049453735 C 8.013290405273438 6.5966469049453735 8.013290405273438 18.77404510974884 8.013290405273438 18.77404510974884 C 8.013290405273438 18.77404510974884 6.175297737121582 18.77404510974884 6.175297737121582 18.77404510974884 C 3.4005346298217773 18.77404510974884 1.117605209350586 21.015899181365967 1.117605209350586 23.830050826072693 C 1.117605209350586 25.656891465187073 2.092176914215088 27.260106205940247 3.5485687255859375 28.148393034934998 C 3.1003775596618652 28.90310823917389 2.8417768478393555 29.783490896224976 2.8417768478393555 30.723199248313904 C 2.8417768478393555 32.54879653453827 3.8146796226501465 34.151567220687866 5.269819736480713 35.03994286060333 C 4.810446739196777 35.811976194381714 4.565781593322754 36.695289611816406 4.565781593322754 37.61643648147583 C 4.565781593322754 39.553935527801514 5.627471446990967 41.10244274139404 6.995660305023193 41.937798261642456 C 6.5473856925964355 42.691802978515625 6.289118766784668 43.57129752635956 6.289118766784668 44.50985133647919 C 6.289118766784668 46.02194607257843 6.957525253295898 47.380131483078 8.013290405273438 48.30687344074249 C 8.013290405273438 48.30687344074249 8.013290405273438 51.4029997587204 8.013290405273438 51.4029997587204 C 8.013290405273438 54.190863370895386 10.282200813293457 56.45882785320282 13.070899486541748 56.45882785320282 C 13.070899486541748 56.45882785320282 37.2059645652771 56.45882785320282 37.2059645652771 56.45882785320282 C 38.55779790878296 56.45882785320282 39.82751989364624 55.93262314796448 40.78089618682861 54.978349804878235 C 41.737109661102295 54.02425408363342 42.2630729675293 52.75452435016632 42.2630729675293 51.4029997587204 C 42.2630729675293 51.4029997587204 42.2630729675293 49.56567943096161 42.2630729675293 49.56567943096161 C 42.2630729675293 49.56567943096161 44.101566314697266 49.56567943096161 44.101566314697266 49.56567943096161 C 47.28655242919922 49.56567943096161 49.96576929092407 47.359349727630615 50.68991804122925 44.39519643783569 C 50.68991804122925 44.39519643783569 54.445427894592285 44.39519643783569 54.445427894592285 44.39519643783569 C 55.33455038070679 44.39519643783569 56.05494403839111 43.67511749267578 56.05494403839111 42.78620898723602 C 56.05494403839111 42.78620898723602 56.05494403839111 28.999823331832886 56.05494403839111 28.999823331832886 C 56.05494403839111 28.110826015472412 55.33455038070679 27.3907470703125 54.445427894592285 27.3907470703125 C 54.445427894592285 27.3907470703125 54.445427894592285 27.3907470703125 54.445427894592285 27.3907470703125 Z M 18.12792444229126 4.758616089820862 C 18.12792444229126 4.758616089820862 32.1482720375061 4.758616089820862 32.1482720375061 4.758616089820862 C 32.1482720375061 4.758616089820862 32.1482720375061 6.5966469049453735 32.1482720375061 6.5966469049453735 C 32.1482720375061 7.5978124141693115 31.338507175445557 8.433967232704163 30.310279369354248 8.433967232704163 C 30.310279369354248 8.433967232704163 19.966501235961914 8.433967232704163 19.966501235961914 8.433967232704163 C 18.962806701660156 8.433967232704163 18.12792444229126 7.6221466064453125 18.12792444229126 6.5966469049453735 C 18.12792444229126 6.5966469049453735 18.12792444229126 4.758616089820862 18.12792444229126 4.758616089820862 Z M 4.336554050445557 23.830050826072693 C 4.336554050445557 22.828352451324463 5.146903038024902 21.991931200027466 6.175297737121582 21.991931200027466 C 6.175297737121582 21.991931200027466 8.013290405273438 21.991931200027466 8.013290405273438 21.991931200027466 C 8.013290405273438 21.991931200027466 8.013290405273438 25.667282342910767 8.013290405273438 25.667282342910767 C 8.013290405273438 25.667282342910767 6.175297737121582 25.667282342910767 6.175297737121582 25.667282342910767 C 5.161506175994873 25.667282342910767 4.336554050445557 24.842939376831055 4.336554050445557 23.830050826072693 C 4.336554050445557 23.830050826072693 4.336554050445557 23.830050826072693 4.336554050445557 23.830050826072693 Z M 6.060642242431641 30.723199248313904 C 6.060642242431641 29.70977783203125 6.885427474975586 28.885257244110107 7.898634910583496 28.885257244110107 C 7.898634910583496 28.885257244110107 13.070899486541748 28.885257244110107 13.070899486541748 28.885257244110107 C 14.084607601165771 28.885257244110107 14.908892154693604 29.70977783203125 14.908892154693604 30.723199248313904 C 14.908892154693604 31.736620664596558 14.084607601165771 32.56060838699341 13.070899486541748 32.56060838699341 C 13.070899486541748 32.56060838699341 7.898634910583496 32.56060838699341 7.898634910583496 32.56060838699341 C 6.885427474975586 32.56060838699341 6.060642242431641 31.736620664596558 6.060642242431641 30.723199248313904 C 6.060642242431641 30.723199248313904 6.060642242431641 30.723199248313904 6.060642242431641 30.723199248313904 Z M 7.78481388092041 37.61643648147583 C 7.78481388092041 36.6147381067276 8.59507942199707 35.778494477272034 9.62272310256958 35.778494477272034 C 9.62272310256958 35.778494477272034 13.070899486541748 35.778494477272034 13.070899486541748 35.778494477272034 C 14.07509469985962 35.778494477272034 14.908892154693604 36.59022629261017 14.908892154693604 37.61643648147583 C 14.908892154693604 38.62044394016266 14.097541809082031 39.454023241996765 13.070899486541748 39.454023241996765 C 13.070899486541748 39.454023241996765 9.62272310256958 39.454023241996765 9.62272310256958 39.454023241996765 C 8.619112014770508 39.45464491844177 7.78481388092041 38.64282429218292 7.78481388092041 37.61643648147583 C 7.78481388092041 37.61643648147583 7.78481388092041 37.61643648147583 7.78481388092041 37.61643648147583 Z M 9.508151054382324 44.50985133647919 C 9.508151054382324 43.49616348743439 10.33310317993164 42.67244219779968 11.346811294555664 42.67244219779968 C 12.360602855682373 42.67244219779968 13.18555498123169 43.49616348743439 13.18555498123169 44.50985133647919 C 13.18555498123169 45.523006319999695 12.360602855682373 46.34779334068298 11.346811294555664 46.34779334068298 C 10.33310317993164 46.34779334068298 9.508151054382324 45.523006319999695 9.508151054382324 44.50985133647919 C 9.508151054382324 44.50985133647919 9.508151054382324 44.50985133647919 9.508151054382324 44.50985133647919 Z M 39.04462480545044 51.4029997587204 C 39.04462480545044 52.40469813346863 38.234275817871094 53.24103057384491 37.2059645652771 53.24103057384491 C 37.2059645652771 53.24103057384491 13.070899486541748 53.24103057384491 13.070899486541748 53.24103057384491 C 12.057107925415039 53.24103057384491 11.232155799865723 52.41624355316162 11.232155799865723 51.4029997587204 C 11.232155799865723 51.4029997587204 11.232155799865723 49.56265985965729 11.232155799865723 49.56265985965729 C 11.270290851593018 49.56337034702301 11.308175563812256 49.56567943096161 11.346811294555664 49.56567943096161 C 14.135509967803955 49.56567943096161 16.40391969680786 47.29744851589203 16.40391969680786 44.50985133647919 C 16.40391969680786 43.57129752635956 16.146236896514893 42.691802978515625 15.69804573059082 41.937798261642456 C 16.68221378326416 41.337170004844666 18.12792444229126 39.922056794166565 18.12792444229126 37.61643648147583 C 18.12792444229126 36.32379353046417 17.64501953125 35.10584056377411 16.767162322998047 34.16861891746521 C 17.610389232635498 33.26505661010742 18.12792444229126 32.05349802970886 18.12792444229126 30.723199248313904 C 18.12792444229126 27.935602068901062 15.859514713287354 25.667282342910767 13.070899486541748 25.667282342910767 C 13.070899486541748 25.667282342910767 11.232155799865723 25.667282342910767 11.232155799865723 25.667282342910767 C 11.232155799865723 25.667282342910767 11.232155799865723 6.5966469049453735 11.232155799865723 6.5966469049453735 C 11.232155799865723 5.5949485301971436 12.042004108428955 4.758616089820862 13.070899486541748 4.758616089820862 C 13.070899486541748 4.758616089820862 14.908892154693604 4.758616089820862 14.908892154693604 4.758616089820862 C 14.908892154693604 4.758616089820862 14.908892154693604 6.5966469049453735 14.908892154693604 6.5966469049453735 C 14.908892154693604 9.375718235969543 17.157691955566406 11.651764512062073 19.966501235961914 11.651764512062073 C 19.966501235961914 11.651764512062073 30.310279369354248 11.651764512062073 30.310279369354248 11.651764512062073 C 33.0911340713501 11.651764512062073 35.36730432510376 9.40431535243988 35.36730432510376 6.5966469049453735 C 35.36730432510376 6.5966469049453735 35.36730432510376 4.758616089820862 35.36730432510376 4.758616089820862 C 35.36730432510376 4.758616089820862 37.2059645652771 4.758616089820862 37.2059645652771 4.758616089820862 C 38.21975612640381 4.758616089820862 39.04462480545044 5.58322548866272 39.04462480545044 6.5966469049453735 C 39.04462480545044 6.5966469049453735 39.04462480545044 15.327115654945374 39.04462480545044 15.327115654945374 C 39.04462480545044 15.327115654945374 30.310279369354248 15.327115654945374 30.310279369354248 15.327115654945374 C 29.421156883239746 15.327115654945374 28.700846672058105 16.04790508747101 28.700846672058105 16.936103105545044 C 28.700846672058105 22.574530839920044 33.28956985473633 27.161792516708374 38.930052757263184 27.161792516708374 C 38.930052757263184 27.161792516708374 39.04462480545044 27.161792516708374 39.04462480545044 27.161792516708374 C 39.04462480545044 27.161792516708374 39.04462480545044 51.4029997587204 39.04462480545044 51.4029997587204 Z M 52.83591175079346 41.17713272571564 C 52.83591175079346 41.17713272571564 49.27383089065552 41.17713272571564 49.27383089065552 41.17713272571564 C 48.384708404541016 41.17713272571564 47.66431474685669 41.8980997800827 47.66431474685669 42.78620898723602 C 47.66431474685669 44.749996066093445 46.065980434417725 46.34779334068298 44.101566314697266 46.34779334068298 C 44.101566314697266 46.34779334068298 42.26357364654541 46.34779334068298 42.26357364654541 46.34779334068298 C 42.26357364654541 46.34779334068298 42.26357364654541 25.552805066108704 42.26357364654541 25.552805066108704 C 42.26357364654541 24.664607048034668 41.542595863342285 23.94390642642975 40.65405750274658 23.94390642642975 C 40.65405750274658 23.94390642642975 38.930052757263184 23.94390642642975 38.930052757263184 23.94390642642975 C 35.6182279586792 23.94390642642975 32.835203647613525 21.636687517166138 32.10596466064453 18.54553461074829 C 32.10596466064453 18.54553461074829 44.101566314697266 18.54553461074829 44.101566314697266 18.54553461074829 C 46.07107067108154 18.54553461074829 47.66431474685669 20.13720393180847 47.66431474685669 22.106497287750244 C 47.66431474685669 22.106497287750244 47.66431474685669 28.999823331832886 47.66431474685669 28.999823331832886 C 47.66431474685669 29.888554215431213 48.384708404541016 30.608633160591125 49.27383089065552 30.608633160591125 C 49.27383089065552 30.608633160591125 52.83591175079346 30.608633160591125 52.83591175079346 30.608633160591125 C 52.83591175079346 30.608633160591125 52.83591175079346 41.17713272571564 52.83591175079346 41.17713272571564 Z M 52.83591175079346 41.17713272571564 C 52.83591175079346 41.17713272571564 52.83591175079346 41.17713272571564 52.83591175079346 41.17713272571564 M 28.58627462387085 46.34779334068298 C 28.58627462387085 46.34779334068298 21.690672874450684 46.34779334068298 21.690672874450684 46.34779334068298 C 20.801466941833496 46.34779334068298 20.081156730651855 47.067872285842896 20.081156730651855 47.95669198036194 C 20.081156730651855 48.84497880935669 20.801466941833496 49.56567943096161 21.690672874450684 49.56567943096161 C 21.690672874450684 49.56567943096161 28.58627462387085 49.56567943096161 28.58627462387085 49.56567943096161 C 29.47539710998535 49.56567943096161 30.195790767669678 48.84497880935669 30.195790767669678 47.95669198036194 C 30.195790767669678 47.067872285842896 29.47539710998535 46.34779334068298 28.58627462387085 46.34779334068298 C 28.58627462387085 46.34779334068298 28.58627462387085 46.34779334068298 28.58627462387085 46.34779334068298 Z M 28.58627462387085 46.34779334068298 C 28.58627462387085 46.34779334068298 28.58627462387085 46.34779334068298 28.58627462387085 46.34779334068298 M 78.32556390762329 18.082030415534973 C 78.32556390762329 18.082030415534973 75.22677803039551 18.082030415534973 75.22677803039551 18.082030415534973 C 75.08283281326294 17.884870171546936 75.01131916046143 17.624387741088867 75.01131916046143 17.300849556922913 C 75.01131916046143 16.97766661643982 75.09626770019531 16.726420521736145 75.26716613769531 16.54675602912903 C 75.43764734268188 16.36753559112549 75.65802955627441 16.27748131752014 75.92739486694336 16.27748131752014 C 76.14293718338013 16.27748131752014 76.39436149597168 16.331389546394348 76.68191814422607 16.439117193222046 C 76.68191814422607 16.439117193222046 77.3555817604065 14.391936659812927 77.3555817604065 14.391936659812927 C 76.76269435882568 14.212627410888672 76.20577239990234 14.12248432636261 75.68489933013916 14.12248432636261 C 74.75054883956909 14.12248432636261 74.00954389572144 14.383055567741394 73.46188449859619 14.90366518497467 C 72.91364097595215 15.424718856811523 72.63993644714355 16.1249041557312 72.63993644714355 17.004576325416565 C 72.63993644714355 17.36408293247223 72.7297248840332 17.723145484924316 72.90946865081787 18.082030415534973 C 72.90946865081787 18.082030415534973 71.58909463882446 18.082030415534973 71.58909463882446 18.082030415534973 C 71.58909463882446 18.082030415534973 71.10402011871338 20.37184238433838 71.10402011871338 20.37184238433838 C 71.10402011871338 20.37184238433838 78.32556390762329 20.37184238433838 78.32556390762329 20.37184238433838 C 78.32556390762329 20.37184238433838 78.32556390762329 18.082030415534973 78.32556390762329 18.082030415534973 Z M 91.36733436584473 26.459564566612244 C 91.36733436584473 26.459564566612244 88.6729302406311 26.459564566612244 88.6729302406311 26.459564566612244 C 88.6729302406311 26.459564566612244 88.67267990112305 26.459564566612244 88.67267990112305 26.459564566612244 C 88.67267990112305 26.459564566612244 88.13411617279053 26.459564566612244 88.13411617279053 26.459564566612244 C 87.45102310180664 26.459564566612244 86.93482303619385 26.266756057739258 86.5846815109253 25.880428552627563 C 86.23437309265137 25.49445629119873 86.05913543701172 24.834591150283813 86.05913543701172 23.90047788619995 C 86.05913543701172 23.90047788619995 86.05913543701172 10.943852663040161 86.05913543701172 10.943852663040161 C 86.05913543701172 9.902633428573608 85.21465682983398 9.058396816253662 84.1729941368103 9.058396816253662 C 84.1729941368103 9.058396816253662 84.1729941368103 9.058396816253662 84.1729941368103 9.058396816253662 C 83.13124799728394 9.058396816253662 82.2867693901062 9.902633428573608 82.2867693901062 10.943852663040161 C 82.2867693901062 10.943852663040161 82.2867693901062 24.493290781974792 82.2867693901062 24.493290781974792 C 82.2867693901062 24.72695231437683 82.30446004867554 25.058927536010742 82.34075927734375 25.489838123321533 C 81.19086647033691 26.136292815208435 79.67289113998413 26.459564566612244 77.78674983978271 26.459564566612244 C 77.78674983978271 26.459564566612244 71.45441198348999 26.459564566612244 71.45441198348999 26.459564566612244 C 68.81358051300049 26.459564566612244 67.49320650100708 25.24729549884796 67.49320650100708 22.823023796081543 C 67.49320650100708 22.823023796081543 67.49320650100708 22.526750564575195 67.49320650100708 22.526750564575195 C 67.49320650100708 21.485353708267212 66.64872789382935 20.64138352870941 65.60706520080566 20.64138352870941 C 65.60706520080566 20.64138352870941 65.60706520080566 20.64138352870941 65.60706520080566 20.64138352870941 C 64.5653190612793 20.64138352870941 63.72084045410156 21.485353708267212 63.72084045410156 22.526750564575195 C 63.72084045410156 22.526750564575195 63.72084045410156 23.415659070014954 63.72084045410156 23.415659070014954 C 63.72084045410156 25.211504697799683 64.25047540664673 26.706636548042297 65.3106632232666 27.900699377059937 C 66.37043380737305 29.09502863883972 68.0410327911377 29.691838026046753 70.32262706756592 29.691838026046753 C 70.32262706756592 29.691838026046753 78.35251712799072 29.691838026046753 78.35251712799072 29.691838026046753 C 80.1667275428772 29.691838026046753 81.81955242156982 29.144407510757446 83.31057453155518 28.048747181892395 C 84.15488624572754 29.144407510757446 85.38555526733398 29.691838026046753 87.00233125686646 29.691838026046753 C 87.00233125686646 29.691838026046753 88.67267990112305 29.691838026046753 88.67267990112305 29.691838026046753 C 88.67267990112305 29.691838026046753 88.6729302406311 29.691838026046753 88.6729302406311 29.691838026046753 C 88.6729302406311 29.691838026046753 93.37030076980591 29.691838026046753 93.37030076980591 29.691838026046753 C 94.332772731781 29.691838026046753 95.11291408538818 28.911989331245422 95.11291408538818 27.94990062713623 C 95.11291408538818 27.94990062713623 95.11291408538818 10.930531024932861 95.11291408538818 10.930531024932861 C 95.11291408538818 9.896594285964966 94.2745270729065 9.058396816253662 93.24020767211914 9.058396816253662 C 93.24020767211914 9.058396816253662 93.24020767211914 9.058396816253662 93.24020767211914 9.058396816253662 C 92.2058048248291 9.058396816253662 91.36733436584473 9.896594285964966 91.36733436584473 10.930531024932861 C 91.36733436584473 10.930531024932861 91.36733436584473 26.459564566612244 91.36733436584473 26.459564566612244 Z M 100.84744119644165 29.691838026046753 C 100.84744119644165 29.691838026046753 100.84744119644165 29.691838026046753 100.84744119644165 29.691838026046753 C 101.88910388946533 29.691838026046753 102.73358249664307 28.847690224647522 102.73358249664307 27.806115746498108 C 102.73358249664307 27.806115746498108 102.73358249664307 10.944030284881592 102.73358249664307 10.944030284881592 C 102.73358249664307 9.902633428573608 101.88910388946533 9.058396816253662 100.84744119644165 9.058396816253662 C 100.84744119644165 9.058396816253662 100.84744119644165 9.058396816253662 100.84744119644165 9.058396816253662 C 99.8056116104126 9.058396816253662 98.96104955673218 9.902633428573608 98.96104955673218 10.944030284881592 C 98.96104955673218 10.944030284881592 98.96104955673218 27.806115746498108 98.96104955673218 27.806115746498108 C 98.96104955673218 28.847690224647522 99.8056116104126 29.691838026046753 100.84744119644165 29.691838026046753 Z M 136.9281234741211 25.991886258125305 C 136.27373600006104 25.648898482322693 135.81561470031738 25.13148605823517 135.55350923538208 24.439382553100586 C 135.55350923538208 24.439382553100586 134.09853601455688 20.722023844718933 134.09853601455688 20.722023844718933 C 133.5412802696228 19.285507202148438 132.62979412078857 18.149349093437195 131.36332654953003 17.314526438713074 C 130.0967755317688 16.47934854030609 128.61025953292847 16.0617595911026 126.90386199951172 16.0617595911026 C 125.73435926437378 16.0617595911026 124.61467409133911 16.23698353767395 123.54438924789429 16.586987376213074 C 122.61496210098267 16.890809535980225 122.14223766326904 17.92092740535736 122.54152917861938 18.8132107257843 C 122.5691499710083 18.874756693840027 122.59668731689453 18.936302661895752 122.62405776977539 18.99758219718933 C 122.95258665084839 19.731515645980835 123.76160049438477 20.09706139564514 124.54299354553223 19.906384348869324 C 125.11076354980469 19.76775050163269 125.70915842056274 19.698211550712585 126.33784437179565 19.698211550712585 C 127.36189985275269 19.698211550712585 128.24192667007446 19.936668872833252 128.97859239578247 20.41216254234314 C 129.7150912284851 20.888455510139465 130.26275062561035 21.56626045703888 130.62232160568237 22.445932626724243 C 130.62232160568237 22.445932626724243 131.8618359565735 25.435929894447327 131.8618359565735 25.435929894447327 C 130.7838740348816 25.849167108535767 129.70157289505005 26.122793555259705 128.61484909057617 26.257430911064148 C 127.52779150009155 26.392157077789307 126.30162858963013 26.459564566612244 124.93661069869995 26.459564566612244 C 124.93661069869995 26.459564566612244 120.43709182739258 26.459564566612244 120.43709182739258 26.459564566612244 C 120.43709182739258 26.459564566612244 120.43667459487915 26.459564566612244 120.43667459487915 26.459564566612244 C 120.43667459487915 26.459564566612244 118.79352951049805 26.459564566612244 118.79352951049805 26.459564566612244 C 118.79352951049805 26.459564566612244 118.79352951049805 18.31764578819275 118.79352951049805 18.31764578819275 C 118.79344606399536 17.324029207229614 118.05469417572021 16.482723355293274 117.06894063949585 16.355190873146057 C 115.55814170837402 16.15971803665161 114.34558057785034 16.0617595911026 113.43117380142212 16.0617595911026 C 111.97603368759155 16.0617595911026 110.69596433639526 16.35821044445038 109.59138298034668 16.950756907463074 C 108.48655128479004 17.543569803237915 107.62838745117188 18.365070819854736 107.01780939102173 19.415348768234253 C 106.40698099136353 20.46598196029663 106.10181713104248 21.637930870056152 106.10181713104248 22.93092906475067 C 106.10181713104248 24.27756905555725 106.3846173286438 25.462928414344788 106.95063495635986 26.48647427558899 C 107.51640224456787 27.51019775867462 108.29787874221802 28.30034852027893 109.29498100280762 28.856926560401917 C 109.29498100280762 28.856926560401917 111.214834690094 29.099380373954773 111.214834690094 29.099380373954773 C 112.38375329971313 29.24707293510437 113.51203346252441 28.614561557769775 113.99552249908447 27.540393471717834 C 113.99552249908447 27.540393471717834 113.99552249908447 27.540393471717834 113.99552249908447 27.540393471717834 C 114.2222466468811 27.036746740341187 113.85758543014526 26.45867645740509 113.30525302886963 26.459564566612244 C 112.24064254760742 26.46134078502655 111.42520332336426 26.151479482650757 110.85785055160522 25.530335903167725 C 110.29183292388916 24.910524487495422 110.00911617279053 24.06202495098114 110.00911617279053 22.984748482704163 C 110.00911617279053 20.524685978889465 111.10435152053833 19.294477105140686 113.29640769958496 19.294477105140686 C 113.81711387634277 19.294477105140686 114.3919768333435 19.357532858848572 115.02091312408447 19.48293387889862 C 115.02091312408447 19.48293387889862 115.02091312408447 28.776286244392395 115.02091312408447 28.776286244392395 C 115.02091312408447 29.655603170394897 114.85001468658447 30.3518807888031 114.50905227661133 30.863786935806274 C 114.1674222946167 31.375426650047302 113.66907978057861 31.76131010055542 113.01335716247559 32.021881341934204 C 112.8441276550293 32.089022397994995 112.65946054458618 32.15234458446503 112.45968961715698 32.211759090423584 C 111.53084659576416 32.48796105384827 110.93462133407593 33.44187915325165 111.17444658279419 34.38043296337128 C 111.42678880691528 35.36801040172577 112.42097043991089 35.92929542064667 113.36842203140259 35.682223439216614 C 114.76231241226196 35.318631529808044 115.89251184463501 34.794469475746155 116.75902032852173 34.1094708442688 C 117.91775846481323 33.193830251693726 118.57798719406128 31.721078753471375 118.73962306976318 29.691838026046753 C 118.73962306976318 29.691838026046753 120.43667459487915 29.691838026046753 120.43667459487915 29.691838026046753 C 120.43667459487915 29.691838026046753 120.43709182739258 29.691838026046753 120.43709182739258 29.691838026046753 C 120.43709182739258 29.691838026046753 124.93661069869995 29.691838026046753 124.93661069869995 29.691838026046753 C 126.30162858963013 29.691838026046753 127.71646404266357 29.525850415229797 129.18078327178955 29.193519949913025 C 130.64476871490479 28.861544728279114 131.96030282974243 28.381255269050598 133.12838697433472 27.752562761306763 C 133.6672010421753 28.32734704017639 134.32284021377563 28.794314861297607 135.09538793563843 29.15328860282898 C 135.21463298797607 29.20861780643463 135.33195877075195 29.259861707687378 135.44753217697144 29.306753873825073 C 136.5498604774475 29.754627346992493 137.84353160858154 29.00941491127014 137.9350724220276 27.691993713378906 C 137.98488998413086 26.976710557937622 137.56340169906616 26.32510483264923 136.9281234741211 25.991886258125305 Z M 128.4270944595337 34.1436630487442 C 128.4270944595337 34.1436630487442 128.91225242614746 34.1436630487442 128.91225242614746 34.1436630487442 C 129.84977388381958 34.1436630487442 130.60980463027954 33.38379681110382 130.60980463027954 32.44675278663635 C 130.60980463027954 32.44675278663635 130.60980463027954 32.44675278663635 130.60980463027954 32.44675278663635 C 130.60980463027954 31.50944232940674 129.84977388381958 30.749753713607788 128.91225242614746 30.749753713607788 C 128.91225242614746 30.749753713607788 128.4270944595337 30.749753713607788 128.4270944595337 30.749753713607788 C 127.48957300186157 30.749753713607788 126.72954225540161 31.50944232940674 126.72954225540161 32.44675278663635 C 126.72954225540161 32.44675278663635 126.72954225540161 32.44675278663635 126.72954225540161 32.44675278663635 C 126.72954225540161 33.38379681110382 127.48957300186157 34.1436630487442 128.4270944595337 34.1436630487442 Z M 64.06055116653442 46.418131589889526 C 64.06055116653442 46.418131589889526 64.06055116653442 46.418131589889526 64.06055116653442 46.418131589889526 C 64.5289363861084 45.86332976818085 65.3401198387146 45.749385356903076 65.94302082061768 46.15418553352356 C 66.31903076171875 46.406763792037964 66.7148175239563 46.53580605983734 67.14156293869019 46.53580605983734 C 68.13440942764282 46.53580605983734 68.67422485351562 45.92629671096802 68.67422485351562 44.75994288921356 C 68.67422485351562 44.75994288921356 68.67422485351562 39.5191216468811 68.67422485351562 39.5191216468811 C 68.67422485351562 39.5191216468811 65.79173231124878 39.5191216468811 65.79173231124878 39.5191216468811 C 65.05598449707031 39.5191216468811 64.45942544937134 38.922845125198364 64.45942544937134 38.187313079833984 C 64.45942544937134 38.187313079833984 64.45942544937134 38.187313079833984 64.45942544937134 38.187313079833984 C 64.45942544937134 37.451781034469604 65.05598449707031 36.855504512786865 65.79173231124878 36.855504512786865 C 65.79173231124878 36.855504512786865 70.8100380897522 36.855504512786865 70.8100380897522 36.855504512786865 C 71.51574516296387 36.855504512786865 72.08793783187866 37.42753565311432 72.08793783187866 38.1329607963562 C 72.08793783187866 38.1329607963562 72.08793783187866 44.55088198184967 72.08793783187866 44.55088198184967 C 72.08793783187866 47.719566822052 70.45071744918823 49.28636908531189 67.38539361953735 49.28636908531189 C 66.2638726234436 49.28636908531189 65.24649286270142 49.03672158718109 64.41211128234863 48.558918833732605 C 63.65116262435913 48.123212456703186 63.49511766433716 47.08812117576599 64.06055116653442 46.418131589889526 Z M 83.11205530166626 43.802117109298706 C 83.11205530166626 43.802117109298706 83.11205530166626 47.82409727573395 83.11205530166626 47.82409727573395 C 83.11205530166626 48.49719524383545 82.56614828109741 49.042938351631165 81.8929853439331 49.042938351631165 C 81.8929853439331 49.042938351631165 81.2481107711792 49.042938351631165 81.2481107711792 49.042938351631165 C 80.5748643875122 49.042938351631165 80.02912425994873 48.49719524383545 80.02912425994873 47.82409727573395 C 80.02912425994873 47.82409727573395 80.02912425994873 47.82409727573395 80.02912425994873 47.82409727573395 C 79.55881977081299 48.72943580150604 78.61837768554688 49.199512004852295 77.24242830276489 49.199512004852295 C 74.97835779190063 49.199512004852295 73.72432374954224 47.928627729415894 73.72432374954224 46.29193127155304 C 73.72432374954224 44.55088198184967 74.99571466445923 43.47138524055481 77.92176628112793 43.47138524055481 C 77.92176628112793 43.47138524055481 79.80265045166016 43.47138524055481 79.80265045166016 43.47138524055481 C 79.75049638748169 42.51400351524353 79.1061224937439 41.97412192821503 77.79976749420166 41.97412192821503 C 77.27146768569946 41.97412192821503 76.70761966705322 42.080695033073425 76.20151662826538 42.26986229419708 C 75.62147998809814 42.48664975166321 74.97151517868042 42.25245535373688 74.6962251663208 41.697919964790344 C 74.6962251663208 41.697919964790344 74.64966201782227 41.60386919975281 74.64966201782227 41.60386919975281 C 74.33640384674072 40.97260117530823 74.63956499099731 40.208205580711365 75.30112886428833 39.96441960334778 C 76.21787214279175 39.626760482788086 77.28089714050293 39.44976031780243 78.287428855896 39.44976031780243 C 81.35283613204956 39.44976031780243 83.11205530166626 40.80759048461914 83.11205530166626 43.802117109298706 Z M 79.80265045166016 46.01333141326904 C 79.80265045166016 46.01333141326904 79.80265045166016 45.19511640071869 79.80265045166016 45.19511640071869 C 79.80265045166016 45.19511640071869 78.3745470046997 45.19511640071869 78.3745470046997 45.19511640071869 C 77.31202268600464 45.19511640071869 76.92900323867798 45.578157901763916 76.92900323867798 46.152586936950684 C 76.92900323867798 46.70987546443939 77.38186740875244 47.110323905944824 78.1655969619751 47.110323905944824 C 78.89700555801392 47.110323905944824 79.54137945175171 46.76209628582001 79.80265045166016 46.01333141326904 Z M 100.01731538772583 41.43015503883362 C 100.01731538772583 41.43015503883362 97.84052991867065 47.5411456823349 97.84052991867065 47.5411456823349 C 97.5198450088501 48.441510796546936 96.66727209091187 49.042938351631165 95.71114206314087 49.042938351631165 C 95.71114206314087 49.042938351631165 95.71114206314087 49.042938351631165 95.71114206314087 49.042938351631165 C 94.74750185012817 49.042938351631165 93.88975524902344 48.43209683895111 93.57482814788818 47.52160727977753 C 93.57482814788818 47.52160727977753 92.32446575164795 43.90682518482208 92.32446575164795 43.90682518482208 C 92.32446575164795 43.90682518482208 91.01944589614868 47.537682056427 91.01944589614868 47.537682056427 C 90.69492244720459 48.44080030918121 89.83834409713745 49.042938351631165 88.87854242324829 49.042938351631165 C 88.87854242324829 49.042938351631165 88.87854242324829 49.042938351631165 88.87854242324829 49.042938351631165 C 87.91640424728394 49.042938351631165 87.05824041366577 48.43760311603546 86.73546934127808 47.53146529197693 C 86.73546934127808 47.53146529197693 84.61075448989868 41.56656861305237 84.61075448989868 41.56656861305237 C 84.27029275894165 40.61087429523468 84.97917079925537 39.60633397102356 85.99404716491699 39.60633397102356 C 85.99404716491699 39.60633397102356 85.99404716491699 39.60633397102356 85.99404716491699 39.60633397102356 C 86.62373447418213 39.60633397102356 87.18324327468872 40.007492899894714 87.38501691818237 40.60359179973602 C 87.38501691818237 40.60359179973602 88.98051404953003 45.31687617301941 88.98051404953003 45.31687617301941 C 88.98051404953003 45.31687617301941 90.51943445205688 40.92935025691986 90.51943445205688 40.92935025691986 C 90.79731130599976 40.13689041137695 91.54582643508911 39.60633397102356 92.3859658241272 39.60633397102356 C 92.3859658241272 39.60633397102356 92.3859658241272 39.60633397102356 92.3859658241272 39.60633397102356 C 93.2341160774231 39.60633397102356 93.98780488967896 40.14665961265564 94.25959014892578 40.94977676868439 C 94.25959014892578 40.94977676868439 95.75553560256958 45.369274616241455 95.75553560256958 45.369274616241455 C 95.75553560256958 45.369274616241455 97.4395694732666 40.523839592933655 97.4395694732666 40.523839592933655 C 97.63049507141113 39.97445523738861 98.14844751358032 39.60633397102356 98.73023653030396 39.60633397102356 C 98.73023653030396 39.60633397102356 98.73023653030396 39.60633397102356 98.73023653030396 39.60633397102356 C 99.67443370819092 39.60633397102356 100.33407831192017 40.540891289711 100.01731538772583 41.43015503883362 Z M 110.19278192520142 43.802117109298706 C 110.19278192520142 43.802117109298706 110.19278192520142 47.82409727573395 110.19278192520142 47.82409727573395 C 110.19278192520142 48.49719524383545 109.64695835113525 49.042938351631165 108.97362852096558 49.042938351631165 C 108.97362852096558 49.042938351631165 108.32908773422241 49.042938351631165 108.32908773422241 49.042938351631165 C 107.65584135055542 49.042938351631165 107.11001777648926 48.49719524383545 107.11001777648926 47.82409727573395 C 107.11001777648926 47.82409727573395 107.11001777648926 47.82409727573395 107.11001777648926 47.82409727573395 C 106.63996362686157 48.72943580150604 105.69918775558472 49.199512004852295 104.32348871231079 49.199512004852295 C 102.05933475494385 49.199512004852295 100.80538415908813 47.928627729415894 100.80538415908813 46.29193127155304 C 100.80538415908813 44.55088198184967 102.07660818099976 43.47138524055481 105.00274324417114 43.47138524055481 C 105.00274324417114 43.47138524055481 106.88362741470337 43.47138524055481 106.88362741470337 43.47138524055481 C 106.8314733505249 42.51400351524353 106.18693256378174 41.97412192821503 104.88074445724487 41.97412192821503 C 104.35244464874268 41.97412192821503 103.78859663009644 42.080695033073425 103.2824935913086 42.26986229419708 C 102.70254039764404 42.48664975166321 102.05257558822632 42.25245535373688 101.77736902236938 41.697919964790344 C 101.77736902236938 41.697919964790344 101.73063898086548 41.60378038883209 101.73063898086548 41.60378038883209 C 101.41738080978394 40.9724235534668 101.72054195404053 40.208205580711365 102.38202238082886 39.96441960334778 C 103.29876565933228 39.626760482788086 104.36179065704346 39.44976031780243 105.36840581893921 39.44976031780243 C 108.43372964859009 39.44976031780243 110.19278192520142 40.80759048461914 110.19278192520142 43.802117109298706 Z M 106.88362741470337 46.01333141326904 C 106.88362741470337 46.01333141326904 106.88362741470337 45.19511640071869 106.88362741470337 45.19511640071869 C 106.88362741470337 45.19511640071869 105.45552396774292 45.19511640071869 105.45552396774292 45.19511640071869 C 104.39299964904785 45.19511640071869 104.00998020172119 45.578157901763916 104.00998020172119 46.152586936950684 C 104.00998020172119 46.70987546443939 104.46284437179565 47.110323905944824 105.24640703201294 47.110323905944824 C 105.97806596755981 47.110323905944824 106.62235641479492 46.76209628582001 106.88362741470337 46.01333141326904 Z M 121.12953090667725 43.802117109298706 C 121.12953090667725 43.802117109298706 121.12953090667725 47.82409727573395 121.12953090667725 47.82409727573395 C 121.12953090667725 48.49719524383545 120.58370733261108 49.042938351631165 119.91046094894409 49.042938351631165 C 119.91046094894409 49.042938351631165 119.26592016220093 49.042938351631165 119.26592016220093 49.042938351631165 C 118.59259033203125 49.042938351631165 118.04685020446777 48.49719524383545 118.04685020446777 47.82409727573395 C 118.04685020446777 47.82409727573395 118.04685020446777 47.82409727573395 118.04685020446777 47.82409727573395 C 117.5767126083374 48.72943580150604 116.63602018356323 49.199512004852295 115.2603211402893 49.199512004852295 C 112.99608373641968 49.199512004852295 111.74213314056396 47.928627729415894 111.74213314056396 46.29193127155304 C 111.74213314056396 44.55088198184967 113.01344060897827 43.47138524055481 115.93949222564697 43.47138524055481 C 115.93949222564697 43.47138524055481 117.82045984268188 43.47138524055481 117.82045984268188 43.47138524055481 C 117.76822233200073 42.51400351524353 117.12368154525757 41.97412192821503 115.8174934387207 41.97412192821503 C 115.28927707672119 41.97412192821503 114.72542905807495 42.080695033073425 114.21932601928711 42.26986229419708 C 113.63937282562256 42.48664975166321 112.98932456970215 42.25245535373688 112.71428489685059 41.697919964790344 C 112.71428489685059 41.697919964790344 112.667471408844 41.60378038883209 112.667471408844 41.60378038883209 C 112.35421323776245 40.9724235534668 112.65729093551636 40.208205580711365 113.31885480880737 39.96441960334778 C 114.23559808731079 39.626760482788086 115.29853963851929 39.44976031780243 116.30515480041504 39.44976031780243 C 119.3705620765686 39.44976031780243 121.12953090667725 40.80759048461914 121.12953090667725 43.802117109298706 Z M 117.82045984268188 46.01333141326904 C 117.82045984268188 46.01333141326904 117.82045984268188 45.19511640071869 117.82045984268188 45.19511640071869 C 117.82045984268188 45.19511640071869 116.39227294921875 45.19511640071869 116.39227294921875 45.19511640071869 C 115.32983207702637 45.19511640071869 114.9468126296997 45.578157901763916 114.9468126296997 46.152586936950684 C 114.9468126296997 46.70987546443939 115.39959335327148 47.110323905944824 116.18323945999146 47.110323905944824 C 116.91481494903564 47.110323905944824 117.55910539627075 46.76209628582001 117.82045984268188 46.01333141326904 Z M 124.8733582496643 36.12423539161682 C 124.8733582496643 36.12423539161682 124.8733582496643 36.12423539161682 124.8733582496643 36.12423539161682 C 125.78718090057373 36.12423539161682 126.52793550491333 36.86474084854126 126.52793550491333 37.77816116809845 C 126.52793550491333 37.77816116809845 126.52793550491333 47.388834953308105 126.52793550491333 47.388834953308105 C 126.52793550491333 48.30234408378601 125.78718090057373 49.042938351631165 124.8733582496643 49.042938351631165 C 124.8733582496643 49.042938351631165 124.8733582496643 49.042938351631165 124.8733582496643 49.042938351631165 C 123.95961904525757 49.042938351631165 123.21878099441528 48.30234408378601 123.21878099441528 47.388834953308105 C 123.21878099441528 47.388834953308105 123.21878099441528 37.77816116809845 123.21878099441528 37.77816116809845 C 123.21878099441528 36.86474084854126 123.95961904525757 36.12423539161682 124.8733582496643 36.12423539161682 Z M 132.9541506767273 45.73482036590576 C 132.9541506767273 45.73482036590576 131.97874450683594 46.7272824048996 131.97874450683594 46.7272824048996 C 131.97874450683594 46.7272824048996 131.97874450683594 47.388834953308105 131.97874450683594 47.388834953308105 C 131.97874450683594 48.30234408378601 131.23798990249634 49.042938351631165 130.3241672515869 49.042938351631165 C 130.3241672515869 49.042938351631165 130.3241672515869 49.042938351631165 130.3241672515869 49.042938351631165 C 129.41042804718018 49.042938351631165 128.66967344284058 48.30234408378601 128.66967344284058 47.388834953308105 C 128.66967344284058 47.388834953308105 128.66967344284058 37.77816116809845 128.66967344284058 37.77816116809845 C 128.66967344284058 36.86474084854126 129.41042804718018 36.12423539161682 130.3241672515869 36.12423539161682 C 130.3241672515869 36.12423539161682 130.3241672515869 36.12423539161682 130.3241672515869 36.12423539161682 C 131.23798990249634 36.12423539161682 131.97874450683594 36.86474084854126 131.97874450683594 37.77816116809845 C 131.97874450683594 37.77816116809845 131.97874450683594 42.89686739444733 131.97874450683594 42.89686739444733 C 131.97874450683594 42.89686739444733 134.94551801681519 40.00758171081543 134.94551801681519 40.00758171081543 C 135.2097930908203 39.75038528442383 135.56402349472046 39.60633397102356 135.93294048309326 39.60633397102356 C 135.93294048309326 39.60633397102356 135.93294048309326 39.60633397102356 135.93294048309326 39.60633397102356 C 137.1832194328308 39.60633397102356 137.81908178329468 41.10839307308197 136.94873476028442 42.005560994148254 C 136.94873476028442 42.005560994148254 135.35757684707642 43.645543456077576 135.35757684707642 43.645543456077576 C 135.35757684707642 43.645543456077576 137.5984492301941 46.491400599479675 137.5984492301941 46.491400599479675 C 138.41263675689697 47.52569258213043 137.6757206916809 49.042938351631165 136.35926866531372 49.042938351631165 C 136.35926866531372 49.042938351631165 136.35926866531372 49.042938351631165 136.35926866531372 49.042938351631165 C 135.880202293396 49.042938351631165 135.42717123031616 48.825262784957886 135.1278486251831 48.45110237598419 C 135.1278486251831 48.45110237598419 132.9541506767273 45.73482036590576 132.9541506767273 45.73482036590576 Z"/></g></svg>