<svg xmlns="http://www.w3.org/2000/svg" width="101" height="101"  xmlns:v="https://vecta.io/nano"><path fill="#fff" paint-order="stroke fill markers" fill-rule="evenodd" d="M90.934 81.595V49.19a14.64 14.64 0 0 0 8.465-13.32v-.303c.036-.608-.124-1.211-.457-1.72L87.184 15.715V9.952c-.006-4.686-3.799-8.482-8.475-8.481H22.281c-4.673.004-8.46 3.799-8.465 8.481v5.758L2.057 33.842A2.82 2.82 0 0 0 1.6 35.51v.352a14.64 14.64 0 0 0 8.465 13.32v32.412c-4.926.324-8.657 4.587-8.334 9.524.305 4.666 4.14 8.311 8.805 8.371h79.929a8.95 8.95 0 0 0 8.823-9.07 8.95 8.95 0 0 0-8.353-8.824zM87.339 44.51c-.183.05-.365.095-.548.133a8.88 8.88 0 0 1-1.11.153h-.095a9.33 9.33 0 0 1-.526.018c-.139 0-.276 0-.415-.01h-.131c-.093 0-.187-.012-.28-.022l-.151-.016-.26-.034-.149-.024-.27-.05-.127-.026c-.125-.028-.25-.056-.373-.09a4.8 4.8 0 0 1-.399-.112l-.117-.04c-.087-.028-.175-.058-.26-.09l-.135-.052-.238-.098-.133-.058c-.083-.036-.165-.076-.244-.113l-.113-.054a10.02 10.02 0 0 1-.324-.171l-.024-.014a9.59 9.59 0 0 1-.34-.199l-.099-.064c-.078-.05-.155-.099-.23-.153l-.115-.082-.209-.153-.113-.086-.209-.169-.097-.082c-.09-.077-.178-.155-.264-.235l-.028-.026c-.095-.09-.199-.183-.282-.277l-.074-.084c-.066-.07-.129-.137-.199-.199l-.093-.105-.167-.199-.089-.111a8.44 8.44 0 0 1-.163-.213l-.078-.104-.199-.283-.03-.044a7.21 7.21 0 0 1-.211-.338l-.056-.098c-.048-.082-.095-.165-.139-.249a1.92 1.92 0 0 1-.066-.127l-.117-.233-.064-.135c-.038-.082-.074-.163-.107-.245l-.054-.127c-.042-.102-.081-.199-.119-.308l-.026-.07a7.85 7.85 0 0 1-.127-.384l-.034-.113-.058-.211h16.786c-.792 3.023-3.112 5.405-6.108 6.272zm-17.026-5.957c-.04.133-.082.261-.127.384l-.026.068c-.038.104-.077.199-.119.309l-.054.127-.107.243-.064.135-.115.233-.068.127-.139.249-.056.098a9.53 9.53 0 0 1-.211.336l-.03.046c-.064.096-.129.199-.199.281l-.077.105-.163.213-.089.112-.167.199-.093.105a2.08 2.08 0 0 1-.199.199l-.077.082a7.44 7.44 0 0 1-.282.277l-.028.026c-.087.082-.175.159-.264.235l-.097.082-.209.169-.113.088-.199.153-.115.082-.23.153-.099.064c-.111.069-.224.135-.34.199l-.024.012c-.105.06-.214.115-.324.171l-.113.054c-.081.04-.163.078-.244.113l-.133.058-.238.096-.135.052-.26.092-.117.04-.383.112-.389.09-.129.024-.27.05-.149.022-.26.034-.151.016-.28.022h-.131c-.137 0-.276.01-.415.01s-.278 0-.415-.01h-.131l-.282-.022-.149-.016-.262-.034-.147-.022-.27-.05-.127-.024c-.126-.026-.25-.056-.373-.09-.148-.034-.276-.072-.399-.112l-.117-.04-.26-.092-.135-.052-.238-.096-.133-.058-.244-.113-.113-.054a8.34 8.34 0 0 1-.324-.171l-.024-.012c-.114-.064-.227-.13-.34-.199l-.097-.064-.224-.143-.115-.082-.199-.153-.113-.088c-.072-.056-.141-.111-.209-.169l-.097-.082a6.27 6.27 0 0 1-.264-.235l-.03-.026a11.32 11.32 0 0 1-.282-.277l-.077-.082c-.066-.068-.129-.137-.199-.199l-.091-.105c-.058-.066-.113-.131-.167-.199l-.089-.111a8.44 8.44 0 0 1-.163-.213l-.078-.105c-.068-.092-.133-.187-.199-.281l-.03-.046-.211-.336-.056-.098-.141-.249-.066-.127-.117-.233-.064-.135a6.55 6.55 0 0 1-.107-.243l-.054-.127c-.042-.102-.081-.199-.119-.308l-.026-.068-.125-.384c-.012-.038-.022-.076-.034-.113-.022-.07-.04-.141-.058-.211H70.41a6.46 6.46 0 0 1-.058.211l-.034.113zm-23.04 0a8.1 8.1 0 0 1-.125.384l-.026.068c-.038.104-.078.199-.119.309l-.054.127c-.034.082-.07.163-.107.243l-.064.135-.117.233-.066.127c-.046.084-.091.167-.141.249l-.056.098a7.43 7.43 0 0 1-.211.336l-.03.046c-.064.096-.127.199-.199.281l-.077.105-.163.213-.089.112c-.054.068-.111.133-.167.199l-.091.105c-.064.07-.127.139-.199.199l-.078.082c-.091.094-.187.187-.282.277l-.03.026a7.22 7.22 0 0 1-.264.235l-.097.082-.209.169-.113.088-.199.153-.115.082-.232.153-.097.064a9.84 9.84 0 0 1-.34.199l-.024.012c-.107.06-.215.117-.324.171l-.113.054-.244.113-.133.058-.238.096-.135.052c-.085.032-.173.062-.26.092l-.117.04-.383.112-.389.09-.127.024-.27.05-.147.022-.262.034-.149.016-.282.022h-.131c-.137 0-.276.01-.415.01s-.276 0-.415-.01h-.131l-.28-.022-.151-.016-.26-.034-.149-.022-.27-.05-.129-.024c-.126-.026-.25-.056-.373-.09-.148-.034-.276-.072-.399-.112l-.117-.04-.26-.092-.135-.052-.238-.096-.133-.058c-.083-.036-.165-.076-.244-.113l-.113-.054a7.28 7.28 0 0 1-.324-.171l-.024-.012c-.115-.064-.228-.13-.34-.199l-.099-.064-.23-.153-.115-.082-.312-.241-.209-.169-.097-.082c-.09-.076-.178-.154-.264-.235l-.028-.026c-.095-.09-.199-.183-.282-.277l-.078-.082c-.066-.068-.129-.137-.199-.199l-.093-.105-.167-.199-.089-.112c-.056-.07-.109-.141-.163-.213l-.077-.105-.199-.281-.03-.046-.211-.336-.056-.098-.139-.249-.068-.127-.115-.233-.062-.131-.107-.243-.054-.127c-.042-.102-.081-.199-.119-.308l-.026-.068-.127-.384-.034-.113-.058-.211h16.784c-.018.072-.038.141-.058.211l-.034.113zm-28.27-20.462c.3-.458.461-.993.463-1.541V9.952a2.83 2.83 0 0 1 2.822-2.828h56.428a2.83 2.83 0 0 1 2.822 2.828v6.598a2.83 2.83 0 0 0 .457 1.541l9.393 14.481H9.61l9.393-14.481zM7.537 38.227h16.786c-.018.072-.038.141-.058.211l-.034.113c-.04.133-.082.261-.127.384l-.026.068c-.038.103-.078.199-.119.308l-.054.127-.107.243-.064.135a5.58 5.58 0 0 1-.117.233l-.066.127-.139.249-.056.098a9.53 9.53 0 0 1-.211.336l-.03.046c-.064.095-.129.199-.199.281l-.077.105-.163.213-.089.111-.167.199-.093.105c-.064.07-.127.139-.199.199l-.078.082a7.38 7.38 0 0 1-.282.277l-.028.026c-.087.082-.175.159-.264.235l-.097.082-.209.169-.113.088-.209.153-.115.082-.23.153-.099.064a7.73 7.73 0 0 1-.34.199l-.024.012c-.105.06-.214.115-.324.171l-.113.054c-.081.04-.163.078-.244.113l-.133.058-.238.095-.135.052-.26.091-.117.04-.383.111-.389.09-.127.024-.27.05-.149.022-.26.034-.151.016-.28.022h-.131c-.132.008-.271.012-.415.012-.175 0-.352 0-.526-.018h-.095c-.369-.027-.736-.078-1.098-.153-.186-.038-.369-.084-.55-.135-3-.868-5.323-3.256-6.112-6.284l-.002.022zm9.059 12.235h.119a14.18 14.18 0 0 0 .63-.05l.121-.012c.215-.024.427-.05.64-.084h.026l.616-.113.111-.022c.199-.042.397-.09.596-.141l.119-.032c.199-.054.397-.112.596-.175l.046-.016a8.96 8.96 0 0 0 .566-.199l.101-.038c.199-.072.375-.147.562-.225l.117-.052c.187-.082.373-.167.556-.257l.058-.03c.175-.086.346-.175.516-.269l.089-.05c.175-.098.348-.199.518-.305l.109-.07c.171-.108.34-.217.507-.33l.064-.044a19.67 19.67 0 0 0 .465-.336l.078-.058c.159-.122.315-.247.469-.376l.099-.084c.153-.129.304-.263.453-.398l.064-.058.411-.398.06-.06c.142-.145.28-.292.415-.442l.083-.096.397-.46.058-.072a16.72 16.72 0 0 0 .357-.462l.042-.056.02-.028.02.028.042.056a11.56 11.56 0 0 0 .357.462l.058.072.397.46.083.096c.132.15.271.297.415.442l.06.06c.135.137.272.271.411.398l.064.058c.147.137.298.269.453.398l.099.084c.154.133.31.258.469.376l.077.058a10.97 10.97 0 0 0 .465.336l.064.044a17.14 17.14 0 0 0 .507.33l.109.07c.171.106.344.199.518.305l.089.05a13.39 13.39 0 0 0 .516.269l.058.03a13.96 13.96 0 0 0 .556.257l.117.052c.185.08.373.155.562.225l.101.038a17.19 17.19 0 0 0 .566.199l.046.016a16.81 16.81 0 0 0 .596.175l.119.032a16.16 16.16 0 0 0 .596.141l.111.022c.199.042.409.08.616.113h.026a13.75 13.75 0 0 0 .64.084l.121.012c.209.021.419.038.63.05h.119c.22.01.441.018.663.018s.445 0 .665-.018h.119a14.17 14.17 0 0 0 .63-.05l.121-.012a13.39 13.39 0 0 0 .64-.084h.026l.616-.113.111-.022c.201-.042.4-.09.596-.141l.121-.032c.199-.054.397-.112.596-.175l.044-.016a8.94 8.94 0 0 0 .566-.199l.101-.038a16.2 16.2 0 0 0 .562-.225l.117-.052c.187-.082.373-.167.556-.257l.058-.03c.173-.086.346-.176.516-.269l.091-.05c.175-.098.348-.199.518-.305l.111-.07a17.14 17.14 0 0 0 .507-.33l.064-.044c.157-.109.312-.223.465-.336l.077-.058c.159-.121.316-.247.469-.376l.099-.084a17.17 17.17 0 0 0 .453-.398l.062-.058a19.69 19.69 0 0 0 .413-.398l.06-.06c.141-.145.278-.293.413-.442l.083-.096.397-.46.058-.072a16.72 16.72 0 0 0 .357-.462l.042-.056.022-.028.02.028.042.056c.115.157.234.311.357.462l.058.072a8.72 8.72 0 0 0 .397.46l.083.096a12.48 12.48 0 0 0 .413.442l.06.06a9.75 9.75 0 0 0 .413.398l.062.058c.147.137.3.269.453.398l.099.084c.154.133.31.258.469.376l.077.058a12.36 12.36 0 0 0 .465.336l.064.044a17.14 17.14 0 0 0 .507.33l.111.07c.171.106.342.199.518.305l.091.05a13.33 13.33 0 0 0 .516.269l.058.03c.183.09.369.175.556.257l.117.052a12.01 12.01 0 0 0 .562.225l.101.038c.187.07.375.135.566.199l.044.016c.199.064.397.119.596.175l.121.032c.197.05.396.098.596.141l.111.022a14.11 14.11 0 0 0 .616.113h.026a13.72 13.72 0 0 0 .64.084l.121.012a14.17 14.17 0 0 0 .63.05h.119c.22.01.441.018.665.018s.445 0 .663-.018h.119a14.17 14.17 0 0 0 .63-.05l.121-.012c.215-.024.429-.05.64-.084h.026l.616-.113.111-.022a12.1 12.1 0 0 0 .596-.141l.121-.032a13.48 13.48 0 0 0 .596-.175l.046-.016c.199-.062.379-.127.566-.199l.101-.038a16.2 16.2 0 0 0 .562-.225l.117-.052c.187-.082.373-.167.556-.257l.058-.03c.173-.086.346-.176.516-.269l.089-.05a13.42 13.42 0 0 0 .518-.305l.109-.07a17.03 17.03 0 0 0 .506-.33l.064-.044a19.85 19.85 0 0 0 .465-.336l.077-.058c.159-.122.315-.247.469-.376l.099-.084a14.2 14.2 0 0 0 .451-.398l.064-.058.411-.398.06-.06c.142-.145.28-.292.415-.442l.083-.096.397-.46.058-.072c.121-.151.24-.305.358-.462l.042-.056.02-.028.02.028.042.056a15.37 15.37 0 0 0 .357.462l.058.072.397.46.085.096c.133.15.27.297.413.442l.06.06a11.08 11.08 0 0 0 .411.398l.064.058a10.75 10.75 0 0 0 .453.398l.099.084c.154.133.31.258.469.376l.077.058a12.43 12.43 0 0 0 .465.336l.064.044a17.03 17.03 0 0 0 .506.33l.109.07c.171.106.344.199.518.305l.089.05c.171.094.342.183.516.269l.058.03c.183.09.369.175.556.257l.117.052c.187.08.371.155.562.225l.101.038a17.12 17.12 0 0 0 .566.199l.046.016c.199.064.397.119.596.175l.119.032c.199.05.397.098.596.141l.111.022a14.11 14.11 0 0 0 .616.113h.026a13.72 13.72 0 0 0 .64.084l.121.012a14.17 14.17 0 0 0 .63.05h.119c.22.01.441.018.663.018h.234v31.101H47.67V63.667c-.006-4.683-3.793-8.477-8.465-8.481h-7.52c-4.673.004-8.46 3.799-8.465 8.481v17.914h-7.528V50.478h.234c.222 0 .445 0 .663-.018zm25.433 31.119H28.863V63.667a2.83 2.83 0 0 1 2.822-2.828h7.524a2.83 2.83 0 0 1 2.822 2.828l-.002 17.914zm48.436 12.247H10.528c-1.818-.001-3.29-1.479-3.289-3.3s1.473-3.295 3.289-3.296h79.937c1.818.001 3.29 1.479 3.289 3.3s-1.473 3.295-3.289 3.296zm-28.687-21.67h7.524c4.675 0 8.464-3.798 8.464-8.482s-3.789-8.482-8.464-8.482h-7.524c-4.675 0-8.464 3.798-8.464 8.482s3.79 8.482 8.464 8.482zm0-11.31h7.524c1.558.041 2.788 1.341 2.747 2.902-.04 1.503-1.247 2.713-2.747 2.753h-7.524c-1.558.041-2.855-1.191-2.896-2.753s1.188-2.861 2.746-2.902a2.81 2.81 0 0 1 .15 0zm15.989-44.296c0-1.561-1.262-2.827-2.82-2.828H26.042c-1.558.041-2.788 1.341-2.747 2.902.04 1.503 1.247 2.713 2.747 2.753h48.905c1.557-.001 2.819-1.266 2.82-2.827z"/></svg>