<svg version="1.1" xmlns="http://www.w3.org/2000/svg" xmlns:xlink="http://www.w3.org/1999/xlink" width="103" height="89"><defs/><g><path fill="rgb(255,255,255)" stroke="none" paint-order="stroke fill markers" fill-rule="evenodd" d=" M 29.057852268218994 61.73188078403473 C 29.057852268218994 61.73188078403473 86.22229480743408 61.73188078403473 86.22229480743408 61.73188078403473 C 87.52940082550049 61.73444938659668 88.68221426010132 60.88016760349274 89.0553035736084 59.6328010559082 C 89.0553035736084 59.6328010559082 100.68924808502197 20.73104953765869 100.68924808502197 20.73104953765869 C 101.15337753295898 19.175539255142212 100.26350402832031 17.540048003196716 98.70163583755493 17.077876687049866 C 98.4292664527893 16.997364282608032 98.14654970169067 16.956178069114685 97.86224746704102 16.956178069114685 C 97.86224746704102 16.956178069114685 22.78793239593506 16.956178069114685 22.78793239593506 16.956178069114685 C 22.78793239593506 16.956178069114685 18.81454372406006 3.6829686164855957 18.81454372406006 3.6829686164855957 C 18.442038536071777 2.4377278089523315 17.292312622070312 1.583977460861206 15.987543106079102 1.5838003158569336 C 15.987543106079102 1.5838003158569336 4.1946330070495605 1.5838003158569336 4.1946330070495605 1.5838003158569336 C 2.565840721130371 1.541639804840088 1.2111701965332031 2.8224867582321167 1.1689462661743164 4.4446035623550415 C 1.1267223358154297 6.066720366477966 2.4128832817077637 7.41559100151062 4.041675567626953 7.457751512527466 C 4.092661380767822 7.4591686725616455 4.143647193908691 7.4591686725616455 4.1946330070495605 7.457751512527466 C 4.1946330070495605 7.457751512527466 13.792232513427734 7.457751512527466 13.792232513427734 7.457751512527466 C 13.792232513427734 7.457751512527466 17.73382806777954 20.667720198631287 17.73382806777954 20.667720198631287 C 17.745760917663574 20.711209297180176 17.757693767547607 20.7547869682312 17.771545886993408 20.796327471733093 C 17.771545886993408 20.796327471733093 28.265193939208984 55.88565278053284 28.265193939208984 55.88565278053284 C 21.91675090789795 56.32568097114563 17.128507137298584 61.80752170085907 17.57043981552124 68.12964975833893 C 17.99059295654297 74.1403568983078 23.007396697998047 78.80378770828247 29.057852268218994 78.80768489837646 C 29.057852268218994 78.80768489837646 31.986156940460205 78.80768489837646 31.986156940460205 78.80768489837646 C 33.61244583129883 84.3802238702774 39.46696901321411 87.58486557006836 45.06264114379883 85.96540594100952 C 48.53076124191284 84.96170234680176 51.24243879318237 82.26130390167236 52.25022220611572 78.80768489837646 C 52.25022220611572 78.80768489837646 67.90128135681152 78.80768489837646 67.90128135681152 78.80768489837646 C 69.52757024765015 84.3802238702774 75.38209342956543 87.58486557006836 80.97768211364746 85.96540594100952 C 84.44588565826416 84.96170234680176 87.157479763031 82.26130390167236 88.16526317596436 78.80768489837646 C 88.16526317596436 78.80768489837646 91.96583414077759 78.80768489837646 91.96583414077759 78.80768489837646 C 93.59470987319946 78.76561295986176 94.8808708190918 77.41656517982483 94.83856344223022 75.79453694820404 C 94.79784154891968 74.23167514801025 93.53529596328735 72.97429990768433 91.96583414077759 72.93373370170593 C 91.96583414077759 72.93373370170593 88.15733575820923 72.93373370170593 88.15733575820923 72.93373370170593 C 86.5310468673706 67.36119472980499 80.67652368545532 64.15664160251617 75.0808515548706 65.77601265907288 C 71.61273145675659 66.77971625328064 68.90113735198975 69.48011469841003 67.89327049255371 72.93373370170593 C 67.89327049255371 72.93373370170593 52.2463002204895 72.93373370170593 52.2463002204895 72.93373370170593 C 50.62001132965088 67.36119472980499 44.765488147735596 64.15664160251617 39.16981601715088 65.77601265907288 C 35.701695919036865 66.77971625328064 32.99010181427002 69.48011469841003 31.982234954833984 72.93373370170593 C 31.982234954833984 72.93373370170593 29.057852268218994 72.93373370170593 29.057852268218994 72.93373370170593 C 25.952641010284424 72.93373370170593 23.435560703277588 70.42704331874847 23.435560703277588 67.3348001241684 C 23.435560703277588 64.24255692958832 25.952641010284424 61.73586654663086 29.057852268218994 61.73586654663086 C 29.057852268218994 61.73586654663086 29.057852268218994 61.73188078403473 29.057852268218994 61.73188078403473 Z M 72.32753419876099 22.830129265785217 C 72.32753419876099 22.830129265785217 93.90079164505005 22.830129265785217 93.90079164505005 22.830129265785217 C 93.90079164505005 22.830129265785217 89.84996461868286 36.40607953071594 89.84996461868286 36.40607953071594 C 89.84996461868286 36.40607953071594 72.32753419876099 36.40607953071594 72.32753419876099 36.40607953071594 C 72.32753419876099 36.40607953071594 72.32753419876099 22.830129265785217 72.32753419876099 22.830129265785217 Z M 72.32753419876099 42.28197932243347 C 72.32753419876099 42.28197932243347 88.08381938934326 42.28197932243347 88.08381938934326 42.28197932243347 C 88.08381938934326 42.28197932243347 84.0230622291565 55.8579295873642 84.0230622291565 55.8579295873642 C 84.0230622291565 55.8579295873642 72.32753419876099 55.8579295873642 72.32753419876099 55.8579295873642 C 72.32753419876099 55.8579295873642 72.32753419876099 42.28197932243347 72.32753419876099 42.28197932243347 Z M 50.50193452835083 22.830129265785217 C 50.50193452835083 22.830129265785217 66.42711544036865 22.830129265785217 66.42711544036865 22.830129265785217 C 66.42711544036865 22.830129265785217 66.42711544036865 36.40607953071594 66.42711544036865 36.40607953071594 C 66.42711544036865 36.40607953071594 50.50193452835083 36.40607953071594 50.50193452835083 36.40607953071594 C 50.50193452835083 36.40607953071594 50.50193452835083 22.830129265785217 50.50193452835083 22.830129265785217 Z M 50.50193452835083 42.28197932243347 C 50.50193452835083 42.28197932243347 66.42711544036865 42.28197932243347 66.42711544036865 42.28197932243347 C 66.42711544036865 42.28197932243347 66.42711544036865 55.8579295873642 66.42711544036865 55.8579295873642 C 66.42711544036865 55.8579295873642 50.50001525878906 55.8579295873642 50.50001525878906 55.8579295873642 C 50.50001525878906 55.8579295873642 50.50001525878906 42.280030727386475 50.50001525878906 42.280030727386475 C 50.50001525878906 42.280030727386475 50.50193452835083 42.28197932243347 50.50193452835083 42.28197932243347 Z M 44.60159921646118 55.8579295873642 C 44.60159921646118 55.8579295873642 34.42187690734863 55.8579295873642 34.42187690734863 55.8579295873642 C 34.42187690734863 55.8579295873642 30.361119747161865 42.28197932243347 30.361119747161865 42.28197932243347 C 30.361119747161865 42.28197932243347 44.60159921646118 42.28197932243347 44.60159921646118 42.28197932243347 C 44.60159921646118 42.28197932243347 44.60159921646118 55.8579295873642 44.60159921646118 55.8579295873642 Z M 24.536136627197266 22.830129265785217 C 24.536136627197266 22.830129265785217 44.60159921646118 22.830129265785217 44.60159921646118 22.830129265785217 C 44.60159921646118 22.830129265785217 44.60159921646118 36.40607953071594 44.60159921646118 36.40607953071594 C 44.60159921646118 36.40607953071594 28.604904651641846 36.40607953071594 28.604904651641846 36.40607953071594 C 28.604904651641846 36.40607953071594 24.536136627197266 22.830129265785217 24.536136627197266 22.830129265785217 Z M 78.01741743087769 71.23225593566895 C 80.58815383911133 71.23225593566895 82.67214679718018 73.3076868057251 82.67214679718018 75.8677864074707 C 82.67214679718018 78.42779743671417 80.58815383911133 80.50322830677032 78.01741743087769 80.50322830677032 C 75.44659757614136 80.50322830677032 73.36260461807251 78.42788600921631 73.36260461807251 75.8677864074707 C 73.36477422714233 73.30547249317169 75.45235538482666 71.23013019561768 78.02534484863281 71.23234450817108 C 78.02592897415161 71.23234450817108 78.02667999267578 71.23234450817108 78.02734756469727 71.23234450817108 C 78.02734756469727 71.23234450817108 78.01741743087769 71.23225593566895 78.01741743087769 71.23225593566895 Z M 42.10629844665527 71.23225593566895 C 44.677034854888916 71.23225593566895 46.76111125946045 73.3076868057251 46.76111125946045 75.8677864074707 C 46.76111125946045 78.42779743671417 44.677034854888916 80.50322830677032 42.10629844665527 80.50322830677032 C 39.53556203842163 80.50322830677032 37.45156908035278 78.42779743671417 37.45156908035278 75.8677864074707 C 37.45373868942261 73.30547249317169 39.541319847106934 71.23013019561768 42.1142258644104 71.23234450817108 C 42.1142258644104 71.23234450817108 42.1142258644104 71.23234450817108 42.1142258644104 71.23234450817108 C 42.1142258644104 71.23234450817108 42.10629844665527 71.23225593566895 42.10629844665527 71.23225593566895 Z"/></g></svg>