<svg version="1.1" xmlns="http://www.w3.org/2000/svg" xmlns:xlink="http://www.w3.org/1999/xlink" width="101" height="101"><defs/><g><path fill="rgb(255,255,255)" stroke="none" paint-order="stroke fill markers" fill-rule="evenodd" d=" M 57.50709390640259 1.72703218460083 C 57.50709390640259 1.72703218460083 12.543364524841309 1.72703218460083 12.543364524841309 1.72703218460083 C 6.601139068603516 1.73314368724823 1.7852745056152344 6.556182146072388 1.778181552886963 12.508077144622803 C 1.778181552886963 12.508077144622803 1.778181552886963 88.45350623130798 1.778181552886963 88.45350623130798 C 1.786275863647461 94.40478122234344 6.6018900871276855 99.22666823863983 12.543364524841309 99.2326911687851 C 12.543364524841309 99.2326911687851 57.50709390640259 99.2326911687851 57.50709390640259 99.2326911687851 C 63.44856834411621 99.2256053686142 68.2632646560669 94.40292119979858 68.27052450180054 88.45173478126526 C 68.27052450180054 88.45173478126526 68.27052450180054 12.508077144622803 68.27052450180054 12.508077144622803 C 68.2632646560669 6.5568907260894775 63.44856834411621 1.7342065572738647 57.50709390640259 1.72703218460083 Z M 25.56160306930542 7.440755724906921 C 25.56160306930542 7.440755724906921 44.48151206970215 7.440755724906921 44.48151206970215 7.440755724906921 C 44.48151206970215 7.440755724906921 44.48151206970215 9.629027962684631 44.48151206970215 9.629027962684631 C 44.48151206970215 10.0672847032547 44.12803268432617 10.422991871833801 43.69052267074585 10.425029039382935 C 43.69052267074585 10.425029039382935 26.359935760498047 10.425029039382935 26.359935760498047 10.425029039382935 C 25.922425746917725 10.422991871833801 25.569029808044434 10.0672847032547 25.569029808044434 9.629027962684631 C 25.569029808044434 9.629027962684631 25.56160306930542 7.440755724906921 25.56160306930542 7.440755724906921 Z M 62.567957401275635 88.45350623130798 C 62.56595468521118 91.25160014629364 60.30246829986572 93.5196762084961 57.50892972946167 93.52277624607086 C 57.50892972946167 93.52277624607086 12.543364524841309 93.52277624607086 12.543364524841309 93.52277624607086 C 9.7495756149292 93.5196762084961 7.485505104064941 91.25195443630219 7.482501029968262 88.45350623130798 C 7.482501029968262 88.45350623130798 7.482501029968262 12.508077144622803 7.482501029968262 12.508077144622803 C 7.4865899085998535 9.710514664649963 9.75032663345337 7.4438557624816895 12.543364524841309 7.440755724906921 C 12.543364524841309 7.440755724906921 19.86646270751953 7.440755724906921 19.86646270751953 7.440755724906921 C 19.86646270751953 7.440755724906921 19.86646270751953 9.629027962684631 19.86646270751953 9.629027962684631 C 19.87363910675049 13.21869432926178 22.778078079223633 16.126352429389954 26.36177158355713 16.131312489509583 C 26.36177158355713 16.131312489509583 43.69235849380493 16.131312489509583 43.69235849380493 16.131312489509583 C 47.279306411743164 16.126086711883545 50.185497760772705 13.21444284915924 50.18950319290161 9.621676445007324 C 50.18950319290161 9.621676445007324 50.18950319290161 7.440755724906921 50.18950319290161 7.440755724906921 C 50.18950319290161 7.440755724906921 57.512601375579834 7.440755724906921 57.512601375579834 7.440755724906921 C 60.30613994598389 7.4438557624816895 62.569626331329346 9.711843252182007 62.571712493896484 12.509937167167664 C 62.571712493896484 12.509937167167664 62.567957401275635 88.45350623130798 62.567957401275635 88.45350623130798 Z M 42.623075008392334 84.09529626369476 C 42.623075008392334 84.09529626369476 27.425631046295166 84.09529626369476 27.425631046295166 84.09529626369476 C 25.850327968597412 84.09219622612 24.570842742919922 85.36879169940948 24.567922115325928 86.94653367996216 C 24.564751148223877 88.52436423301697 25.839062690734863 89.80591976642609 27.414365768432617 89.80901980400085 C 27.41803741455078 89.80901980400085 27.421875953674316 89.80901980400085 27.425631046295166 89.80901980400085 C 27.425631046295166 89.80901980400085 42.623075008392334 89.80901980400085 42.623075008392334 89.80901980400085 C 44.1982946395874 89.81211984157562 45.47761297225952 88.53561294078827 45.48078393936157 86.95778238773346 C 45.48387145996094 85.37995183467865 44.20955991744995 84.09848487377167 42.6342568397522 84.09529626369476 C 42.63058519363403 84.09529626369476 42.6267466545105 84.09529626369476 42.623075008392334 84.09529626369476 Z M 94.36040735244751 62.156596064567566 C 94.36040735244751 62.156596064567566 94.42491149902344 30.26411807537079 94.42491149902344 30.26411807537079 C 94.42491149902344 30.26411807537079 98.499520778656 24.932673454284668 98.499520778656 24.932673454284668 C 99.11402082443237 24.127903699874878 99.29076051712036 23.070436596870422 98.97149419784546 22.109070658683777 C 98.97149419784546 22.109070658683777 92.90209627151489 3.8267319202423096 92.90209627151489 3.8267319202423096 C 92.49020433425903 2.5731652975082397 91.32128572463989 1.7263236045837402 90.00383234024048 1.72703218460083 C 90.00383234024048 1.72703218460083 84.14455270767212 1.72703218460083 84.14455270767212 1.72703218460083 C 82.82985305786133 1.7261464595794678 81.66226959228516 2.5683823823928833 81.2462887763977 3.8175203800201416 C 81.2462887763977 3.8175203800201416 75.14743423461914 22.09985911846161 75.14743423461914 22.09985911846161 C 74.82566452026367 23.062907934188843 75.00248765945435 24.123032212257385 75.6194076538086 24.928953409194946 C 75.6194076538086 24.928953409194946 79.68659019470215 30.2511864900589 79.68659019470215 30.2511864900589 C 79.68659019470215 30.2511864900589 79.63126516342163 62.17129909992218 79.63126516342163 62.17129909992218 C 76.95071315765381 62.79679811000824 75.05213832855225 65.1873699426651 75.0460467338562 67.94410049915314 C 75.0460467338562 67.94410049915314 75.0460467338562 87.05193495750427 75.0460467338562 87.05193495750427 C 75.02243137359619 93.67352664470673 80.30067300796509 99.09274661540985 86.91013669967651 99.2326911687851 C 86.91013669967651 99.2326911687851 87.05207920074463 99.2326911687851 87.05207920074463 99.2326911687851 C 93.687828540802 99.2317168712616 99.06637287139893 93.84261155128479 99.06545495986938 87.19595384597778 C 99.06545495986938 87.19471383094788 99.06545495986938 87.19347381591797 99.06545495986938 87.19223380088806 C 99.06545495986938 87.19223380088806 99.06545495986938 67.95703208446503 99.06545495986938 67.95703208446503 C 99.06603908538818 65.15061235427856 97.1012077331543 62.728508710861206 94.35857152938843 62.154736042022705 C 94.35857152938843 62.154736042022705 94.36040735244751 62.156596064567566 94.36040735244751 62.156596064567566 Z M 86.05097150802612 7.440755724906921 C 86.05097150802612 7.440755724906921 88.09374189376831 7.440755724906921 88.09374189376831 7.440755724906921 C 88.09374189376831 7.440755724906921 93.11780548095703 22.5836421251297 93.11780548095703 22.5836421251297 C 93.11780548095703 22.5836421251297 89.35294961929321 27.50880467891693 89.35294961929321 27.50880467891693 C 88.94923543930054 28.03988540172577 88.72868633270264 28.68788182735443 88.7242636680603 29.355541348457336 C 88.7242636680603 29.355541348457336 88.65975952148438 62.02542018890381 88.65975952148438 62.02542018890381 C 88.65975952148438 62.02542018890381 85.34109210968018 62.02542018890381 85.34109210968018 62.02542018890381 C 85.34109210968018 62.02542018890381 85.3964171409607 29.364752888679504 85.3964171409607 29.364752888679504 C 85.39533233642578 28.69213330745697 85.17444944381714 28.03846824169159 84.76773118972778 27.50322461128235 C 84.76773118972778 27.50322461128235 81.00663042068481 22.5836421251297 81.00663042068481 22.5836421251297 C 81.00663042068481 22.5836421251297 86.05097150802612 7.440755724906921 86.05097150802612 7.440755724906921 Z M 93.36297130584717 87.19409382343292 C 93.36831188201904 90.68420469760895 90.54807043075562 93.51781618595123 87.06351137161255 93.52321910858154 C 87.03455543518066 93.52321910858154 87.00543260574341 93.5231305360794 86.97647666931152 93.52277624607086 C 83.48749494552612 93.431192278862 80.71606969833374 90.55497741699219 80.74853038787842 87.05928647518158 C 80.74853038787842 87.05928647518158 80.74853038787842 67.95154058933258 80.74853038787842 67.95154058933258 C 80.74761247634888 67.83515632152557 80.84073877334595 67.74020659923553 80.95689630508423 67.7391437292099 C 80.95689630508423 67.7391437292099 80.95689630508423 67.7391437292099 80.95689630508423 67.7391437292099 C 80.95689630508423 67.7391437292099 93.15652465820312 67.7391437292099 93.15652465820312 67.7391437292099 C 93.21143245697021 67.73799228668213 93.26433753967285 67.76022398471832 93.3021388053894 67.80008161067963 C 93.34236001968384 67.83923065662384 93.36447334289551 67.89352560043335 93.36297130584717 67.94968056678772 C 93.36297130584717 67.94968056678772 93.36297130584717 87.19409382343292 93.36297130584717 87.19409382343292 Z M 35.03261423110962 27.28347623348236 C 22.241517066955566 27.27337896823883 11.864026546478271 37.65124189853668 11.853846073150635 50.46325433254242 C 11.843665599822998 63.27526676654816 22.204633712768555 73.66978132724762 34.99573087692261 73.67996716499329 C 47.78682804107666 73.69015300273895 58.164318561553955 63.312201499938965 58.17449903488159 50.50018906593323 C 58.17449903488159 50.49407756328583 58.17449903488159 50.487788915634155 58.17449903488159 50.48176598548889 C 58.16531991958618 37.68082511425018 47.812613010406494 27.302873611450195 35.03261423110962 27.28347623348236 Z M 35.03261423110962 67.9662436246872 C 25.39203977584839 67.97642946243286 17.568429470062256 60.15662896633148 17.55824899673462 50.50018906593323 C 17.548068523406982 40.84383773803711 25.355156421661377 33.00738561153412 34.99573087692261 32.99719977378845 C 44.63638877868652 32.987013936042786 52.459999084472656 40.8069030046463 52.47017955780029 50.46325433254242 C 52.47017955780029 50.46936583518982 52.47017955780029 50.47565448284149 52.47017955780029 50.48176598548889 C 52.46408796310425 60.128374338150024 44.6636757850647 67.95003485679626 35.03261423110962 67.9662436246872 Z M 40.884467124938965 42.622196435928345 C 40.884467124938965 42.622196435928345 30.270405769348145 53.26099395751953 30.270405769348145 53.26099395751953 C 30.270405769348145 53.26099395751953 27.261491775512695 50.24722599983215 27.261491775512695 50.24722599983215 C 26.166172981262207 49.11332082748413 24.360474109649658 49.08356046676636 23.22843885421753 50.180708050727844 C 22.0964035987854 51.27785563468933 22.06678009033203 53.08650612831116 23.16209888458252 54.22041130065918 C 23.18346118927002 54.24255442619324 23.20540761947632 54.26434326171875 23.22752094268799 54.28595495223999 C 23.22752094268799 54.28595495223999 26.914855003356934 57.979339718818665 26.914855003356934 57.979339718818665 C 27.80314302444458 58.87463057041168 29.012115955352783 59.37674808502197 30.272241592407227 59.37355947494507 C 30.272241592407227 59.37355947494507 30.272241592407227 59.37355947494507 30.272241592407227 59.37355947494507 C 31.53236722946167 59.37674808502197 32.74125671386719 58.87463057041168 33.629544734954834 57.979339718818665 C 33.629544734954834 57.979339718818665 44.91843795776367 46.66092538833618 44.91843795776367 46.66092538833618 C 46.031864643096924 45.54455757141113 46.031113624572754 43.73555278778076 44.91660213470459 42.620336413383484 C 43.802090644836426 41.505120038986206 41.99597454071045 41.505828619003296 40.88263130187988 42.622196435928345 C 40.88263130187988 42.622196435928345 40.884467124938965 42.622196435928345 40.884467124938965 42.622196435928345 Z"/></g></svg>