<svg version="1.1" xmlns="http://www.w3.org/2000/svg" xmlns:xlink="http://www.w3.org/1999/xlink" width="100" height="99"><defs/><g><path fill="rgb(255,255,255)" stroke="none" paint-order="stroke fill markers" fill-rule="evenodd" d=" M 49.94866895675659 1.728521466255188 C 49.94866895675659 1.728521466255188 1.368535041809082 29.787404417991638 1.368535041809082 29.787404417991638 C 1.368535041809082 29.787404417991638 1.368535041809082 97.15662384033203 1.368535041809082 97.15662384033203 C 1.368535041809082 97.15662384033203 98.53606271743774 97.15662384033203 98.53606271743774 97.15662384033203 C 98.53606271743774 97.15662384033203 98.53606271743774 29.787404417991638 98.53606271743774 29.787404417991638 C 98.53606271743774 29.787404417991638 49.94866895675659 1.728521466255188 49.94866895675659 1.728521466255188 Z M 38.88791847229004 91.48089790344238 C 38.88791847229004 91.48089790344238 28.30665159225464 91.48089790344238 28.30665159225464 91.48089790344238 C 28.30665159225464 91.48089790344238 28.30665159225464 81.07602035999298 28.30665159225464 81.07602035999298 C 28.30665159225464 81.07602035999298 38.88791847229004 81.07602035999298 38.88791847229004 81.07602035999298 C 38.88791847229004 81.07602035999298 38.88791847229004 91.48089790344238 38.88791847229004 91.48089790344238 Z M 38.88791847229004 75.40746879577637 C 38.88791847229004 75.40746879577637 28.30665159225464 75.40746879577637 28.30665159225464 75.40746879577637 C 28.30665159225464 75.40746879577637 28.30665159225464 64.99718832969666 28.30665159225464 64.99718832969666 C 28.30665159225464 64.99718832969666 38.88791847229004 64.99718832969666 38.88791847229004 64.99718832969666 C 38.88791847229004 64.99718832969666 38.88791847229004 75.40746879577637 38.88791847229004 75.40746879577637 Z M 38.88791847229004 59.333951115608215 C 38.88791847229004 59.333951115608215 28.30665159225464 59.333951115608215 28.30665159225464 59.333951115608215 C 28.30665159225464 59.333951115608215 28.30665159225464 48.916584849357605 28.30665159225464 48.916584849357605 C 28.30665159225464 48.916584849357605 38.88791847229004 48.916584849357605 38.88791847229004 48.916584849357605 C 38.88791847229004 48.916584849357605 38.88791847229004 59.333951115608215 38.88791847229004 59.333951115608215 Z M 55.23383665084839 91.49338662624359 C 55.23383665084839 91.49338662624359 44.65982961654663 91.49338662624359 44.65982961654663 91.49338662624359 C 44.65982961654663 91.49338662624359 44.65982961654663 81.07602035999298 44.65982961654663 81.07602035999298 C 44.65982961654663 81.07602035999298 55.23926067352295 81.07602035999298 55.23926067352295 81.07602035999298 C 55.23926067352295 81.07602035999298 55.23383665084839 91.49338662624359 55.23383665084839 91.49338662624359 Z M 55.23383665084839 75.41995751857758 C 55.23383665084839 75.41995751857758 44.65982961654663 75.41995751857758 44.65982961654663 75.41995751857758 C 44.65982961654663 75.41995751857758 44.65982961654663 64.99718832969666 44.65982961654663 64.99718832969666 C 44.65982961654663 64.99718832969666 55.23926067352295 64.99718832969666 55.23926067352295 64.99718832969666 C 55.23926067352295 64.99718832969666 55.23383665084839 75.41995751857758 55.23383665084839 75.41995751857758 Z M 55.23383665084839 59.34652841091156 C 55.23383665084839 59.34652841091156 44.65982961654663 59.34652841091156 44.65982961654663 59.34652841091156 C 44.65982961654663 59.34652841091156 44.65982961654663 48.916584849357605 44.65982961654663 48.916584849357605 C 44.65982961654663 48.916584849357605 55.23926067352295 48.916584849357605 55.23926067352295 48.916584849357605 C 55.23926067352295 48.916584849357605 55.23383665084839 59.34652841091156 55.23383665084839 59.34652841091156 Z M 71.57975482940674 91.5058753490448 C 71.57975482940674 91.5058753490448 61.01125526428223 91.5058753490448 61.01125526428223 91.5058753490448 C 61.01125526428223 91.5058753490448 61.01125526428223 81.07602035999298 61.01125526428223 81.07602035999298 C 61.01125526428223 81.07602035999298 71.59252214431763 81.07602035999298 71.59252214431763 81.07602035999298 C 71.59252214431763 81.07602035999298 71.57975482940674 91.5058753490448 71.57975482940674 91.5058753490448 Z M 71.57975482940674 75.43244624137878 C 71.57975482940674 75.43244624137878 61.01125526428223 75.43244624137878 61.01125526428223 75.43244624137878 C 61.01125526428223 75.43244624137878 61.01125526428223 64.99718832969666 61.01125526428223 64.99718832969666 C 61.01125526428223 64.99718832969666 71.59252214431763 64.99718832969666 71.59252214431763 64.99718832969666 C 71.59252214431763 64.99718832969666 71.57975482940674 75.43244624137878 71.57975482940674 75.43244624137878 Z M 71.57975482940674 59.35901713371277 C 71.57975482940674 59.35901713371277 61.01125526428223 59.35901713371277 61.01125526428223 59.35901713371277 C 61.01125526428223 59.35901713371277 61.01125526428223 48.916584849357605 61.01125526428223 48.916584849357605 C 61.01125526428223 48.916584849357605 71.59252214431763 48.916584849357605 71.59252214431763 48.916584849357605 C 71.59252214431763 48.916584849357605 71.57975482940674 59.35901713371277 71.57975482940674 59.35901713371277 Z M 80.23766326904297 91.51845264434814 C 80.23766326904297 91.51845264434814 77.36443328857422 91.51845264434814 77.36443328857422 91.51845264434814 C 77.36443328857422 91.51845264434814 77.36443328857422 43.24085891246796 77.36443328857422 43.24085891246796 C 77.36443328857422 43.24085891246796 22.53465700149536 43.24085891246796 22.53465700149536 43.24085891246796 C 22.53465700149536 43.24085891246796 22.53465700149536 91.48089790344238 22.53465700149536 91.48089790344238 C 22.53465700149536 91.48089790344238 19.648743152618408 91.48089790344238 19.648743152618408 91.48089790344238 C 19.648743152618408 91.48089790344238 19.648743152618408 40.40299594402313 19.648743152618408 40.40299594402313 C 19.648743152618408 40.40299594402313 80.25043058395386 40.40299594402313 80.25043058395386 40.40299594402313 C 80.25043058395386 40.40299594402313 80.25043058395386 91.48089790344238 80.25043058395386 91.48089790344238 C 80.25043058395386 91.48089790344238 80.23766326904297 91.51845264434814 80.23766326904297 91.51845264434814 Z M 86.00965785980225 91.51845264434814 C 86.00965785980225 91.51845264434814 86.00965785980225 34.72735857963562 86.00965785980225 34.72735857963562 C 86.00965785980225 34.72735857963562 13.87674856185913 34.72735857963562 13.87674856185913 34.72735857963562 C 13.87674856185913 34.72735857963562 13.87674856185913 91.48089790344238 13.87674856185913 91.48089790344238 C 13.87674856185913 91.48089790344238 7.140446186065674 91.48089790344238 7.140446186065674 91.48089790344238 C 7.140446186065674 91.48089790344238 7.140446186065674 33.0360666513443 7.140446186065674 33.0360666513443 C 7.140446186065674 33.0360666513443 49.94866895675659 8.311495542526245 49.94866895675659 8.311495542526245 C 49.94866895675659 8.311495542526245 92.75689172744751 33.0360666513443 92.75689172744751 33.0360666513443 C 92.75689172744751 33.0360666513443 92.75689172744751 91.48089790344238 92.75689172744751 91.48089790344238 C 92.75689172744751 91.48089790344238 86.00965785980225 91.51845264434814 86.00965785980225 91.51845264434814 Z"/></g></svg>